<?xml version="1.0" encoding="UTF-8"?>
<svg width="22px" height="22px" viewBox="0 0 22 22" version="1.1" xmlns="http://www.w3.org/2000/svg" xmlns:xlink="http://www.w3.org/1999/xlink">
    <!-- Generator: Sketch 52.4 (67378) - http://www.bohemiancoding.com/sketch -->
    <title>公告</title>
    <desc>Created with Sketch.</desc>
    <defs>
        <path d="M16.86467,2.01954703 C16.86467,2.01954703 20.232335,1.20963727 19.971065,10.0164617 C19.971065,10.0164617 20.33399,16.0755617 16.89365,16.928708 C16.89365,16.928708 14.30984,13.588369 5.411315,13.1833909 L5.411315,6.96515435 C5.411315,6.96515435 12.93068,6.69030313 16.86467,2.01954703 Z M9.01136,14.6584397 C9.31619,16.6250787 11.14526,18.1724665 11.348525,18.5051519 C12.00161,19.2138519 11.783945,19.76323 11.783945,19.76323 C11.47898,20.5875983 9.46136,20.500708 9.46136,20.500708 C7.138865,17.5072812 6.81941,14.6584397 6.81941,14.6584397 L9.01136,14.6584397 Z M2,12.4603251 L2,7.6013763 L4.162925,7.6013763 L4.162925,12.4603251 L2,12.4603251 Z" id="path-1"></path>
    </defs>
    <g id="公告" stroke="none" stroke-width="1" fill="none" fill-rule="evenodd">
        <mask id="mask-2" fill="white">
            <use xlink:href="#path-1"></use>
        </mask>
        <use id="Clip-9" fill="#61C7FF" xlink:href="#path-1"></use>
    </g>
</svg>