<?xml version="1.0" encoding="UTF-8"?>
<svg width="24px" height="24px" viewBox="0 0 24 24" version="1.1" xmlns="http://www.w3.org/2000/svg" xmlns:xlink="http://www.w3.org/1999/xlink">
    <!-- Generator: Sketch 52.4 (67378) - http://www.bohemiancoding.com/sketch -->
    <title>输入框 copy 12</title>
    <desc>Created with Sketch.</desc>
    <g id="聊天" stroke="none" stroke-width="1" fill="none" fill-rule="evenodd">
        <g id="好友消息列表、文件、转发消息、阅后即焚消息" transform="translate(-402.000000, -1387.000000)">
            <g id="输入框2" transform="translate(340.000000, 1372.000000)">
                <g id="分组-6" transform="translate(62.000000, 15.000000)">
                    <rect id="输入框-copy-12" x="0" y="0" width="24" height="24"></rect>
                    <path d="M11,23 C4.92486775,23 0,18.0751322 0,12 C0,5.92486775 4.92486775,1 11,1 C17.0751322,1 22,5.92486775 22,12 C22,18.0751322 17.0751322,23 11,23 Z M11,10.9906397 L7.71957913,7.71021886 C7.44085199,7.43149172 6.98894613,7.43149159 6.71021886,7.71021886 C6.43149159,7.98894613 6.43149172,8.44085199 6.71021886,8.71957913 L9.99063973,12 L6.71021886,15.2804209 C6.43149172,15.559148 6.43149159,16.0110539 6.71021886,16.2897811 C6.98894613,16.5685084 7.44085199,16.5685083 7.71957913,16.2897811 L11,13.0093603 L14.2804209,16.2897811 C14.5591481,16.5685084 15.0110539,16.5685084 15.2897811,16.2897811 C15.5685084,16.0110539 15.5685084,15.5591481 15.2897811,15.2804209 L12.0093603,12 L15.2897811,8.71957913 C15.5685084,8.44085186 15.5685084,7.98894613 15.2897811,7.71021886 C15.0110539,7.43149159 14.5591481,7.43149159 14.2804209,7.71021886 L11,10.9906397 Z" id="合并形状" fill="#EF883E" fill-rule="nonzero"></path>
                </g>
            </g>
        </g>
    </g>
</svg>