<?xml version="1.0" encoding="UTF-8"?>
<svg width="13px" height="13px" viewBox="0 0 13 13" version="1.1" xmlns="http://www.w3.org/2000/svg" xmlns:xlink="http://www.w3.org/1999/xlink">
    <!-- Generator: Sketch 52.4 (67378) - http://www.bohemiancoding.com/sketch -->
    <title>关闭</title>
    <desc>Created with Sketch.</desc>
    <defs>
        <path d="M-0.278074866,5.59625668 L13.2780749,5.59625668 C13.7771987,5.59625668 14.1818182,6.00087612 14.1818182,6.5 C14.1818182,6.99912388 13.7771987,7.40374332 13.2780749,7.40374332 L-0.278074866,7.40374332 C-0.777198517,7.40374332 -1.18181818,6.99912388 -1.18181818,6.5 C-1.18181818,6.00087612 -0.777198517,5.59625668 -0.278074866,5.59625668 Z" id="path-1"></path>
        <path d="M7.40374332,-0.278074866 L7.40374332,13.2780749 C7.40374332,13.7771985 6.99912388,14.1818182 6.5,14.1818182 C6.00087612,14.1818182 5.59625668,13.7771985 5.59625668,13.2780749 L5.59625668,-0.278074866 C5.59625668,-0.777198743 6.00087612,-1.18181818 6.5,-1.18181818 C6.99912388,-1.18181818 7.40374332,-0.777198743 7.40374332,-0.278074866 Z" id="path-3"></path>
    </defs>
    <g id="关闭" stroke="none" stroke-width="1" fill="none" fill-rule="evenodd">
        <g id="分组-copy-5">
            <mask id="mask-2" fill="white">
                <use xlink:href="#path-1"></use>
            </mask>
            <use id="Clip-3" fill="#B2BCC6" transform="translate(6.500000, 6.500000) rotate(-315.000000) translate(-6.500000, -6.500000) " xlink:href="#path-1"></use>
            <mask id="mask-4" fill="white">
                <use xlink:href="#path-3"></use>
            </mask>
            <use id="Clip-5" fill="#B2BCC6" transform="translate(6.500000, 6.500000) rotate(-315.000000) translate(-6.500000, -6.500000) " xlink:href="#path-3"></use>
        </g>
    </g>
</svg>