<?xml version="1.0" encoding="UTF-8"?>
<svg width="30px" height="30px" viewBox="0 0 30 30" version="1.1" xmlns="http://www.w3.org/2000/svg" xmlns:xlink="http://www.w3.org/1999/xlink">
    <!-- Generator: Sketch 52.4 (67378) - http://www.bohemiancoding.com/sketch -->
    <title>分组</title>
    <desc>Created with Sketch.</desc>
    <defs>
        <path d="M15.0000001,30.0000004 C6.71572734,30.0000004 0,23.2842727 0,14.9999999 C0,6.71573137 6.71572734,3.33955086e-13 15.0000001,3.33955086e-13 C23.2842729,3.33955086e-13 30,6.71573137 30,14.9999999 C30,23.2842727 23.2842729,30.0000004 15.0000001,30.0000004 Z" id="path-1"></path>
        <path d="M15,14.0168569 L18.1952151,10.8216417 C18.4667027,10.5501541 18.9068707,10.5501541 19.1783583,10.8216417 C19.4498459,11.0931293 19.4498459,11.5332973 19.1783583,11.8047849 L15.9831431,15 L19.1783583,18.1952151 C19.4498459,18.4667027 19.4498459,18.9068707 19.1783583,19.1783583 C18.9068707,19.4498459 18.4667027,19.4498459 18.1952151,19.1783583 L15,15.9831431 L11.8047849,19.1783583 C11.5332974,19.4498457 11.0931293,19.4498459 10.8216417,19.1783583 C10.5501541,18.9068707 10.5501543,18.4667026 10.8216417,18.1952151 L14.0168569,15 L10.8216417,11.8047849 C10.5501543,11.5332974 10.5501541,11.0931293 10.8216417,10.8216417 C11.0931293,10.5501541 11.5332974,10.5501543 11.8047849,10.8216417 L15,14.0168569 Z" id="path-3"></path>
    </defs>
    <g id="聊天" stroke="none" stroke-width="1" fill="none" fill-rule="evenodd">
        <g id="通讯录、新朋友" transform="translate(-714.000000, -1416.000000)">
            <g id="分组" transform="translate(714.000000, 1416.000000)">
                <mask id="mask-2" fill="white">
                    <use xlink:href="#path-1"></use>
                </mask>
                <use id="Clip-5" fill="#EAF6FF" xlink:href="#path-1"></use>
                <mask id="mask-4" fill="white">
                    <use xlink:href="#path-3"></use>
                </mask>
                <use id="合并形状" fill="#32B2F7" xlink:href="#path-3"></use>
            </g>
        </g>
    </g>
</svg>