<?xml version="1.0" encoding="UTF-8"?>
<svg width="30px" height="30px" viewBox="0 0 30 30" version="1.1" xmlns="http://www.w3.org/2000/svg" xmlns:xlink="http://www.w3.org/1999/xlink">
    <!-- Generator: Sketch 52.4 (67378) - http://www.bohemiancoding.com/sketch -->
    <title>Clip 3</title>
    <desc>Created with Sketch.</desc>
    <defs>
        <path d="M767.616014,1432.27144 L765.516657,1430.17213 C765.143286,1429.79877 764.523486,1429.79466 764.143643,1430.17439 C763.761229,1430.55683 763.762814,1431.16884 764.141414,1431.54737 L766.920957,1434.32702 C767.136443,1434.54248 767.433786,1434.63494 767.719814,1434.60173 C767.957543,1434.59133 768.191714,1434.49511 768.373129,1434.3136 L773.855329,1428.83155 C774.239157,1428.44772 774.239157,1427.82107 773.852671,1427.43451 C773.4634,1427.04534 772.8406,1427.04684 772.455571,1427.4318 L767.616014,1432.27144 Z M784,1431.00002 C784,1439.28432 777.284329,1446 769,1446 C760.715671,1446 754,1439.28432 754,1431.00002 C754,1422.71571 760.715671,1416 769,1416 C777.284329,1416 784,1422.71571 784,1431.00002 Z" id="path-1"></path>
    </defs>
    <g id="聊天" stroke="none" stroke-width="1" fill="none" fill-rule="evenodd">
        <g id="通讯录、新朋友" transform="translate(-754.000000, -1416.000000)">
            <mask id="mask-2" fill="white">
                <use xlink:href="#path-1"></use>
            </mask>
            <use id="Clip-3" fill="#32B2F7" xlink:href="#path-1"></use>
        </g>
    </g>
</svg>