<?xml version="1.0" encoding="UTF-8"?>
<svg width="22px" height="22px" viewBox="0 0 22 22" version="1.1" xmlns="http://www.w3.org/2000/svg" xmlns:xlink="http://www.w3.org/1999/xlink">
    <!-- Generator: Sketch 52.4 (67378) - http://www.bohemiancoding.com/sketch -->
    <title>删除</title>
    <desc>Created with Sketch.</desc>
    <defs>
        <path d="M19.895974,1.46819182 C20.4503611,1.46819182 20.8998091,1.91763978 20.8998091,2.47202023 C20.8998091,3.02640731 20.4503611,3.47584864 19.895974,3.47584864 L2.00382951,3.47584864 C1.44944428,3.47584864 1,3.02640731 1,2.47202023 C1,1.91763978 1.44944428,1.46819182 2.00382951,1.46819182 L7.68333461,1.46819182 C7.65566106,1.38734176 7.63998226,1.30090257 7.63998226,1.21066648 L7.63998226,0.796930604 C7.63998226,0.356815577 7.99679783,0 8.43691286,0 L13.4628389,0 C13.903007,0 14.2598292,0.356815577 14.2598292,0.796930604 L14.2598292,1.21066648 C14.2598292,1.30090257 14.2441438,1.38734176 14.2164702,1.46819182 L19.895974,1.46819182 Z M15.7049618,16.9419473 L15.7049618,9.01034008 C15.7049618,8.67153322 15.4277948,8.39431313 15.0889348,8.39431313 C14.7500748,8.39431313 14.4729079,8.67153322 14.4729079,9.01034008 L14.4729079,16.9419473 C14.4729079,17.2807535 14.7500748,17.5580274 15.0889348,17.5580274 C15.4277948,17.5580274 15.7049618,17.2807535 15.7049618,16.9419473 Z M11.7598576,16.9419473 L11.7598576,9.01034008 C11.7598576,8.67153322 11.4826375,8.39431313 11.1437775,8.39431313 C10.8049706,8.39431313 10.5277505,8.67153322 10.5277505,9.01034008 L10.5277505,16.9419473 C10.5277505,17.2807535 10.8049706,17.5580274 11.1437775,17.5580274 C11.4826375,17.5580274 11.7598576,17.2807535 11.7598576,16.9419473 Z M7.81469958,16.9419473 L7.81469958,9.01034008 C7.81469958,8.67153322 7.53747949,8.39431313 7.19867396,8.39431313 C6.85981333,8.39431313 6.5825939,8.67153322 6.5825939,9.01034008 L6.5825939,16.9419473 C6.5825939,17.2807535 6.85981333,17.5580274 7.19867396,17.5580274 C7.53747949,17.5580274 7.81469958,17.2807535 7.81469958,16.9419473 Z M18.2924024,4.64655474 C18.8467297,4.64655474 19.2962308,5.09600271 19.2962308,5.65038316 L19.2962308,17.9351417 C19.2962308,20.1800842 17.4763678,22 15.2313716,22 L7.05623847,22 C4.81129604,22 2.9913806,20.1800842 2.9913806,17.9351417 L2.9913806,5.65038316 C2.9913806,5.09600271 3.44082459,4.64655474 3.99520968,4.64655474 L18.2924024,4.64655474 Z" id="path-1"></path>
    </defs>
    <g id="删除" stroke="none" stroke-width="1" fill="none" fill-rule="evenodd">
        <mask id="mask-2" fill="white">
            <use xlink:href="#path-1"></use>
        </mask>
        <use id="合并形状" fill="#B2BCC6" xlink:href="#path-1"></use>
    </g>
</svg>