<?xml version="1.0" encoding="UTF-8"?>
<svg width="40px" height="40px" viewBox="0 0 40 40" version="1.1" xmlns="http://www.w3.org/2000/svg" xmlns:xlink="http://www.w3.org/1999/xlink">
    <!-- Generator: Sketch 52.4 (67378) - http://www.bohemiancoding.com/sketch -->
    <title>分组 12 copy 2</title>
    <desc>Created with Sketch.</desc>
    <defs>
        <path d="M20,40 C8.954304,40 0,31.04568 0,20 C0,8.95432 8.954304,0 20,0 C31.045696,0 40,8.95432 40,20 C40,31.04568 31.045696,40 20,40 Z" id="path-1"></path>
        <path d="M27.4589628,12.2457385 C27.9418506,12.2457385 28.3333333,12.6270883 28.3333333,13.0974717 C28.3333333,13.5678607 27.9418506,13.9492049 27.4589628,13.9492049 L11.8743657,13.9492049 C11.3914795,13.9492049 11,13.5678607 11,13.0974717 C11,12.6270883 11.3914795,12.2457385 11.8743657,12.2457385 L16.8213858,12.2457385 C16.7972813,12.1771385 16.7836246,12.1037961 16.7836246,12.0272322 L16.7836246,11.6761835 C16.7836246,11.3027526 17.0944217,11 17.4777752,11 L21.8555082,11 C22.2389079,11 22.5497108,11.3027526 22.5497108,11.6761835 L22.5497108,12.0272322 C22.5497108,12.1037961 22.5360483,12.1771385 22.5119438,12.2457385 L27.4589628,12.2457385 Z M23.8084648,25.3749856 L23.8084648,18.645137 C23.8084648,18.3576646 23.567044,18.1224475 23.2718868,18.1224475 C22.9767295,18.1224475 22.7353087,18.3576646 22.7353087,18.645137 L22.7353087,25.3749856 C22.7353087,25.6624575 22.9767295,25.8977202 23.2718868,25.8977202 C23.567044,25.8977202 23.8084648,25.6624575 23.8084648,25.3749856 Z M20.3721602,25.3749856 L20.3721602,18.645137 C20.3721602,18.3576646 20.1306931,18.1224475 19.8355359,18.1224475 C19.5404249,18.1224475 19.2989578,18.3576646 19.2989578,18.645137 L19.2989578,25.3749856 C19.2989578,25.6624575 19.5404249,25.8977202 19.8355359,25.8977202 C20.1306931,25.8977202 20.3721602,25.6624575 20.3721602,25.3749856 Z M16.9358087,25.3749856 L16.9358087,18.645137 C16.9358087,18.3576646 16.6943416,18.1224475 16.3992318,18.1224475 C16.104074,18.1224475 15.8626075,18.3576646 15.8626075,18.645137 L15.8626075,25.3749856 C15.8626075,25.6624575 16.104074,25.8977202 16.3992318,25.8977202 C16.6943416,25.8977202 16.9358087,25.6624575 16.9358087,25.3749856 Z M26.0622036,14.9425313 C26.5450394,14.9425313 26.9365684,15.3238811 26.9365684,15.7942645 L26.9365684,26.217696 C26.9365684,28.1224957 25.3514129,29.6666667 23.3959535,29.6666667 L16.2751662,29.6666667 C14.3197537,29.6666667 12.7345525,28.1224957 12.7345525,26.217696 L12.7345525,15.7942645 C12.7345525,15.3238811 13.1260318,14.9425313 13.6089179,14.9425313 L26.0622036,14.9425313 Z" id="path-3"></path>
    </defs>
    <g id="聊天" stroke="none" stroke-width="1" fill="none" fill-rule="evenodd">
        <g id="多选、转发的聊天记录、查看资料、文件" transform="translate(-458.000000, -2374.000000)">
            <g id="分组-5" transform="translate(356.000000, 2374.000000)">
                <g id="分组-12-copy-2" transform="translate(102.000000, 0.000000)">
                    <mask id="mask-2" fill="white">
                        <use xlink:href="#path-1"></use>
                    </mask>
                    <use id="Clip-7" fill="#EAF6FF" xlink:href="#path-1"></use>
                    <mask id="mask-4" fill="white">
                        <use xlink:href="#path-3"></use>
                    </mask>
                    <use id="合并形状-copy" fill="#61C7FF" xlink:href="#path-3"></use>
                </g>
            </g>
        </g>
    </g>
</svg>