<?xml version="1.0" encoding="UTF-8"?>
<svg width="12px" height="12px" viewBox="0 0 12 12" version="1.1" xmlns="http://www.w3.org/2000/svg" xmlns:xlink="http://www.w3.org/1999/xlink">
    <!-- Generator: Sketch 52.4 (67378) - http://www.bohemiancoding.com/sketch -->
    <title>分组</title>
    <desc>Created with Sketch.</desc>
    <defs>
        <path d="M8.87499,10.479483 L11.48513,10.479483 C11.762405,10.479483 11.98713,10.7038565 11.98713,10.9806185 L11.98713,11.4818325 C11.98713,11.7585748 11.762405,11.9829483 11.48513,11.9829483 L8.87499,11.9829483 C8.597715,11.9829483 8.37299,11.7585748 8.37299,11.4818325 L8.37299,10.9806185 C8.37299,10.7038565 8.597715,10.479483 8.87499,10.479483 Z M4.736815,10.496476 L7.34695,10.496476 C7.624225,10.496476 7.84895,10.7208495 7.84895,10.9976705 L7.84895,11.498884 C7.84895,11.7756461 7.624225,12 7.34695,12 L4.736815,12 C4.4595605,12 4.234835,11.7756461 4.234835,11.498884 L4.234835,10.9976705 C4.234835,10.7208495 4.4595605,10.496476 4.736815,10.496476 Z M0.5243445,10.4503525 L3.1345605,10.4503525 C3.4117565,10.4503525 3.636482,10.674804 3.636482,10.951566 L3.636482,11.4527605 C3.636482,11.7295223 3.4117565,11.9538959 3.1345605,11.9538959 L0.5243445,11.9538959 C0.2470897,11.9538959 0.0223642147,11.7295223 0.0223642147,11.4527605 L0.0223642147,10.951566 C0.0223642147,10.674804 0.2470897,10.4503525 0.5243445,10.4503525 Z M7.794715,3.80881 L2.3273445,9.4620985 C2.2149915,9.5780345 2.0535995,9.6328505 1.893678,9.6093775 L0.29748185,9.375822 L0.00834460469,7.79213 C-0.0210671603,7.633007 0.0282465697,7.469499 0.1408544,7.353113 L5.608225,1.69992 L7.794715,3.80881 Z M8.840835,2.72725 L6.654245,0.61934 L6.935425,0.32868 C7.120325,0.1371 7.37399,0.02684 7.64046,0.022085 C7.906935,0.017425 8.164285,0.118675 8.355915,0.303585 L9.097795,1.019305 C9.289445,1.203915 9.39966,1.45695 9.404405,1.72279 C9.40907,1.98853 9.307815,2.24532 9.122935,2.43657 L8.841835,2.72725 L8.840835,2.72725 Z" id="path-1"></path>
    </defs>
    <g id="聊天" stroke="none" stroke-width="1" fill="none" fill-rule="evenodd">
        <g id="群消息（加群限制、加好友限制）-copy" transform="translate(-808.000000, -81.000000)">
            <g id="分组" transform="translate(808.000000, 81.000000)">
                <mask id="mask-2" fill="white">
                    <use xlink:href="#path-1"></use>
                </mask>
                <g id="Clip-3"></g>
                <polygon id="Fill-2" fill="#B2BCC6" mask="url(#mask-2)" points="-2.5 -2.47807 14.48713 -2.47807 14.48713 14.5 -2.5 14.5"></polygon>
            </g>
        </g>
    </g>
</svg>