<?xml version="1.0" encoding="UTF-8"?>
<svg width="44px" height="44px" viewBox="0 0 44 44" version="1.1" xmlns="http://www.w3.org/2000/svg" xmlns:xlink="http://www.w3.org/1999/xlink">
    <!-- Generator: Sketch 52 (66869) - http://www.bohemiancoding.com/sketch -->
    <title>操作失败</title>
    <desc>Created with Sketch.</desc>
    <g id="聊天" stroke="none" stroke-width="1" fill="none" fill-rule="evenodd">
        <g id="联系人消息（添加好友成功提示）" transform="translate(-255.000000, -149.000000)">
            <g id="操作失败pop" transform="translate(235.000000, 129.000000)">
                <g id="操作失败" transform="translate(20.000000, 20.000000)">
                    <circle id="Oval-12" fill="#FAEEEE" cx="22" cy="22" r="22"></circle>
                    <circle id="Oval-12-Copy-3" fill="#EB8282" cx="22" cy="22" r="12"></circle>
                    <path d="M21.4999646,32.6366791 C15.3591769,32.6366791 10.3632854,27.6407522 10.3632854,21.4999646 C10.3632854,15.3591769 15.3591769,10.36325 21.4999646,10.36325 C27.6408231,10.36325 32.6367854,15.3591769 32.6367854,21.4999646 C32.6367854,27.6407522 27.6408231,32.6366791 21.4999646,32.6366791 M21.4999646,9 C14.6074591,9 9,14.6074591 9,21.4999646 C9,28.3925055 14.6074591,34 21.5,34 C28.3925055,34 34,28.3925055 34,21.4999646 C34,14.6074591 28.3925055,9 21.4999646,9" id="Fill-3" fill="#FFFFFF" fill-rule="nonzero"></path>
                    <path d="M26.2142958,21.7143261 L22.2857395,21.7143261 L22.2857395,17.7857092 C22.2857395,17.3514057 21.9343007,17 21.5,17 C21.0656993,17 20.7142958,17.3514411 20.7142958,17.7857092 L20.7142958,21.7143261 L16.7857748,21.7143261 C16.3514035,21.7143261 16,22.0657672 16,22.5000353 C16,22.9335264 16.3514388,23.2857092 16.7857748,23.2857092 L20.7142605,23.2857092 L20.7142605,27.2143261 C20.7142605,27.6478525 21.0656993,28 21.4999647,28 C21.9343007,28 22.2857395,27.6478525 22.2857395,27.2143261 L22.2857395,23.2857446 L26.2142605,23.2857446 C26.6485965,23.2857446 27,22.9335264 27,22.5000353 C27.0000353,22.0657318 26.6486318,21.7143261 26.2142958,21.7143261" id="Fill-1" fill="#FFFFFF" transform="translate(21.500000, 22.500000) rotate(45.000000) translate(-21.500000, -22.500000) "></path>
                </g>
            </g>
        </g>
    </g>
</svg>