<?xml version="1.0" encoding="UTF-8"?>
<svg width="60px" height="60px" viewBox="0 0 60 60" version="1.1" xmlns="http://www.w3.org/2000/svg" xmlns:xlink="http://www.w3.org/1999/xlink">
    <!-- Generator: Sketch 52.4 (67378) - http://www.bohemiancoding.com/sketch -->
    <title>合并形状</title>
    <desc>Created with Sketch.</desc>
    <g id="聊天" stroke="none" stroke-width="1" fill="none" fill-rule="evenodd" opacity="0.798990885">
        <g id="群聊消息-copy-3" transform="translate(-572.000000, -605.000000)" fill="#EAF6FF" fill-rule="nonzero">
            <path d="M602,665 C585.431458,665 572,651.568542 572,635 C572,618.431458 585.431458,605 602,605 C618.568542,605 632,618.431458 632,635 C632,651.568542 618.568542,665 602,665 Z M594.320002,647.681818 C593.52473,647.681818 592.880003,648.322861 592.880003,649.113636 C592.880003,649.904412 593.52473,650.545455 594.320002,650.545455 L610.159998,650.545455 C610.95527,650.545455 611.599997,649.904412 611.599997,649.113636 C611.599997,648.322861 610.95527,647.681818 610.159998,647.681818 L594.320002,647.681818 Z M601.982764,644.340909 C603.214945,644.340909 604.400545,643.840597 605.239126,642.967513 L612.929706,635.667909 L612.976724,635.573192 C613.963778,634.310741 614.25396,632.737769 613.772106,631.243114 C613.221088,629.533707 611.708761,628.182418 609.919234,627.800665 C609.218216,627.651116 608.500725,627.651224 607.813998,627.797812 L607.813998,625.645193 C607.813998,622.532409 605.198108,620 601.982545,620 C598.767201,620 596.151202,622.532409 596.151202,625.645193 L596.151202,627.814831 C594.545166,627.459892 592.851421,627.917694 591.613239,629.071783 C590.784367,629.844184 590.249603,630.819426 590.066658,631.891923 C589.888076,632.938831 590.071131,634.025711 590.582003,634.952629 C590.630003,635.039558 590.688258,635.125499 590.75524,635.208154 L591.537967,636.174458 C591.588367,636.236753 591.643676,636.296304 591.702148,636.351407 L598.727274,642.968566 C599.565855,643.840966 600.751018,644.340909 601.982764,644.340909 Z" id="合并形状"></path>
        </g>
    </g>
</svg>