<?xml version="1.0" encoding="UTF-8"?>
<svg width="200px" height="211px" viewBox="0 0 200 211" version="1.1" xmlns="http://www.w3.org/2000/svg" xmlns:xlink="http://www.w3.org/1999/xlink">
    <!-- Generator: Sketch 52.4 (67378) - http://www.bohemiancoding.com/sketch -->
    <title>分组 2</title>
    <desc>Created with Sketch.</desc>
    <defs>
        <path d="M67.9751364,1.93974796 C84.291,-5.64953634 186.072955,10.606312 193.647636,31.7539572 C201.222318,52.9016477 178.498318,54.5881503 186.072955,67.8374529 C193.647636,81.0867101 208.504045,96.0666665 193.647636,113.938412 C178.791273,131.810157 112.460591,127.130313 101.600773,127.130313 C90.7409545,127.130313 48.1282273,135.125807 38.2780455,127.130313 C28.4278182,119.13482 24.0807727,126.909557 8.22,113.938412 C-7.64077273,100.967266 0.420363636,47.07832 24.0807727,36.3057944 C47.7411364,25.5333142 51.6592273,9.52907763 67.9751364,1.93974796 Z" id="path-1"></path>
        <path d="M0.429,4.88635161 C2.36731818,3.52950817 3.77518182,2.74427054 4.65259091,2.53072946 C5.53,2.31718839 6.91913636,1.55731613 8.82004545,0.251021935 C11.1191364,1.89378172 12.6461818,3.34881957 13.4011818,4.61609011 C14.1562273,5.88336065 14.4660455,8.35378495 14.3307273,12.0274084 C13.2212273,12.5008652 12.0572727,12.8415961 10.8389545,13.0495559 C9.62063636,13.2575611 8.05786364,14.2289325 6.15068182,15.9638062 C5.51586364,13.2400004 5.19845455,10.9528512 5.19845455,9.10240387 C5.19845455,7.25195656 3.60863636,5.84656043 0.429,4.88635161 Z" id="path-3"></path>
        <path d="M0.0255454545,4.66427978 C1.96386364,3.30743634 3.37172727,2.52224409 4.24913636,2.30870301 C5.1265,2.09516194 6.51563636,1.3352443 8.41654545,0.0289501075 C10.7156364,1.67170989 12.2426818,3.12674774 12.9977273,4.39401828 C13.7527273,5.66128882 14.0625909,8.13175849 13.9272727,11.8053819 C12.8177273,12.2788387 11.6538182,12.6195243 10.4355,12.8275295 C9.21718182,13.0354892 7.65440909,14.006906 5.74718182,15.7417344 C5.11240909,13.0179286 4.795,10.7308247 4.795,8.88033204 C4.795,7.02988473 3.20518182,5.62453398 0.0255454545,4.66427978 Z" id="path-5"></path>
        <path d="M14.7957273,6.10629462 C13.2066364,6.64908645 11.9113182,7.35473398 10.9097273,8.2232372 C9.90809091,9.09178581 9.01359091,11.7105908 8.22627273,16.079652 L0.413681818,11.2602759 C0.984227273,8.82801312 1.61940909,6.85146495 2.31927273,5.33067677 C3.01913636,3.80984323 4.98813636,2.15524022 8.22627273,0.366867742 L14.7957273,6.10629462 Z" id="path-7"></path>
        <path d="M14.6884545,5.79737247 C13.0994091,6.3401643 11.8040455,7.04581183 10.8024545,7.91431505 C9.80081818,8.78281828 8.90636364,11.4016232 8.119,15.7706845 L0.306454545,10.9513084 C0.876954545,8.51904559 1.51218182,6.5425428 2.21204545,5.02170925 C2.91190909,3.50092108 4.88090909,1.84631806 8.119,0.0579455914 L14.6884545,5.79737247 Z" id="path-9"></path>
        <path d="M4.29140909,0.173791398 C6.74254545,3.23061419 8.67927273,5.04244624 10.1016364,5.60937828 C11.524,6.17626495 13.5704545,6.3645314 16.2410455,6.17417763 L12.5733636,13.4344381 C9.32272727,13.868372 6.95754545,13.6214794 5.47772727,12.69376 C3.99790909,11.7659953 2.19245455,10.0330273 0.0612727273,7.49490151 L4.29140909,0.173791398 Z" id="path-11"></path>
        <path d="M16.5028636,5.68601892 C21.2760909,5.68601892 20.1046364,3.15528946 28.1551364,0.55989871 C36.2056364,-2.03544667 46.3697273,12.1517849 44.3525455,18.1000338 C42.3353636,24.0482826 33.4091818,14.4639819 28.1551364,14.4639819 C22.9010455,14.4639819 21.8650909,20.8972585 10.8591818,20.8972585 C-0.146727273,20.8972585 -1.31559091,10.8153155 1.27754545,5.68601892 C3.87068182,0.556767742 11.7296364,5.68601892 16.5028636,5.68601892 Z" id="path-13"></path>
        <path d="M17.9379091,3.72117785 C21.5048636,5.30653656 25.9272727,2.43380559 32.9991818,2.74009591 C40.0710909,3.04643161 36.9123182,14.9971994 32.9848636,19.7533209 C29.0574545,24.5094424 24.1261818,24.7926815 20.1999091,23.0475981 C16.2736818,21.3025146 13.4026818,22.6341288 5.17818182,18.9786559 C-3.04631818,15.323183 0.182,5.73797484 4.20663636,1.92023613 C8.23127273,-1.89754796 14.3709545,2.13581914 17.9379091,3.72117785 Z" id="path-15"></path>
        <path d="M24.8170909,5.07302989 C31.9528182,5.07302989 30.2015455,2.87241333 42.2366364,0.615530108 C54.2717273,-1.64130774 69.4665455,10.6954312 66.4509545,15.8678353 C63.4353636,21.040194 50.0911818,12.7060116 42.2366364,12.7060116 C34.3820455,12.7060116 32.8333636,18.3001888 16.3800909,18.3001888 C-0.0732272727,18.3001888 -1.82063636,9.53325226 2.056,5.07302989 C5.93263636,0.612807527 17.6813636,5.07302989 24.8170909,5.07302989 Z" id="path-17"></path>
        <path d="M5.17131818,0.524913548 C4.78363636,2.82322538 4.94713636,4.64390581 5.66190909,5.98709097 C6.73404545,8.00180065 11.5966818,9.76140452 10.0894091,11.6287772 C8.58218182,13.4961953 5.18809091,13.1757475 3.61068182,11.0965581 C2.03327273,9.0173686 0.130681818,8.44240495 0.130681818,6.55125505 C0.130681818,4.66005978 1.32004545,2.92373398 1.32004545,1.14321161 C1.32004545,-0.0438335484 2.60377273,-0.249932903 5.17131818,0.524913548 Z" id="path-19"></path>
        <path d="M11.3808636,0.30384 C10.9146818,1.24426473 10.9146818,2.08222968 11.3808636,2.81768946 C12.0801364,3.92083376 13.7930455,4.13324043 12.8724545,6.27473161 C11.9518182,8.4162228 9.83922727,6.81284968 7.9865,7.84720344 C6.13377273,8.8815572 0.0103181818,10.4267578 0.0103181818,7.84720344 C0.0103181818,5.26760366 7.27422727,5.20820602 7.27422727,4.01294774 C7.27422727,3.21609376 7.51168182,1.97972452 7.9865,0.30384 L11.3808636,0.30384 Z" id="path-21"></path>
        <path d="M11.3432727,0.379482366 C10.3976818,4.40885634 10.3976818,7.1375628 11.3432727,8.56560172 C12.2889091,9.99368602 12.9671364,10.4429118 13.3779545,9.91332452 C8.32995455,12.1825955 4.90040909,12.9794948 3.08936364,12.3039772 C0.372772727,11.2906327 -0.254636364,4.87473527 0.616954545,2.06956968 C1.198,0.199429032 4.77345455,-0.36391828 11.3432727,0.379482366 Z" id="path-23"></path>
        <path d="M4.36531818,7.42533957 L28.6869545,0.373401935 C29.1295455,28.6090135 28.9138182,43.9198542 28.0397727,46.3059692 C26.7287273,49.8851645 20.9078182,49.611046 18.6514091,47.3143224 C16.395,45.0175987 17.3107727,17.1728589 16.3555909,16.3446045 C15.4003636,15.5163501 9.94668182,25.7244847 9.94668182,30.8037766 C9.94668182,35.8831138 15.0065909,45.3124542 14.3525,48.3068391 C13.6984545,51.3011787 9.05995455,50.9152529 5.17068182,49.611046 C1.28136364,48.3068391 0.413409091,33.1217817 0.413409091,25.0233748 C0.413409091,19.624452 1.73068182,13.7584252 4.36531818,7.42533957 Z" id="path-25"></path>
        <path d="M9.95418182,13.2025196 C10.2068182,11.4544867 10.8295455,10.2272834 11.8223182,9.52090989 C12.8151364,8.81449097 14.6211364,8.31371763 17.2402727,8.01854452 L16.2389091,13.9431069 C16.2689545,14.8199594 15.4048182,16.6646439 13.6465,19.4771151 C11.0090455,23.6958445 7.8445,19.2029512 6.74518182,16.9130794 C5.64590909,14.6232529 4.23922727,10.3553355 4.23922727,8.8121314 C4.23922727,7.26897269 1.682,6.96390753 0.783772727,5.1282529 C-0.114454545,3.29259828 0.0311363636,0.106589032 2.3095,0.106589032 C4.58781818,0.106589032 2.11654545,2.93162946 4.23922727,3.92419161 C6.36190909,4.91675376 6.74518182,7.04268086 6.74518182,8.8121314 C6.74518182,9.99178022 7.81486364,11.4552581 9.95418182,13.2025196 Z" id="path-27"></path>
        <path d="M10.6058182,1.26236989 C15.1487273,-0.0288593548 30.2049545,-0.955761935 32.8689091,2.18977161 C35.5329091,5.33525978 36.7881364,19.3918529 35.6187727,19.3918529 C34.8391364,19.3918529 34.2118636,18.6226331 33.7368636,17.0842389 C27.0565909,28.6788477 22.4224091,34.8566555 19.8342727,35.6176168 C15.9520455,36.7590587 12.2306364,33.9506714 9.74727273,32.8364553 C7.26390909,31.7221938 2.306,34.2112224 1.36704545,32.8364553 C0.428045455,31.4616882 2.306,28.7136514 4.62704545,25.6007888 C6.17440909,23.5255471 6.43240909,20.9857424 5.401,17.9814654 L0.196136364,17.9814654 C0.376090909,11.4166428 0.954545455,7.30418473 1.9315,5.64422731 C3.39695455,3.15420043 6.06290909,2.55359914 10.6058182,1.26236989 Z" id="path-29"></path>
        <path d="M1.1835,2.19889226 C5.58236364,-0.362239355 8.50859091,-0.570970538 9.96204545,1.57278946 C12.1422273,4.78842946 11.4055,7.06446151 12.1787727,10.0276729 C12.6943182,12.003132 13.6849545,13.1089535 15.1507273,13.3451374 C14.6857727,14.9822705 12.6520909,15.9785989 9.04977273,16.334168 C5.4475,16.6896916 4.24440909,15.9399383 5.44063636,14.084908 L8.12713636,13.0097609 L7.38731818,10.6902583 C5.08127273,12.5639383 3.1805,12.2171269 1.68490909,9.64982409 C0.189318182,7.08252129 0.0221818182,4.59889247 1.1835,2.19889226 Z" id="path-31"></path>
        <path d="M14.0531818,2.91924172 C13.6631818,5.30984903 13.0320909,7.30345871 12.1599091,8.90007075 C11.2877273,10.4966828 8.35559091,14.2598791 3.36359091,20.1896144 C2.3765,20.0548467 1.61604545,19.7610802 1.08222727,19.3083604 C0.548454545,18.8555953 0.282727273,18.2789981 0.285136364,17.5785688 C4.83518182,10.8179473 7.11018182,6.75898796 7.11018182,5.40164538 C7.11018182,4.0443028 7.30036364,2.4232329 7.68072727,0.538481075 C10.2019545,0.189673118 11.8123182,0.349125591 12.5118636,1.01683849 C13.2114091,1.6845514 13.7251818,2.31868581 14.0531818,2.91924172 Z" id="path-33"></path>
        <path d="M0.556045455,5.19813247 C-0.0775454545,4.47855441 1.57286364,1.71372839 4.73759091,0.608133763 C7.90231818,-0.49746086 12.1181818,1.70202129 12.4241364,5.72776516 C12.7301364,9.75346366 12.6809545,10.878434 11.6688636,10.878434 C11.0275,10.878434 9.87654545,10.3960381 9.49722727,9.10966409 C9.27804545,8.36621806 10.0768636,6.40890946 9.30859091,6.09154731 C7.6165,5.39257011 8.76840909,6.97325505 7.54790909,7.48097097 C6.32745455,7.98873226 7.587,3.90309161 5.15681818,3.90309161 C2.72663636,3.90309161 1.18963636,5.91771054 0.556045455,5.19813247 Z" id="path-35"></path>
        <path d="M0.1785,2.80952172 L8.36686364,0.0937929032 C11.8245455,3.06440065 14.3507727,5.61641161 15.9455909,7.74987118 C17.5404091,9.88333075 19.1050455,14.1874585 20.6395,20.662209 L19.2773636,22.8323327 L15.3760909,24.0320832 C16.5589545,22.0479572 16.9605455,20.3725718 16.5808636,19.0059725 C16.2011364,17.6393731 10.7337273,12.2405865 0.1785,2.80952172 Z" id="path-37"></path>
        <path d="M3.57254545,1.23959097 C6.71172727,-2.57964516 9.41986364,4.67557849 13.057,5.82995269 C15.4817727,6.59953548 14.2694091,10.979714 9.41986364,18.9704428 L4.77377273,18.9704428 L4.77377273,13.2653658 C3.36877273,13.8284409 2.07636364,13.6741159 0.8965,12.802391 C-0.873272727,11.4948262 0.433363636,5.05878172 3.57254545,1.23959097 Z" id="path-39"></path>
        <path d="M8.02727273,0.169843656 C11.522,0.502316129 13.2693636,2.2214443 13.2693636,5.32727355 C13.2693636,9.98597204 19.6195455,5.55097892 19.6195455,11.660223 C19.6195455,17.7695125 13.2693636,17.3252781 13.2693636,19.1521297 C13.2693636,20.9789359 15.1834545,19.1521297 15.1834545,20.5635609 C15.1834545,21.5045301 13.3153182,22.3669075 9.57904545,23.1506024 C3.27145455,17.5432206 0.117636364,14.3290781 0.117636364,13.50822 C0.117636364,12.2768422 7.11990909,9.9641914 8.02727273,8.34502731 C8.63218182,7.26561484 8.63218182,4.54053849 8.02727273,0.169843656 Z" id="path-41"></path>
        <path d="M22.1763182,1.23986323 C24.6395,3.32962538 22.9430909,9.71983978 21.7775,12.6488374 C20.6119091,15.5778351 28.2797727,21.9106484 30.1466364,26.7989966 C32.0135,31.6872994 29.4563182,42.2582632 31.3122273,44.7978411 C32.5495,46.4908778 34.8741818,48.837697 38.2863182,51.8382531 L0.241636364,50.547886 C7.86872727,31.5202237 11.6822727,20.9863776 11.6822727,18.9463026 C11.6822727,15.8862127 9.25213636,12.1834123 9.25213636,10.4875622 C9.25213636,8.79171204 12.1404545,3.80412581 15.2144091,2.07810043 C18.2883636,0.352029677 19.7130909,-0.849944301 22.1763182,1.23986323 Z" id="path-43"></path>
        <path d="M22.5808182,11.9930585 C25.6310909,11.6599508 27.3522273,11.9584817 27.7442273,12.8886514 C28.3321818,14.2839286 20.4208182,22.0739125 17.4700909,22.0739125 C14.5193182,22.0739125 5.93622727,7.94666839 4.96513636,7.28489978 C3.994,6.62313118 2.06213636,6.64336903 1.30363636,4.83053871 C0.893818182,3.85090882 0.101818182,1.43892925 0.317272727,0.410973548 C0.340409091,0.30061828 0.757318182,0.412425591 1.56804545,0.746486237 C3.22963636,3.21763656 4.25527273,4.45323441 4.64495455,4.45323441 C5.22954545,4.45323441 5.07763636,2.70574602 5.723,3.21464172 C6.36840909,3.72349204 5.98904545,4.93190946 6.93104545,5.68502065 C7.87309091,6.4381772 16.2952727,15.8245462 17.4700909,15.8245462 C18.2532727,15.8245462 19.9568182,14.5473837 22.5808182,11.9930585 Z" id="path-45"></path>
        <path d="M0.485136364,1.41624108 C1.75340909,-0.446684731 6.3215,-0.57292172 9.59068182,2.89115376 C12.8598636,6.35527462 8.84104545,8.25177892 6.3215,7.15280925 C3.80195455,6.05379419 -0.783090909,3.27921226 0.485136364,1.41624108 Z" id="path-47"></path>
        <path d="M0.784727273,0.710230538 C2.25931818,-0.249615269 6.25318182,0.781652903 10.3089545,2.5202929 C16.9537727,5.36883828 23.7364091,10.3874166 24.2397273,12.3499434 C25.0502273,15.5103151 22.5858636,15.4715637 13.6911818,12.3499434 C4.7965,9.22827785 -1.19068182,1.99610538 0.784727273,0.710230538 Z" id="path-49"></path>
        <path d="M11.1881364,0.328388602 L19.9675455,0.328388602 L6.97827273,23.6283245 L0.145954545,18.9037396 C2.99990909,18.9037396 4.6565,18.9037396 5.11572727,18.9037396 C5.57495455,18.9037396 7.59909091,12.7119559 11.1881364,0.328388602 Z" id="path-51"></path>
        <path d="M5.46445455,0.819814409 C6.505,1.44360301 6.45518182,2.27308258 9.16327273,3.06607957 C10.8163182,3.55010903 12.0945909,3.24449935 12.0945909,3.74227785 C12.0945909,4.03273183 11.5890909,5.04516882 11.1206364,5.56096172 C10.0971818,6.68801935 8.44672727,6.24727892 7.03340909,5.56096172 C5.62013636,4.87468989 -0.161863636,1.42867419 0.290772727,0.643572688 C0.743363636,-0.141528817 4.42390909,0.196025806 5.46445455,0.819814409 Z" id="path-53"></path>
        <path d="M8.04295455,0.0543154839 C8.61872727,-0.172067097 10.5032727,0.336147957 10.8914545,1.52287548 C11.2795909,2.70964839 8.13945455,6.38372559 6.77740909,6.67141161 C5.41536364,6.95909763 0.0545,7.42239011 0.0545,6.36090129 C0.0545,5.29945785 2.46072727,4.3036286 3.75259091,3.89093075 C5.0445,3.47827828 5.80663636,3.38607355 6.77740909,2.31001892 C7.74818182,1.2339643 7.46713636,0.280652688 8.04295455,0.0543154839 Z" id="path-55"></path>
        <path d="M0.174772727,0.0427445161 C3.27313636,-0.285553333 5.70272727,1.67102925 7.46354545,5.91244688 C9.22436364,10.1539099 8.39640909,12.5110295 4.97972727,12.9838056 L0.174772727,0.0427445161 Z" id="path-57"></path>
        <path d="M7.85904545,0.136083656 C8.45468182,2.44896129 8.45468182,4.14871376 7.85904545,5.2352957 C6.96563636,6.8651686 2.69413636,11.7899086 0.810727273,9.41218817 C-0.444909091,7.82705634 0.659454545,4.73502151 4.12386364,0.136083656 L7.85904545,0.136083656 Z" id="path-59"></path>
        <path d="M4.5545,0.0301298925 C8.87804545,4.69872043 10.3876364,7.30727032 9.08327273,7.85568882 C6.28318182,9.03302344 2.949,6.71061677 1.23909091,4.27445161 C0.728590909,3.54715957 0.453181818,2.49284022 0.412818182,1.1114028 L4.5545,0.0301298925 Z" id="path-61"></path>
        <path d="M9.23754545,0.313550538 L27.9345455,1.05336645 C28.3421818,13.8935105 28.1697273,22.4906034 27.4171364,26.8446905 C26.2882273,33.3757531 21.9849091,46.7988925 20.0589091,47.8869718 C18.1329091,48.9750058 17.0087727,50.0630852 15.3501364,48.9750058 C13.6915455,47.8869718 14.0248182,46.0877998 15.3501364,44.3774292 C16.6755,42.6670587 14.7682727,42.6770415 14.7682727,41.0125011 C14.7682727,39.3479606 16.9126364,37.9211923 16.9126364,36.0889409 C16.9126364,34.2566441 19.5304091,31.8502912 19.5304091,29.3474682 C19.5304091,26.8446905 20.9279091,13.6685346 19.5304091,13.6685346 C18.1329091,13.6685346 16.7775,25.692086 14.0614545,32.9594252 C11.3454545,40.2268097 8.78386364,52.1232166 5.96427273,52.7479127 C3.14468182,53.3726542 0.0641363636,53.571448 0.0641363636,52.1232166 C0.0641363636,50.6750305 1.8785,48.5136645 1.8785,47.1511037 C1.8785,45.7885428 0.793545455,43.9719009 1.37340909,42.6854361 C1.95327273,41.3990168 3.99986364,39.4251912 3.99986364,37.757066 C3.99986364,36.0889409 3.71427273,31.5494914 5.18222727,28.5729847 C6.65013636,25.5964781 7.07836364,12.4083882 7.59740909,8.8011957 C7.94345455,6.39643097 8.49013636,3.56721591 9.23754545,0.313550538 Z" id="path-63"></path>
        <path d="M10.4237273,0.314503441 C21.3803182,-1.03489828 21.4748182,9.85556043 21.4748182,16.34406 C21.4748182,22.8325142 22.5893636,32.2138011 20.5337273,33.4815254 C18.4781364,34.7492497 12.3112727,34.1265501 9.49413636,32.8588258 C6.67704545,31.5911015 4.67936364,33.4731761 1.76277273,32.8588258 C-1.15377273,32.2444755 0.535681818,26.3377006 0.535681818,16.34406 C0.535681818,9.29779441 -1.35154545,5.16655054 2.17554545,2.70647204 C3.65090909,1.67742731 7.19236364,0.712499355 10.4237273,0.314503441 Z" id="path-65"></path>
        <path d="M0.0941818182,3.62806559 C4.85890909,3.30031226 7.87172727,2.81614667 9.13263636,2.17556882 C10.3935909,1.53499097 12.9926364,0.880754839 16.9297727,0.21286043 L16.4676818,13.0768725 C13.4897273,13.6116781 10.8378182,14.2784381 8.51195455,15.0771978 C6.18613636,15.8759576 3.38022727,16.4831385 0.0941818182,16.8986951 L0.0941818182,3.62806559 Z" id="path-67"></path>
        <path d="M6.931,2.87073441 C7.33686364,5.17081591 7.75627273,6.32083398 8.18913636,6.32083398 C8.83845455,6.32083398 17.5232273,5.13515011 18.9784545,4.29291978 C20.4336364,3.45068946 21.5157273,1.22003376 23.4583182,1.22003376 C25.4009091,1.22003376 28.5981818,1.74590022 28.5981818,3.77041118 C28.5981818,5.79492215 25.6133636,5.79492215 24.5358636,5.79492215 C23.4583182,5.79492215 21.6966818,5.24949849 20.1140909,6.32083398 C18.5315,7.39212409 8.68909091,13.0379396 5.33477273,11.3564738 C3.152,10.2622686 0.397772727,7.43622989 0.397772727,2.38066989 C0.397772727,2.30938366 2.41786364,1.64493785 6.458,0.387332473 L6.931,2.87073441 Z" id="path-69"></path>
        <path d="M9.20213636,0.136537419 C13.2890909,0.942512043 11.875,16.6737191 9.20213636,17.3880335 C6.52922727,18.1023933 7.95813636,15.7948247 5.3605,15.7948247 C2.76281818,15.7948247 2.19731818,18.138649 0.343909091,16.6776669 C-1.5095,15.2167301 5.11513636,-0.669437204 9.20213636,0.136537419 Z" id="path-71"></path>
        <path d="M9.84940909,1.40566839 C10.3000909,2.99157161 10.3000909,4.32413871 9.84940909,5.40327892 C9.39872727,6.48241914 8.49390909,7.35282817 7.13504545,8.01446065 L7.13504545,12.268629 C7.41363636,13.0702475 6.71268182,13.4710114 5.03213636,13.4710114 C3.90495455,13.4710114 2.34213636,12.6394445 1.971,11.8886475 C1.8495,11.6428892 2.02963636,11.4922852 2.51131818,11.4367445 L2.51131818,8.01446065 C1.51363636,7.22840624 0.941045455,6.3579972 0.7935,5.40327892 C0.749181818,5.11640968 0.0791818182,5.29832344 0.0791818182,3.98971505 C0.0791818182,2.68110667 0.9435,3.03381699 0.9435,2.62679118 C0.9435,0.159588602 3.91213636,-0.247482581 9.84940909,1.40566839 Z" id="path-73"></path>
        <path d="M17.93,9.53701849 C17.0632727,10.0246781 15.6704091,8.8687157 14.3865,8.83413892 C12.3276364,8.77877978 10.8690909,9.78794968 9.88113636,9.93501441 C8.27709091,10.173694 8.15704545,9.25010387 7.60395455,9.93501441 C6.95427273,10.739537 6.45063636,12.2766153 4.37413636,11.2967585 C0.529863636,9.48283914 -0.724318182,4.5568286 0.555590909,2.72289828 C1.83545455,0.888967957 2.86936364,2.72289828 4.37413636,2.72289828 C5.87886364,2.72289828 6.31004545,0.366867742 7.75054545,0.366867742 C9.19104545,0.366867742 10.2726364,1.64852258 11.8406364,1.64852258 C13.4086364,1.64852258 18.0488636,1.14602495 19.0017727,3.45849419 C19.9547273,5.77100882 20.1865909,8.26725226 17.93,9.53701849 Z" id="path-75"></path>
        <path d="M1.40490909,4.83185462 C0.685136364,4.83185462 0.101681818,3.85081806 0.101681818,2.64063097 C0.101681818,1.43044387 0.685136364,0.449407312 1.40490909,0.449407312 C2.12463636,0.449407312 2.70809091,1.43044387 2.70809091,2.64063097 C2.70809091,3.85081806 2.12463636,4.83185462 1.40490909,4.83185462 Z" id="path-77"></path>
        <path d="M0.8005,0.250568172 C1.866,-0.339551183 2.6915,0.3798 2.6915,2.77839355 C2.6915,5.17694172 1.4605,5.17694172 0.8005,5.17694172 C0.140454545,5.17694172 -0.265045455,0.840732903 0.8005,0.250568172 Z" id="path-79"></path>
        <path d="M31.1662727,38.6824258 L29.0541364,42.9259761 C28.1605,44.7213819 25.9780909,45.4537108 24.1795455,44.5616118 C23.4693182,44.2093553 22.8939545,43.6349361 22.5410909,42.9259761 L20.4289545,38.6824258 L19.6247727,38.6824258 C8.92454545,38.6824258 0.250272727,30.0230312 0.250272727,19.3412129 C0.250272727,8.65934925 8.92454545,0 19.6247727,0 L58.6285455,0 C69.3287727,0 78.0030455,8.65934925 78.0030455,19.3412129 C78.0030455,30.0230312 69.3287727,38.6824258 58.6285455,38.6824258 L31.1662727,38.6824258 Z" id="path-81"></path>
        <path d="M17.1042727,24.0665239 L16.1862727,26.0395327 C15.7632727,26.9486931 14.6820909,27.3433766 13.7713636,26.9211043 C13.382,26.7405518 13.0691818,26.4282718 12.8883182,26.0395327 L11.9701818,24.066297 C5.39413636,24.0229626 0.0765909091,18.6878843 0.0765909091,12.1129428 C0.0765909091,5.51113849 5.43763636,0.159316344 12.0508182,0.159316344 L32.5967727,0.159316344 C39.2099545,0.159316344 44.571,5.51113849 44.571,12.1129428 C44.571,18.7147471 39.2099545,24.0665239 32.5967727,24.0665239 L17.1042727,24.0665239 Z" id="path-83"></path>
        <path d="M0.853181818,0.0724206452 L21.9762273,0.0724206452 C22.2245909,0.0724206452 22.4259545,0.273392473 22.4259545,0.521328817 C22.4259545,0.769265161 22.2245909,0.970282366 21.9762273,0.970282366 L0.853181818,0.970282366 C0.604818182,0.970282366 0.403454545,0.769265161 0.403454545,0.521328817 C0.403454545,0.273392473 0.604818182,0.0724206452 0.853181818,0.0724206452 Z" id="path-85"></path>
        <path d="M22.7265455,28.6131428 L21.2752727,31.5172288 C20.6028636,32.8627282 18.9651364,33.4093316 17.6173182,32.7380794 C17.0878182,32.474352 16.6585455,32.0458632 16.3943636,31.5172288 L14.9430909,28.6131428 L14.2335,28.6131428 C6.43745455,28.6131428 0.117454545,22.3040613 0.117454545,14.521383 C0.117454545,6.73870473 6.43745455,0.429623226 14.2335,0.429623226 L43.0800909,0.429623226 C50.8761364,0.429623226 57.1961364,6.73870473 57.1961364,14.521383 C57.1961364,22.3040613 50.8761364,28.6131428 43.0800909,28.6131428 L22.7265455,28.6131428 Z" id="path-87"></path>
        <path d="M1.19068182,0.357202581 L44.3353636,0.357202581 C44.9563182,0.357202581 45.4596364,0.859700215 45.4596364,1.47954108 C45.4596364,2.09942731 44.9563182,2.60187957 44.3353636,2.60187957 L1.19068182,2.60187957 C0.569727273,2.60187957 0.0664090909,2.09942731 0.0664090909,1.47954108 C0.0664090909,0.859700215 0.569727273,0.357202581 1.19068182,0.357202581 Z" id="path-89"></path>
        <path d="M0.853181818,0.0241402151 L12.9874545,0.0241402151 C13.2358182,0.0241402151 13.4371818,0.225112043 13.4371818,0.473093763 C13.4371818,0.721030108 13.2358182,0.922001935 12.9874545,0.922001935 L0.853181818,0.922001935 C0.604818182,0.922001935 0.403454545,0.721030108 0.403454545,0.473093763 C0.403454545,0.225112043 0.604818182,0.0241402151 0.853181818,0.0241402151 Z" id="path-91"></path>
        <path d="M0.674545455,0.357202581 L35.7299091,0.357202581 C36.1025,0.357202581 36.4045,0.658728387 36.4045,1.0306329 C36.4045,1.40253742 36.1025,1.70401785 35.7299091,1.70401785 L0.674545455,1.70401785 C0.302,1.70401785 0,1.40253742 0,1.0306329 C0,0.658728387 0.302,0.357202581 0.674545455,0.357202581 Z" id="path-93"></path>
        <path d="M1.19068182,0.270306882 L39.841,0.270306882 C40.4619091,0.270306882 40.9652727,0.772804516 40.9652727,1.39264538 C40.9652727,2.01253161 40.4619091,2.51502925 39.841,2.51502925 L1.19068182,2.51502925 C0.569727273,2.51502925 0.0664090909,2.01253161 0.0664090909,1.39264538 C0.0664090909,0.772804516 0.569727273,0.270306882 1.19068182,0.270306882 Z" id="path-95"></path>
        <path d="M0.674545455,0.294447097 L32.1344091,0.294447097 C32.5069545,0.294447097 32.809,0.595972903 32.809,0.967877419 C32.809,1.33978194 32.5069545,1.64126237 32.1344091,1.64126237 L0.674545455,1.64126237 C0.302,1.64126237 0,1.33978194 0,0.967877419 C0,0.595972903 0.302,0.294447097 0.674545455,0.294447097 Z" id="path-97"></path>
        <path d="M1.19068182,0.183456559 L23.2117727,0.183456559 C23.8326818,0.183456559 24.3360455,0.685908817 24.3360455,1.30579505 C24.3360455,1.92563591 23.8326818,2.42813355 23.2117727,2.42813355 L1.19068182,2.42813355 C0.569727273,2.42813355 0.0664090909,1.92563591 0.0664090909,1.30579505 C0.0664090909,0.685908817 0.569727273,0.183456559 1.19068182,0.183456559 Z" id="path-99"></path>
        <path d="M0.674545455,0.236546882 L18.6512727,0.236546882 C19.0238182,0.236546882 19.3258636,0.538027312 19.3258636,0.909931828 C19.3258636,1.28183634 19.0238182,1.58336215 18.6512727,1.58336215 L0.674545455,1.58336215 C0.302,1.58336215 0,1.28183634 0,0.909931828 C0,0.538027312 0.302,0.236546882 0.674545455,0.236546882 Z" id="path-101"></path>
        <path d="M0.617181818,0.340549462 C0.936318182,0.149152043 1.3505,0.25220172 1.54227273,0.570834409 L5.01695455,6.34370366 C5.20872727,6.66233634 5.10545455,7.07576022 4.78631818,7.26720301 C4.46713636,7.45864581 4.05295455,7.35555075 3.86122727,7.03696344 L0.386545455,1.26404882 C0.194772727,0.945461505 0.298045455,0.531992258 0.617181818,0.340549462 Z" id="path-103"></path>
    </defs>
    <g id="聊天" stroke="none" stroke-width="1" fill="none" fill-rule="evenodd">
        <g id="群消息-copy" transform="translate(-490.000000, -75.000000)">
            <g id="分组-2" transform="translate(490.000000, 75.000000)">
                <g id="分组" transform="translate(0.000000, 80.316129)">
                    <mask id="mask-2" fill="white">
                        <use xlink:href="#path-1"></use>
                    </mask>
                    <g id="Clip-77"></g>
                    <polygon id="Fill-76" fill="#E4F5FE" mask="url(#mask-2)" points="-2.27272727 -2.22539204 202.272727 -2.22539204 202.272727 132.952688 -2.27272727 132.952688"></polygon>
                </g>
                <g id="分组" transform="translate(81.818182, 60.804301)">
                    <mask id="mask-4" fill="white">
                        <use xlink:href="#path-3"></use>
                    </mask>
                    <g id="Clip-79"></g>
                    <polygon id="Fill-78" fill="#56A3CE" mask="url(#mask-4)" points="-1.84372727 -2.01779527 16.6343182 -2.01779527 16.6343182 18.2326234 -1.84372727 18.2326234"></polygon>
                </g>
                <g id="分组" transform="translate(157.727273, 166.077419)">
                    <mask id="mask-6" fill="white">
                        <use xlink:href="#path-5"></use>
                    </mask>
                    <g id="Clip-81"></g>
                    <polygon id="Fill-80" fill="#C9D5EF" mask="url(#mask-6)" points="-2.24718182 -2.2398671 16.2308636 -2.2398671 16.2308636 18.0105516 -2.24718182 18.0105516"></polygon>
                </g>
                <g id="分组" transform="translate(163.181818, 49.913978)">
                    <mask id="mask-8" fill="white">
                        <use xlink:href="#path-7"></use>
                    </mask>
                    <g id="Clip-83"></g>
                    <polygon id="Fill-82" fill="#C9D5EF" mask="url(#mask-8)" points="-1.85904545 -1.90194946 17.0684545 -1.90194946 17.0684545 18.3484692 -1.85904545 18.3484692"></polygon>
                </g>
                <g id="分组" transform="translate(12.727273, 163.354839)">
                    <mask id="mask-10" fill="white">
                        <use xlink:href="#path-9"></use>
                    </mask>
                    <g id="Clip-85"></g>
                    <polygon id="Fill-84" fill="#FBCD85" mask="url(#mask-10)" points="-1.96627273 -2.21087161 16.9611818 -2.21087161 16.9611818 18.0395017 -1.96627273 18.0395017"></polygon>
                </g>
                <g id="分组" transform="translate(154.545455, 110.264516)">
                    <mask id="mask-12" fill="white">
                        <use xlink:href="#path-11"></use>
                    </mask>
                    <g id="Clip-87"></g>
                    <polygon id="Fill-86" fill="#FAC064" mask="url(#mask-12)" points="-2.21145455 -2.09502581 18.5137727 -2.09502581 18.5137727 15.9106705 -2.21145455 15.9106705"></polygon>
                </g>
                <g id="分组" transform="translate(85.454545, 63.526882)">
                    <path d="M73.1971364,55.4412229 L74.9948891,51.8497333" id="Stroke-88" stroke="#FFD28A"></path>
                    <path d="M0.425618636,3.30849044 L5.29453182,0.27817151" id="Stroke-90" stroke="#84C3FD"></path>
                    <path d="M2.67280045,4.65530571 L7.54171364,1.62498678" id="Stroke-92" stroke="#84C3FD"></path>
                    <path d="M2.69152727,8.30292215 L5.725235,6.50717724" id="Stroke-94" stroke="#84C3FD"></path>
                    <path d="M74.9949091,57.2369463 L76.7926618,53.6454568" id="Stroke-96" stroke="#FFD28A"></path>
                </g>
                <g id="分组" transform="translate(109.545455, 145.658065)">
                    <mask id="mask-14" fill="white">
                        <use xlink:href="#path-13"></use>
                    </mask>
                    <g id="Clip-99"></g>
                    <polygon id="Fill-98" fill="#D9ECF5" mask="url(#mask-14)" points="-2.15527273 -2.02260516 46.8845909 -2.02260516 46.8845909 23.1660757 -2.15527273 23.1660757"></polygon>
                </g>
                <g id="分组" transform="translate(28.181818, 137.944086)">
                    <mask id="mask-16" fill="white">
                        <use xlink:href="#path-15"></use>
                    </mask>
                    <g id="Clip-101"></g>
                    <polygon id="Fill-100" fill="#D9ECF5" mask="url(#mask-16)" points="6.79113636 -11.781877 42.9690455 4.29786581 30.3283636 32.6404748 -5.84954545 16.5607774"></polygon>
                </g>
                <g id="分组" transform="translate(51.363636, 178.782796)">
                    <mask id="mask-18" fill="white">
                        <use xlink:href="#path-17"></use>
                    </mask>
                    <g id="Clip-103"></g>
                    <polygon id="Fill-102" fill="#D9ECF5" mask="url(#mask-18)" points="-1.95095455 -1.92608968 69.1113182 -1.92608968 69.1113182 20.569006 -1.95095455 20.569006"></polygon>
                </g>
                <path d="M162.696649,121.471575 L163.146087,120.314905" id="Stroke-104" stroke="#FFD28A"></path>
                <g id="分组" transform="translate(49.545455, 141.574194)">
                    <mask id="mask-20" fill="white">
                        <use xlink:href="#path-19"></use>
                    </mask>
                    <g id="Clip-107"></g>
                    <polygon id="Fill-106" fill="#57798D" mask="url(#mask-20)" points="-2.14204545 -2.20293075 12.6494091 -2.20293075 12.6494091 15.1286546 -2.14204545 15.1286546"></polygon>
                </g>
                <g id="分组" transform="translate(30.454545, 142.935484)">
                    <mask id="mask-22" fill="white">
                        <use xlink:href="#path-21"></use>
                    </mask>
                    <g id="Clip-109"></g>
                    <polygon id="Fill-108" fill="#57798D" mask="url(#mask-22)" points="-2.26240909 -1.9649772 15.4107273 -1.9649772 15.4107273 11.5284501 -2.26240909 11.5284501"></polygon>
                </g>
                <g id="分组" transform="translate(17.727273, 68.972043)">
                    <mask id="mask-24" fill="white">
                        <use xlink:href="#path-23"></use>
                    </mask>
                    <g id="Clip-111"></g>
                    <polygon id="Fill-110" fill="#D5A59D" mask="url(#mask-24)" points="-2.02245455 -2.20651548 15.6506818 -2.20651548 15.6506818 14.805212 -2.02245455 14.805212"></polygon>
                </g>
                <g id="分组" transform="translate(29.090909, 93.929032)">
                    <mask id="mask-26" fill="white">
                        <use xlink:href="#path-25"></use>
                    </mask>
                    <g id="Clip-113"></g>
                    <polygon id="Fill-112" fill="#91D7FD" mask="url(#mask-26)" points="-1.85931818 -1.89541527 31.1828636 -1.89541527 31.1828636 52.8584948 -1.85931818 52.8584948"></polygon>
                </g>
                <g id="分组" transform="translate(20.909091, 75.324731)">
                    <mask id="mask-28" fill="white">
                        <use xlink:href="#path-27"></use>
                    </mask>
                    <g id="Clip-115"></g>
                    <polygon id="Fill-114" fill="#F0E0CB" mask="url(#mask-28)" points="-2.00240909 -2.16222817 19.513 -2.16222817 19.513 23.4854344 -2.00240909 23.4854344"></polygon>
                </g>
                <g id="分组" transform="translate(30.909091, 68.972043)">
                    <mask id="mask-30" fill="white">
                        <use xlink:href="#path-29"></use>
                    </mask>
                    <g id="Clip-117"></g>
                    <polygon id="Fill-116" fill="#56A3CE" mask="url(#mask-30)" points="-2.07659091 -2.20651548 38.3299091 -2.20651548 38.3299091 38.1541998 -2.07659091 38.1541998"></polygon>
                </g>
                <g id="分组" transform="translate(37.727273, 55.812903)">
                    <mask id="mask-32" fill="white">
                        <use xlink:href="#path-31"></use>
                    </mask>
                    <g id="Clip-119"></g>
                    <polygon id="Fill-118" fill="#F0E0CB" mask="url(#mask-32)" points="-1.85063636 -2.16118452 17.4234545 -2.16118452 17.4234545 18.6887465 -1.85063636 18.6887465"></polygon>
                </g>
                <g id="分组" transform="translate(52.272727, 85.307527)">
                    <mask id="mask-34" fill="white">
                        <use xlink:href="#path-33"></use>
                    </mask>
                    <g id="Clip-121"></g>
                    <polygon id="Fill-120" fill="#F0E0CB" mask="url(#mask-34)" points="-1.98763636 -1.90984495 16.3259091 -1.90984495 16.3259091 22.4584316 -1.98763636 22.4584316"></polygon>
                </g>
                <g id="分组" transform="translate(37.727273, 53.997849)">
                    <mask id="mask-36" fill="white">
                        <use xlink:href="#path-35"></use>
                    </mask>
                    <g id="Clip-123"></g>
                    <polygon id="Fill-122" fill="#474A5B" mask="url(#mask-36)" points="-1.85063636 -1.94537462 14.8619545 -1.94537462 14.8619545 13.1472512 -1.85063636 13.1472512"></polygon>
                </g>
                <g id="分组" transform="translate(95.454545, 165.169892)">
                    <mask id="mask-38" fill="white">
                        <use xlink:href="#path-37"></use>
                    </mask>
                    <g id="Clip-125"></g>
                    <polygon id="Fill-124" fill="#F0E0CB" mask="url(#mask-38)" points="-2.09422727 -2.1750243 22.9122273 -2.1750243 22.9122273 26.3009004 -2.09422727 26.3009004"></polygon>
                </g>
                <g id="分组" transform="translate(81.363636, 99.374194)">
                    <mask id="mask-40" fill="white">
                        <use xlink:href="#path-39"></use>
                    </mask>
                    <g id="Clip-127"></g>
                    <polygon id="Fill-126" fill="#F0E0CB" mask="url(#mask-40)" points="-2.17231818 -2.12982946 16.5421364 -2.12982946 16.5421364 21.23926 -2.17231818 21.23926"></polygon>
                </g>
                <g id="分组" transform="translate(82.727273, 105.726882)">
                    <mask id="mask-42" fill="white">
                        <use xlink:href="#path-41"></use>
                    </mask>
                    <g id="Clip-129"></g>
                    <polygon id="Fill-128" fill="#474A5B" mask="url(#mask-42)" points="-2.15509091 -2.09897355 21.8922727 -2.09897355 21.8922727 25.4194196 -2.15509091 25.4194196"></polygon>
                </g>
                <g id="分组" transform="translate(70.454545, 116.617204)">
                    <mask id="mask-44" fill="white">
                        <use xlink:href="#path-43"></use>
                    </mask>
                    <g id="Clip-131"></g>
                    <polygon id="Fill-130" fill="#91D7FD" mask="url(#mask-44)" points="-2.03109091 -2.13727118 40.5590455 -2.13727118 40.5590455 54.1070703 -2.03109091 54.1070703"></polygon>
                </g>
                <g id="分组" transform="translate(59.545455, 109.356989)">
                    <mask id="mask-46" fill="white">
                        <use xlink:href="#path-45"></use>
                    </mask>
                    <g id="Clip-133"></g>
                    <polygon id="Fill-132" fill="#F0E0CB" mask="url(#mask-46)" points="-1.99195455 -1.89895462 30.048 -1.89895462 30.048 24.3427297 -1.99195455 24.3427297"></polygon>
                </g>
                <g id="分组" transform="translate(85.454545, 96.197849)">
                    <mask id="mask-48" fill="white">
                        <use xlink:href="#path-47"></use>
                    </mask>
                    <g id="Clip-135"></g>
                    <polygon id="Fill-134" fill="#61C7FF" mask="url(#mask-48)" points="-2.00504545 -2.14525742 13.0906364 -2.14525742 13.0906364 9.73345269 -2.00504545 9.73345269"></polygon>
                </g>
                <g id="分组" transform="translate(76.363636, 94.382796)">
                    <mask id="mask-50" fill="white">
                        <use xlink:href="#path-49"></use>
                    </mask>
                    <g id="Clip-137"></g>
                    <polygon id="Fill-136" fill="#61C7FF" mask="url(#mask-50)" points="-1.86581818 -1.92608968 26.6573636 -1.92608968 26.6573636 16.9745189 -1.86581818 16.9745189"></polygon>
                </g>
                <g id="分组" transform="translate(60.000000, 166.531183)">
                    <mask id="mask-52" fill="white">
                        <use xlink:href="#path-51"></use>
                    </mask>
                    <g id="Clip-139"></g>
                    <polygon id="Fill-138" fill="#F0E0CB" mask="url(#mask-52)" points="-2.12677273 -1.9404286 22.2402727 -1.9404286 22.2402727 25.8971417 -2.12677273 25.8971417"></polygon>
                </g>
                <g id="分组" transform="translate(56.363636, 184.227957)">
                    <mask id="mask-54" fill="white">
                        <use xlink:href="#path-53"></use>
                    </mask>
                    <g id="Clip-141"></g>
                    <polygon id="Fill-140" fill="#61C7FF" mask="url(#mask-54)" points="-2.00713636 -2.08245656 14.3673182 -2.08245656 14.3673182 8.51954473 -2.00713636 8.51954473"></polygon>
                </g>
                <g id="分组" transform="translate(107.727273, 183.774194)">
                    <mask id="mask-56" fill="white">
                        <use xlink:href="#path-55"></use>
                    </mask>
                    <g id="Clip-143"></g>
                    <polygon id="Fill-142" fill="#61C7FF" mask="url(#mask-56)" points="-2.21822727 -2.26704753 13.1971364 -2.26704753 13.1971364 9.29248538 -2.21822727 9.29248538"></polygon>
                </g>
                <polygon id="Fill-144" fill="#D8D8D8" points="131.816727 66.7105768 136.362182 66.7105768 136.362182 71.2482112 131.816727 71.2482112"></polygon>
                <g id="分组" transform="translate(143.181818, 68.972043)">
                    <mask id="mask-58" fill="white">
                        <use xlink:href="#path-57"></use>
                    </mask>
                    <g id="Clip-146"></g>
                    <polygon id="Fill-145" fill="#84D1FB" mask="url(#mask-58)" points="-2.09795455 -2.26146624 10.6345455 -2.26146624 10.6345455 15.2526228 -2.09795455 15.2526228"></polygon>
                </g>
                <g id="分组" transform="translate(117.272727, 150.649462)">
                    <mask id="mask-60" fill="white">
                        <use xlink:href="#path-59"></use>
                    </mask>
                    <g id="Clip-148"></g>
                    <polygon id="Fill-147" fill="#474A5B" mask="url(#mask-60)" points="-1.96304545 -2.13273355 10.5785 -2.13273355 10.5785 12.31818 -1.96304545 12.31818"></polygon>
                </g>
                <g id="分组" transform="translate(134.545455, 145.204301)">
                    <mask id="mask-62" fill="white">
                        <use xlink:href="#path-61"></use>
                    </mask>
                    <g id="Clip-150"></g>
                    <polygon id="Fill-149" fill="#474A5B" mask="url(#mask-62)" points="-1.85990909 -2.23868731 11.8094545 -2.23868731 11.8094545 10.4400531 -1.85990909 10.4400531"></polygon>
                </g>
                <g id="分组" transform="translate(119.545455, 98.466667)">
                    <mask id="mask-64" fill="white">
                        <use xlink:href="#path-63"></use>
                    </mask>
                    <g id="Clip-152"></g>
                    <polygon id="Fill-151" fill="#56A3CE" mask="url(#mask-64)" points="-2.20859091 -1.95526667 30.4221364 -1.95526667 30.4221364 55.4901413 -2.20859091 55.4901413"></polygon>
                </g>
                <g id="分组" transform="translate(126.818182, 67.610753)">
                    <mask id="mask-66" fill="white">
                        <use xlink:href="#path-65"></use>
                    </mask>
                    <g id="Clip-154"></g>
                    <polygon id="Fill-153" fill="#91D7FD" mask="url(#mask-66)" points="-2.24136364 -2.06884366 24.0491818 -2.06884366 24.0491818 36.445009 -2.24136364 36.445009"></polygon>
                </g>
                <g id="分组" transform="translate(145.000000, 75.778495)">
                    <mask id="mask-68" fill="white">
                        <use xlink:href="#path-67"></use>
                    </mask>
                    <g id="Clip-156"></g>
                    <polygon id="Fill-155" fill="#E1E8F8" mask="url(#mask-68)" points="-2.17854545 -2.05595677 19.2025 -2.05595677 19.2025 19.1675123 -2.17854545 19.1675123"></polygon>
                </g>
                <g id="分组" transform="translate(121.818182, 83.492473)">
                    <mask id="mask-70" fill="white">
                        <use xlink:href="#path-69"></use>
                    </mask>
                    <g id="Clip-158"></g>
                    <polygon id="Fill-157" fill="#F0E0CB" mask="url(#mask-70)" points="-1.87495455 -1.88148473 30.8709091 -1.88148473 30.8709091 13.9358013 -1.87495455 13.9358013"></polygon>
                </g>
                <g id="分组" transform="translate(120.454545, 70.333333)">
                    <mask id="mask-72" fill="white">
                        <use xlink:href="#path-71"></use>
                    </mask>
                    <g id="Clip-160"></g>
                    <polygon id="Fill-159" fill="#84D1FB" mask="url(#mask-72)" points="-2.24890909 -2.16191054 14.0369545 -2.16191054 14.0369545 19.7940688 -2.24890909 19.7940688"></polygon>
                </g>
                <g id="分组" transform="translate(132.272727, 57.174194)">
                    <mask id="mask-74" fill="white">
                        <use xlink:href="#path-73"></use>
                    </mask>
                    <g id="Clip-162"></g>
                    <polygon id="Fill-161" fill="#F0E0CB" mask="url(#mask-74)" points="-2.19354545 -1.85802516 12.4601364 -1.85802516 12.4601364 15.7398286 -2.19354545 15.7398286"></polygon>
                </g>
                <g id="分组" transform="translate(125.909091, 49.913978)">
                    <mask id="mask-76" fill="white">
                        <use xlink:href="#path-75"></use>
                    </mask>
                    <g id="Clip-164"></g>
                    <polygon id="Fill-163" fill="#474A5B" mask="url(#mask-76)" points="-2.20109091 -1.90194946 21.9633182 -1.90194946 21.9633182 13.8818034 -2.20109091 13.8818034"></polygon>
                </g>
                <path d="M146.831773,90.7061702 L152.747841,88.7005455" id="Stroke-165" stroke="#E6D0C8"></path>
                <g id="分组" transform="translate(151.363636, 81.677419)">
                    <mask id="mask-78" fill="white">
                        <use xlink:href="#path-77"></use>
                    </mask>
                    <g id="Clip-168"></g>
                    <polygon id="Fill-167" fill="#D88763" mask="url(#mask-78)" points="-2.17104545 -1.81940989 4.98081818 -1.81940989 4.98081818 7.10067183 -2.17104545 7.10067183"></polygon>
                </g>
                <g id="分组" transform="translate(160.454545, 80.316129)">
                    <mask id="mask-80" fill="white">
                        <use xlink:href="#path-79"></use>
                    </mask>
                    <g id="Clip-170"></g>
                    <polygon id="Fill-169" fill="#F0E0CB" mask="url(#mask-80)" points="-2.128 -2.21363957 4.96422727 -2.21363957 4.96422727 7.44575892 -2.128 7.44575892"></polygon>
                </g>
                <g id="分组" transform="translate(155.454545, 79.408602)" stroke="#C8D1E6">
                    <path d="M0.369409091,1.43344325 L3.71210591,0.402498336" id="Stroke-171"></path>
                    <path d="M0.369409091,3.9943026 L3.71210591,2.96335769" id="Stroke-173"></path>
                </g>
                <g id="分组" transform="translate(17.727273, 0.000000)">
                    <mask id="mask-82" fill="white">
                        <use xlink:href="#path-81"></use>
                    </mask>
                    <g id="Clip-176"></g>
                    <polygon id="Fill-175" fill="#E4F5FE" mask="url(#mask-82)" points="-2.02245455 -2.2688172 80.2757727 -2.2688172 80.2757727 47.2104105 -2.02245455 47.2104105"></polygon>
                </g>
                <g id="分组" transform="translate(73.181818, 27.225806)">
                    <mask id="mask-84" fill="white">
                        <use xlink:href="#path-83"></use>
                    </mask>
                    <g id="Clip-178"></g>
                    <polygon id="Fill-177" fill="#E4F5FE" mask="url(#mask-84)" points="-2.19613636 -2.10950086 46.8437273 -2.10950086 46.8437273 29.359266 -2.19613636 29.359266"></polygon>
                </g>
                <g id="分组" transform="translate(84.090909, 35.393548)">
                    <mask id="mask-86" fill="white">
                        <use xlink:href="#path-85"></use>
                    </mask>
                    <g id="Clip-180"></g>
                    <polygon id="Fill-179" fill="#D9ECF5" mask="url(#mask-86)" points="-1.86927273 -2.19639656 24.6986818 -2.19639656 24.6986818 3.23909957 -1.86927273 3.23909957"></polygon>
                </g>
                <g id="分组" transform="translate(109.545455, 1.815054)">
                    <mask id="mask-88" fill="white">
                        <use xlink:href="#path-87"></use>
                    </mask>
                    <g id="Clip-182"></g>
                    <polygon id="Fill-181" fill="#E4F5FE" mask="url(#mask-88)" points="-2.15527273 -1.83919398 59.4688636 -1.83919398 59.4688636 35.2938566 -2.15527273 35.2938566"></polygon>
                </g>
                <g id="分组" transform="translate(34.090909, 8.621505)">
                    <mask id="mask-90" fill="white">
                        <use xlink:href="#path-89"></use>
                    </mask>
                    <g id="Clip-184"></g>
                    <polygon id="Fill-183" fill="#D9ECF5" mask="url(#mask-90)" points="-2.20631818 -1.91161462 47.7323636 -1.91161462 47.7323636 4.87069677 -2.20631818 4.87069677"></polygon>
                </g>
                <g id="分组" transform="translate(84.090909, 39.931183)">
                    <mask id="mask-92" fill="white">
                        <use xlink:href="#path-91"></use>
                    </mask>
                    <g id="Clip-186"></g>
                    <polygon id="Fill-185" fill="#D9ECF5" mask="url(#mask-92)" points="-1.86927273 -2.24467699 15.7099091 -2.24467699 15.7099091 3.19081914 -1.86927273 3.19081914"></polygon>
                </g>
                <g id="分组" transform="translate(120.000000, 8.621505)">
                    <mask id="mask-94" fill="white">
                        <use xlink:href="#path-93"></use>
                    </mask>
                    <g id="Clip-188"></g>
                    <polygon id="Fill-187" fill="#D9ECF5" mask="url(#mask-94)" points="-2.27272727 -1.91161462 38.6772273 -1.91161462 38.6772273 3.97283505 -2.27272727 3.97283505"></polygon>
                </g>
                <g id="分组" transform="translate(34.090909, 16.789247)">
                    <mask id="mask-96" fill="white">
                        <use xlink:href="#path-95"></use>
                    </mask>
                    <g id="Clip-190"></g>
                    <polygon id="Fill-189" fill="#D9ECF5" mask="url(#mask-96)" points="-2.20631818 -1.99851032 43.238 -1.99851032 43.238 4.78384645 -2.20631818 4.78384645"></polygon>
                </g>
                <g id="分组" transform="translate(120.000000, 14.520430)">
                    <mask id="mask-98" fill="white">
                        <use xlink:href="#path-97"></use>
                    </mask>
                    <g id="Clip-192"></g>
                    <polygon id="Fill-191" fill="#D9ECF5" mask="url(#mask-98)" points="-2.27272727 -1.97437011 35.0817273 -1.97437011 35.0817273 3.91007957 -2.27272727 3.91007957"></polygon>
                </g>
                <g id="分组" transform="translate(34.090909, 24.956989)">
                    <mask id="mask-100" fill="white">
                        <use xlink:href="#path-99"></use>
                    </mask>
                    <g id="Clip-194"></g>
                    <polygon id="Fill-193" fill="#D9ECF5" mask="url(#mask-100)" points="-2.20631818 -2.08536065 26.6087727 -2.08536065 26.6087727 4.69695075 -2.20631818 4.69695075"></polygon>
                </g>
                <g id="分组" transform="translate(120.000000, 19.965591)">
                    <mask id="mask-102" fill="white">
                        <use xlink:href="#path-101"></use>
                    </mask>
                    <g id="Clip-196"></g>
                    <polygon id="Fill-195" fill="#D9ECF5" mask="url(#mask-102)" points="-2.27272727 -2.03227032 21.5985909 -2.03227032 21.5985909 3.85217935 -2.27272727 3.85217935"></polygon>
                </g>
                <g id="分组" transform="translate(59.545455, 106.634409)">
                    <mask id="mask-104" fill="white">
                        <use xlink:href="#path-103"></use>
                    </mask>
                    <g id="Clip-198"></g>
                    <polygon id="Fill-197" fill="#474A5B" mask="url(#mask-104)" points="-3.07931818 -0.0890283871 1.97259091 -3.1193514 8.48281818 7.69682624 3.43086364 10.7271039"></polygon>
                </g>
            </g>
        </g>
    </g>
</svg>