<?xml version="1.0" encoding="UTF-8"?>
<svg width="200px" height="150px" viewBox="0 0 200 150" version="1.1" xmlns="http://www.w3.org/2000/svg" xmlns:xlink="http://www.w3.org/1999/xlink">
    <!-- Generator: Sketch 52.4 (67378) - http://www.bohemiancoding.com/sketch -->
    <title>分组 6</title>
    <desc>Created with Sketch.</desc>
    <defs>
        <path d="M95.8588785,0.0778504673 C121.880841,2.32873832 140.851869,24.1722897 162.149065,31.493785 C183.446729,38.8152804 184.916822,28.3319626 194.563084,44.9385514 C204.208879,61.5451869 202.409813,111.041869 171.007009,136.083131 C139.604206,161.124393 121.196729,144.381682 89.9775701,141.820888 C58.7579439,139.260047 72.8719626,152.547991 43.7957944,147.184439 C14.7191589,141.820888 19.0813084,125.82472 14.7191589,106.120514 C10.3574766,86.4163551 0.278504673,94.7602804 0.278504673,69.8494393 C0.278504673,44.9385514 69.8364486,-2.17303738 95.8588785,0.0778504673 Z" id="path-1"></path>
        <path d="M7.47663551,0 L58.2752336,0 C62.4046729,0 65.7518692,3.34738318 65.7518692,7.47663551 L65.7518692,111.259813 C65.7518692,115.389065 62.4046729,118.736449 58.2752336,118.736449 L7.47663551,118.736449 C3.34719626,118.736449 0,115.389065 0,111.259813 L0,7.47663551 C0,3.34738318 3.34719626,0 7.47663551,0 Z" id="path-3"></path>
        <path d="M2.26168224,0.340560748 L54.6196262,0.340560748 C55.6518692,0.340560748 56.488785,1.17742991 56.488785,2.20971963 L56.488785,91.3353271 C56.488785,92.3676636 55.6518692,93.204486 54.6196262,93.204486 L2.26168224,93.204486 C1.22943925,93.204486 0.392523364,92.3676636 0.392523364,91.3353271 L0.392523364,2.20971963 C0.392523364,1.17742991 1.22943925,0.340560748 2.26168224,0.340560748 Z" id="path-5"></path>
        <path d="M4.83878505,9.88434579 C2.17242991,9.88434579 0.0107476636,7.71247664 0.0107476636,5.03327103 C0.0107476636,2.35406542 2.17242991,0.182149533 4.83878505,0.182149533 C7.50514019,0.182149533 9.66635514,2.35406542 9.66635514,5.03327103 C9.66635514,7.71247664 7.50514019,9.88434579 4.83878505,9.88434579 Z" id="path-7"></path>
        <path d="M0.986915888,0.414485981 L16.1518692,0.414485981 C16.6621495,0.414485981 17.0757009,0.82817757 17.0757009,1.33850467 C17.0757009,1.84883178 16.6621495,2.26252336 16.1518692,2.26252336 L0.986915888,2.26252336 C0.476635514,2.26252336 0.0630841121,1.84883178 0.0630841121,1.33850467 C0.0630841121,0.82817757 0.476635514,0.414485981 0.986915888,0.414485981 Z" id="path-9"></path>
        <path d="M0,0 L62.3149533,0 C69.6070093,0 75.5182243,5.91121495 75.5182243,13.2030841 C75.5182243,20.4949533 69.6070093,26.406215 62.3149533,26.406215 L16.3551402,26.406215 C7.32242991,26.406215 0,19.0837383 0,10.0510748 L0,0 Z" id="path-11"></path>
        <path d="M0,0 L39.9084112,0 C44.9658879,0 49.0654206,4.09971963 49.0654206,9.15700935 C49.0654206,14.2142523 44.9658879,18.313972 39.9084112,18.313972 L16.3551402,18.313972 C7.32242991,18.313972 0,10.9915421 0,1.95883178 L0,0 Z" id="path-13"></path>
        <path d="M13.203271,0 L61.8649533,0 L61.8649533,10.0510748 C61.8649533,19.0837383 54.5425234,26.406215 45.5098131,26.406215 L13.203271,26.406215 C5.91121495,26.406215 0,20.4949533 0,13.2030841 C0,5.91121495 5.91121495,0 13.203271,0 Z" id="path-15"></path>
        <path d="M1.27757009,0 L40.5345794,0 C41.2401869,0 41.8121495,0.572056075 41.8121495,1.27771028 C41.8121495,1.98336449 41.2401869,2.55542056 40.5345794,2.55542056 L1.27757009,2.55542056 C0.571962617,2.55542056 0,1.98336449 0,1.27771028 C0,0.572056075 0.571962617,0 1.27757009,0 Z" id="path-17"></path>
        <path d="M1.27757009,0 L32.4280374,0 C33.1336449,0 33.7056075,0.572056075 33.7056075,1.27771028 C33.7056075,1.98336449 33.1336449,2.55542056 32.4280374,2.55542056 L1.27757009,2.55542056 C0.571962617,2.55542056 0,1.98336449 0,1.27771028 C0,0.572056075 0.571962617,0 1.27757009,0 Z" id="path-19"></path>
        <path d="M1.27757009,0 L32.8546729,0 C33.5602804,0 34.132243,0.572056075 34.132243,1.27771028 C34.132243,1.98336449 33.5602804,2.55542056 32.8546729,2.55542056 L1.27757009,2.55542056 C0.571962617,2.55542056 0,1.98336449 0,1.27771028 C0,0.572056075 0.571962617,0 1.27757009,0 Z" id="path-21"></path>
        <path d="M1.27757009,0 L23.4682243,0 C24.1738318,0 24.7462617,0.572056075 24.7462617,1.27771028 C24.7462617,1.98336449 24.1738318,2.55542056 23.4682243,2.55542056 L1.27757009,2.55542056 C0.571962617,2.55542056 0,1.98336449 0,1.27771028 C0,0.572056075 0.571962617,0 1.27757009,0 Z" id="path-23"></path>
        <path d="M1.27757009,0 L26.4551402,0 C27.1607477,0 27.7327103,0.572056075 27.7327103,1.27771028 C27.7327103,1.98336449 27.1607477,2.55542056 26.4551402,2.55542056 L1.27757009,2.55542056 C0.571962617,2.55542056 0,1.98336449 0,1.27771028 C0,0.572056075 0.571962617,0 1.27757009,0 Z" id="path-25"></path>
        <path d="M7.80140187,13.4863084 C10.0009346,11.6869626 11.1004673,10.1798598 11.1004673,8.96504673 C11.1004673,7.14285047 11.4943925,4.9535514 13.6766355,3.93140187 C15.8588785,2.90925234 13.3182243,0 15.6607477,0 C18.0028037,0 18.1523364,3.28098131 17.228972,5.17135514 C16.3056075,7.0617757 13.6766355,7.37588785 13.6766355,8.96504673 C13.6766355,10.5542523 12.2308411,14.9493925 11.1004673,17.3074766 C9.97056075,19.6656075 6.71728972,24.2924299 4.00560748,19.9479439 C2.19813084,17.0516355 1.30981308,15.1519626 1.34065421,14.248972 L0.311214953,8.14780374 C3.00373832,8.4517757 4.86028037,8.96747664 5.88130841,9.69495327 C6.90186916,10.4223832 7.54205607,11.6861682 7.80140187,13.4863084 Z" id="path-27"></path>
        <path d="M26.214486,1.23584112 C30.8845794,2.56556075 33.6252336,3.18406542 35.1317757,5.74831776 C36.1364486,7.45780374 36.7308411,11.6928037 36.9158879,18.4533645 L31.5649533,18.4533645 C30.5046729,21.5471963 30.7700935,24.1626636 32.3607477,26.2997664 C34.746729,29.5054206 36.6775701,32.3353738 35.7121495,33.7511215 C34.746729,35.1668692 29.65,32.6036449 27.0971963,33.7511215 C24.5439252,34.8985981 20.7182243,37.7906542 16.7271028,36.6151869 C14.0663551,35.8315421 9.30233645,29.4696262 2.43457944,17.5293925 C1.94626168,19.1136449 1.30140187,19.9057477 0.5,19.9057477 C-0.701869159,19.9057477 0.588317757,5.43014019 3.3271028,2.19088785 C6.06588785,-1.04836449 21.5439252,-0.0938785047 26.214486,1.23584112 Z" id="path-29"></path>
        <path d="M14.6378505,2.15359813 C15.8317757,4.62514019 15.6598131,7.18285047 14.1224299,9.82663551 C12.5850467,12.4704673 10.6308411,12.8276168 8.26028037,10.8980841 L7.49953271,13.286729 L10.261215,14.3939252 C11.4911215,16.3042523 10.2542056,17.0763551 6.55093458,16.7102336 C2.84766355,16.3441121 0.757009346,15.3180841 0.278971963,13.6321495 C1.78598131,13.3889252 2.80420561,12.2500935 3.33411215,10.2157477 C4.12943925,7.16420561 3.37196262,4.8203271 5.61308411,1.50883178 C7.10747664,-0.698785047 10.1154206,-0.483878505 14.6378505,2.15359813 Z" id="path-31"></path>
        <path d="M0.331775701,2.63658879 C0.669158879,2.01813084 1.19719626,1.36509346 1.91635514,0.677476636 C2.63551402,-0.0100934579 4.2911215,-0.174299065 6.88317757,0.184906542 C7.27383178,2.12584112 7.46962617,3.79518692 7.46962617,5.19299065 C7.46962617,6.59079439 9.80841121,10.7707944 14.4859813,17.7328972 C14.4883178,18.4542056 14.2154206,19.0479907 13.6663551,19.5142523 C13.117757,19.9804673 12.3359813,20.2829907 11.321028,20.4217757 C6.18925234,14.3152804 3.17476636,10.4399065 2.27803738,8.79570093 C1.3817757,7.15149533 0.73271028,5.09845794 0.331775701,2.63658879 Z" id="path-33"></path>
        <path d="M12.478972,5.02 C11.8275701,5.76102804 10.2476636,3.68640187 7.74953271,3.68640187 C5.25093458,3.68640187 6.54579439,7.89378505 5.2911215,7.37093458 C4.0364486,6.84803738 5.22056075,5.22028037 3.48130841,5.94004673 C2.69158879,6.26686916 3.51261682,8.28252336 3.28738318,9.04813084 C2.89719626,10.3728505 1.71401869,10.8696729 1.0546729,10.8696729 C0.0144859813,10.8696729 -0.0364485981,9.7111215 0.278037383,5.56542056 C0.592990654,1.41971963 4.9271028,-0.845327103 8.18037383,0.29317757 C11.4336449,1.43172897 13.1303738,4.27897196 12.478972,5.02 Z" id="path-35"></path>
        <path d="M8.73037383,0.133504673 L3.79065421,13.4603271 C0.278037383,12.9734579 -0.572897196,10.5460748 1.23738318,6.17817757 C3.04719626,1.8103271 5.5453271,-0.204579439 8.73037383,0.133504673 Z" id="path-37"></path>
        <path d="M11.7453271,0.413364486 C15.0672897,0.823224299 18.7079439,1.81691589 20.2247664,2.87663551 C23.8509346,5.41004673 21.9107477,9.66443925 21.9107477,16.9207009 C21.9107477,27.2122897 23.6476636,33.2951402 20.6490654,33.9278037 C17.6509346,34.5604673 15.5971963,32.6222897 12.7009346,33.9278037 C9.80514019,35.2333178 3.46542056,35.8745794 1.35186916,34.5690654 C-0.761214953,33.2635514 0.384579439,23.6026168 0.384579439,16.9207009 C0.384579439,10.2388318 0.481775701,-0.976261682 11.7453271,0.413364486 Z" id="path-39"></path>
        <path d="M22.3453271,2.57850467 L22.8317757,0.0210747664 C26.9850467,1.31616822 29.0616822,2.00042056 29.0616822,2.07383178 C29.0616822,7.28009346 26.2303738,10.1903738 23.9864486,11.3171963 C20.5378505,13.048785 10.4196262,7.2346729 8.79252336,6.1314486 C7.16588785,5.02817757 5.3546729,5.58985981 4.24719626,5.58985981 C3.13925234,5.58985981 0.0705607477,5.58985981 0.0705607477,3.505 C0.0705607477,1.42014019 3.35747664,0.878598131 5.3546729,0.878598131 C7.35186916,0.878598131 8.46401869,3.17574766 9.96028037,4.04308411 C11.4560748,4.91042056 20.3845794,6.1314486 21.0518692,6.1314486 C21.4971963,6.1314486 21.9280374,4.9471028 22.3453271,2.57850467 Z" id="path-41"></path>
        <path d="M2.72102804,0.230093458 C6.92242991,-0.599906542 13.7327103,15.7598131 11.8275701,17.2642991 C9.92196262,18.7688318 9.34065421,16.3551402 6.67009346,16.3551402 C3.99953271,16.3551402 5.46869159,18.7314953 2.72102804,17.9958411 C-0.0271028037,17.2602336 -1.48084112,1.06009346 2.72102804,0.230093458 Z" id="path-43"></path>
        <path d="M0.653738318,1.06976636 C6.75747664,-0.632663551 9.80934579,-0.213457944 9.80934579,2.32728972 C9.80934579,2.7464486 10.6976636,2.38317757 10.6976636,3.73084112 C10.6976636,5.07845794 10.0088785,4.8911215 9.9635514,5.18654206 C9.81168224,6.16971963 9.2228972,7.06607477 8.19719626,7.87551402 L8.19719626,11.3998598 C8.69252336,11.4570561 8.87757009,11.6121495 8.75280374,11.8651869 C8.37149533,12.6384112 6.76495327,13.4947664 5.60607477,13.4947664 C3.87803738,13.4947664 3.15747664,13.0820093 3.44392523,12.2565421 L3.44392523,7.87551402 C2.04719626,7.19420561 1.11682243,6.29785047 0.653738318,5.18654206 C0.190186916,4.07523364 0.190186916,2.70294393 0.653738318,1.06976636 Z" id="path-45"></path>
        <path d="M2.15934579,9.44350467 C-0.160280374,8.13588785 0.0780373832,5.56523364 1.05747664,3.18378505 C2.03738318,0.802383178 6.80747664,1.31985981 8.41962617,1.31985981 C10.0317757,1.31985981 11.1434579,0 12.6242991,0 C14.1051402,0 14.5485981,2.42626168 16.0953271,2.42626168 C17.6425234,2.42626168 18.7051402,0.537663551 20.021028,2.42626168 C21.3369159,4.31485981 20.0476636,9.38771028 16.0953271,11.2557009 C13.9607477,12.2647664 13.4429907,10.6818224 12.7752336,9.85331776 C12.2065421,9.14803738 12.0831776,10.0991589 10.4341121,9.85331776 C9.4182243,9.70191589 7.91915888,8.66266355 5.80233645,8.7196729 C4.48271028,8.75523364 3.05046729,9.94570093 2.15934579,9.44350467 Z" id="path-47"></path>
        <path d="M11.0864486,1.39084112 C14.3135514,5.32392523 15.6565421,11.9518224 13.8373832,13.2983645 C12.6242991,14.1960748 11.2957944,14.355 9.85140187,13.7751402 L9.85140187,19.6502804 L5.07523364,19.6502804 C0.0897196262,11.4213551 -1.15700935,6.91060748 1.33598131,6.11808411 C5.07523364,4.92925234 7.8588785,-2.54219626 11.0864486,1.39084112 Z" id="path-49"></path>
        <path d="M12.1140187,0.289252336 C11.4920561,4.79023364 11.4920561,7.59654206 12.1140187,8.70813084 C13.046729,10.375514 20.2453271,12.7571495 20.2453271,14.0251869 C20.2453271,14.8705607 17.003271,18.180514 10.5186916,23.9550467 C6.67803738,23.1479907 4.75747664,22.2599065 4.75747664,21.2908879 C4.75747664,19.8373832 6.72523364,21.7186449 6.72523364,19.8373832 C6.72523364,17.9560748 0.196728972,18.4135514 0.196728972,12.1221495 C0.196728972,5.83074766 6.72523364,10.3979907 6.72523364,5.60037383 C6.72523364,2.40200935 8.52149533,0.631635514 12.1140187,0.289252336 Z" id="path-51"></path>
        <path d="M8.31588785,1.3911215 C10.8481308,-0.760981308 12.3130841,0.476869159 15.4733645,2.25439252 C18.6331776,4.03186916 21.6028037,9.16813084 21.6028037,10.9145327 C21.6028037,12.6609346 19.1042056,16.4740654 19.1042056,19.6254206 C19.1042056,21.7263084 19.9369159,24.4218692 21.6028037,27.7121963 C7.28224299,27.7121963 0.122429907,27.7121963 0.122429907,27.7121963 C2.04158879,22.6781308 9.92429907,16.1565421 8.72616822,13.1402336 C7.52803738,10.1238785 5.78364486,3.5432243 8.31588785,1.3911215 Z" id="path-53"></path>
        <path d="M5.56401869,11.9976168 C8.26121495,14.6280841 10.0126168,15.9433178 10.817757,15.9433178 C12.0257009,15.9433178 20.6841121,6.27714953 21.6523364,5.50154206 C22.6205607,4.72598131 22.2308411,3.48154206 22.8943925,2.95747664 C23.5574766,2.43345794 23.4014019,4.23303738 24.0023364,4.23303738 C24.403271,4.23303738 25.4574766,2.96060748 27.1658879,0.415794393 C27.9990654,0.0717757009 28.4275701,-0.043364486 28.4514019,0.0702803738 C28.6728972,1.12883178 27.8588785,3.61275701 27.4373832,4.62154206 C26.6579439,6.48845794 24.6714953,6.46757009 23.6733645,7.14906542 C22.6752336,7.83060748 13.8514019,22.378972 10.817757,22.378972 C7.78411215,22.378972 -0.348598131,14.3567757 0.255607477,12.9199065 C0.658411215,11.9620093 2.42803738,11.6545794 5.56401869,11.9976168 Z" id="path-55"></path>
        <path d="M10.9892523,1.57280374 C12.2929907,3.49130841 7.57943925,6.34859813 4.98925234,7.48037383 C2.39906542,8.6121028 -1.73224299,6.65901869 1.62850467,3.09168224 C4.98925234,-0.475700935 9.68551402,-0.345654206 10.9892523,1.57280374 Z" id="path-57"></path>
        <path d="M24.7,0.378457944 C26.7308411,1.70266355 20.5757009,9.15042056 11.4317757,12.3650935 C2.28738318,15.5798131 -0.245794393,15.6197196 0.587383178,12.3650935 C1.1046729,10.3441121 8.07757009,5.17593458 14.9088785,2.24247664 C19.0780374,0.452009346 23.1841121,-0.61 24.7,0.378457944 Z" id="path-59"></path>
    </defs>
    <g id="聊天" stroke="none" stroke-width="1" fill="none" fill-rule="evenodd">
        <g id="群消息-copy" transform="translate(-490.000000, -2211.000000)">
            <g id="分组-6" transform="translate(490.000000, 2211.000000)">
                <g id="分组">
                    <mask id="mask-2" fill="white">
                        <use xlink:href="#path-1"></use>
                    </mask>
                    <g id="Clip-712"></g>
                    <polygon id="Fill-711" fill="#E4F5FE" mask="url(#mask-2)" points="-2.05794393 -2.3364486 202.057944 -2.3364486 202.057944 152.00729 -2.05794393 152.00729"></polygon>
                </g>
                <g id="分组" transform="translate(67.289720, 15.420561)">
                    <mask id="mask-4" fill="white">
                        <use xlink:href="#path-3"></use>
                    </mask>
                    <g id="Clip-714"></g>
                    <polygon id="Fill-713" fill="#AEDAF2" mask="url(#mask-4)" points="-2.3364486 -2.3364486 68.0883178 -2.3364486 68.0883178 121.072897 -2.3364486 121.072897"></polygon>
                </g>
                <g id="分组" transform="translate(71.495327, 26.168224)">
                    <mask id="mask-6" fill="white">
                        <use xlink:href="#path-5"></use>
                    </mask>
                    <g id="Clip-716"></g>
                    <polygon id="Fill-715" fill="#F3F7FA" mask="url(#mask-6)" points="-1.94392523 -1.99588785 58.8252336 -1.99588785 58.8252336 95.5409346 -1.94392523 95.5409346"></polygon>
                </g>
                <g id="分组" transform="translate(95.327103, 121.962617)">
                    <mask id="mask-8" fill="white">
                        <use xlink:href="#path-7"></use>
                    </mask>
                    <g id="Clip-718"></g>
                    <polygon id="Fill-717" fill="#FFFFFF" mask="url(#mask-8)" points="-2.32570093 -2.15429907 12.0028037 -2.15429907 12.0028037 12.2207944 -2.32570093 12.2207944"></polygon>
                </g>
                <g id="分组" transform="translate(92.056075, 19.626168)">
                    <mask id="mask-10" fill="white">
                        <use xlink:href="#path-9"></use>
                    </mask>
                    <g id="Clip-720"></g>
                    <polygon id="Fill-719" fill="#FFFFFF" mask="url(#mask-10)" points="-2.27336449 -1.92196262 19.4121495 -1.92196262 19.4121495 4.59897196 -2.27336449 4.59897196"></polygon>
                </g>
                <g id="分组" transform="translate(62.149533, 29.439252)">
                    <mask id="mask-12" fill="white">
                        <use xlink:href="#path-11"></use>
                    </mask>
                    <g id="Clip-722"></g>
                    <polygon id="Fill-721" fill="#FFFFFF" mask="url(#mask-12)" points="-2.3364486 -2.3364486 77.8546729 -2.3364486 77.8546729 28.7426636 -2.3364486 28.7426636"></polygon>
                </g>
                <g id="分组" transform="translate(62.149533, 101.869159)">
                    <mask id="mask-14" fill="white">
                        <use xlink:href="#path-13"></use>
                    </mask>
                    <g id="Clip-724"></g>
                    <polygon id="Fill-723" fill="#FFFFFF" mask="url(#mask-14)" points="-2.3364486 -2.3364486 51.4018692 -2.3364486 51.4018692 20.6504206 -2.3364486 20.6504206"></polygon>
                </g>
                <g id="分组" transform="translate(76.168224, 65.420561)">
                    <mask id="mask-16" fill="white">
                        <use xlink:href="#path-15"></use>
                    </mask>
                    <g id="Clip-726"></g>
                    <polygon id="Fill-725" fill="#FFFFFF" mask="url(#mask-16)" points="-2.3364486 -2.3364486 64.2014019 -2.3364486 64.2014019 28.7426636 -2.3364486 28.7426636"></polygon>
                </g>
                <g id="分组" transform="translate(78.504673, 37.850467)">
                    <mask id="mask-18" fill="white">
                        <use xlink:href="#path-17"></use>
                    </mask>
                    <g id="Clip-728"></g>
                    <polygon id="Fill-727" fill="#D9ECF5" mask="url(#mask-18)" points="-2.3364486 -2.3364486 44.1485981 -2.3364486 44.1485981 4.89186916 -2.3364486 4.89186916"></polygon>
                </g>
                <g id="分组" transform="translate(89.719626, 73.831776)">
                    <mask id="mask-20" fill="white">
                        <use xlink:href="#path-19"></use>
                    </mask>
                    <g id="Clip-730"></g>
                    <polygon id="Fill-729" fill="#D9ECF5" mask="url(#mask-20)" points="-2.3364486 -2.3364486 36.0420561 -2.3364486 36.0420561 4.89186916 -2.3364486 4.89186916"></polygon>
                </g>
                <g id="分组" transform="translate(78.504673, 45.794393)">
                    <mask id="mask-22" fill="white">
                        <use xlink:href="#path-21"></use>
                    </mask>
                    <g id="Clip-732"></g>
                    <polygon id="Fill-731" fill="#D9ECF5" mask="url(#mask-22)" points="-2.3364486 -2.3364486 36.4686916 -2.3364486 36.4686916 4.89186916 -2.3364486 4.89186916"></polygon>
                </g>
                <g id="分组" transform="translate(75.233645, 109.813084)">
                    <mask id="mask-24" fill="white">
                        <use xlink:href="#path-23"></use>
                    </mask>
                    <g id="Clip-734"></g>
                    <polygon id="Fill-733" fill="#D9ECF5" mask="url(#mask-24)" points="-2.3364486 -2.3364486 27.0827103 -2.3364486 27.0827103 4.89186916 -2.3364486 4.89186916"></polygon>
                </g>
                <g id="分组" transform="translate(89.719626, 81.775701)">
                    <mask id="mask-26" fill="white">
                        <use xlink:href="#path-25"></use>
                    </mask>
                    <g id="Clip-736"></g>
                    <polygon id="Fill-735" fill="#D9ECF5" mask="url(#mask-26)" points="-2.3364486 -2.3364486 30.0691589 -2.3364486 30.0691589 4.89186916 -2.3364486 4.89186916"></polygon>
                </g>
                <g id="分组" transform="translate(54.672897, 33.177570)">
                    <mask id="mask-28" fill="white">
                        <use xlink:href="#path-27"></use>
                    </mask>
                    <g id="Clip-738"></g>
                    <polygon id="Fill-737" fill="#F0E0CB" mask="url(#mask-28)" points="-2.02523364 24.0757477 20.0934206 24.0757477 20.0934206 -2.33646262 -2.02523364 -2.33646262"></polygon>
                </g>
                <g id="分组" transform="translate(25.233645, 26.635514)">
                    <mask id="mask-30" fill="white">
                        <use xlink:href="#path-29"></use>
                    </mask>
                    <g id="Clip-740"></g>
                    <polygon id="Fill-739" fill="#56A3CE" mask="url(#mask-30)" points="-2.28691589 39.2273832 39.252486 39.2273832 39.252486 -2.33646729 -2.28691589 -2.33646729"></polygon>
                </g>
                <g id="分组" transform="translate(39.719626, 13.084112)">
                    <mask id="mask-32" fill="white">
                        <use xlink:href="#path-31"></use>
                    </mask>
                    <g id="Clip-742"></g>
                    <polygon id="Fill-741" fill="#F0E0CB" mask="url(#mask-32)" points="-2.05747664 19.135 17.7570234 19.135 17.7570234 -2.33645794 -2.05747664 -2.33645794"></polygon>
                </g>
                <g id="分组" transform="translate(25.700935, 43.925234)">
                    <mask id="mask-34" fill="white">
                        <use xlink:href="#path-33"></use>
                    </mask>
                    <g id="Clip-744"></g>
                    <polygon id="Fill-743" fill="#F0E0CB" mask="url(#mask-34)" points="-2.0046729 22.7582243 16.8223271 22.7582243 16.8223271 -2.3364486 -2.0046729 -2.3364486"></polygon>
                </g>
                <g id="分组" transform="translate(42.523364, 11.214953)">
                    <mask id="mask-36" fill="white">
                        <use xlink:href="#path-35"></use>
                    </mask>
                    <g id="Clip-746"></g>
                    <polygon id="Fill-745" fill="#474A5B" mask="url(#mask-36)" points="-2.22803738 13.2061215 14.9531402 13.2061215 14.9531402 -2.33642991 -2.22803738 -2.33642991"></polygon>
                </g>
                <polygon id="Fill-747" fill="#D8D8D8" points="153.304206 67.3867757 157.977103 67.3867757 157.977103 62.7138785 153.304206 62.7138785"></polygon>
                <g id="分组" transform="translate(137.383178, 64.953271)">
                    <mask id="mask-38" fill="white">
                        <use xlink:href="#path-37"></use>
                    </mask>
                    <g id="Clip-749"></g>
                    <polygon id="Fill-748" fill="#84D1FB" mask="url(#mask-38)" points="-2.0228972 15.7967757 11.0665607 15.7967757 11.0665607 -2.23938318 -2.0228972 -2.23938318"></polygon>
                </g>
                <g id="分组" transform="translate(140.654206, 63.551402)">
                    <mask id="mask-40" fill="white">
                        <use xlink:href="#path-39"></use>
                    </mask>
                    <g id="Clip-751"></g>
                    <polygon id="Fill-750" fill="#91D7FD" mask="url(#mask-40)" points="-2.26214953 37.6208879 24.7655421 37.6208879 24.7655421 -2.04103271 -2.26214953 -2.04103271"></polygon>
                </g>
                <g id="分组" transform="translate(138.785047, 80.373832)">
                    <mask id="mask-42" fill="white">
                        <use xlink:href="#path-41"></use>
                    </mask>
                    <g id="Clip-753"></g>
                    <polygon id="Fill-752" fill="#F0E0CB" mask="url(#mask-42)" points="-2.26588785 13.9733645 31.3980654 13.9733645 31.3980654 -2.31540187 -2.26588785 -2.31540187"></polygon>
                </g>
                <g id="分组" transform="translate(157.476636, 66.355140)">
                    <mask id="mask-44" fill="white">
                        <use xlink:href="#path-43"></use>
                    </mask>
                    <g id="Clip-755"></g>
                    <polygon id="Fill-754" fill="#84D1FB" mask="url(#mask-44)" points="-2.24953271 20.4735981 14.4929206 20.4735981 14.4929206 -2.13688785 -2.24953271 -2.13688785"></polygon>
                </g>
                <g id="分组" transform="translate(146.728972, 53.271028)">
                    <mask id="mask-46" fill="white">
                        <use xlink:href="#path-45"></use>
                    </mask>
                    <g id="Clip-757"></g>
                    <polygon id="Fill-756" fill="#F0E0CB" mask="url(#mask-46)" points="-2.03037383 15.831215 13.0341916 15.831215 13.0341916 -2.29124299 -2.03037383 -2.29124299"></polygon>
                </g>
                <g id="分组" transform="translate(143.457944, 45.794393)">
                    <mask id="mask-48" fill="white">
                        <use xlink:href="#path-47"></use>
                    </mask>
                    <g id="Clip-759"></g>
                    <polygon id="Fill-758" fill="#474A5B" mask="url(#mask-48)" points="-1.98691589 13.9178037 22.8549907 13.9178037 22.8549907 -2.33643458 -1.98691589 -2.33643458"></polygon>
                </g>
                <g id="分组" transform="translate(35.514019, 96.728972)">
                    <mask id="mask-50" fill="white">
                        <use xlink:href="#path-49"></use>
                    </mask>
                    <g id="Clip-761"></g>
                    <polygon id="Fill-760" fill="#F0E0CB" mask="url(#mask-50)" points="-2.24672897 21.986729 16.9924439 21.986729 16.9924439 -2.07897196 -2.24672897 -2.07897196"></polygon>
                </g>
                <g id="分组" transform="translate(28.504673, 103.271028)">
                    <mask id="mask-52" fill="white">
                        <use xlink:href="#path-51"></use>
                    </mask>
                    <g id="Clip-763"></g>
                    <polygon id="Fill-762" fill="#474A5B" mask="url(#mask-52)" points="-2.13971963 26.2914953 22.5818692 26.2914953 22.5818692 -2.04719626 -2.13971963 -2.04719626"></polygon>
                </g>
                <g id="分组" transform="translate(30.373832, 114.485981)">
                    <mask id="mask-54" fill="white">
                        <use xlink:href="#path-53"></use>
                    </mask>
                    <g id="Clip-765"></g>
                    <polygon id="Fill-764" fill="#91D7FD" mask="url(#mask-54)" points="-2.21401869 30.0486449 23.9391916 30.0486449 23.9391916 -2.08661682 -2.21401869 -2.08661682"></polygon>
                </g>
                <g id="分组" transform="translate(43.925234, 107.476636)">
                    <mask id="mask-56" fill="white">
                        <use xlink:href="#path-55"></use>
                    </mask>
                    <g id="Clip-767"></g>
                    <polygon id="Fill-766" fill="#F0E0CB" mask="url(#mask-56)" points="-2.11261682 24.7154206 30.8256542 24.7154206 30.8256542 -2.30850467 -2.11261682 -2.30850467"></polygon>
                </g>
                <g id="分组" transform="translate(34.579439, 93.457944)">
                    <mask id="mask-58" fill="white">
                        <use xlink:href="#path-57"></use>
                    </mask>
                    <g id="Clip-769"></g>
                    <polygon id="Fill-768" fill="#61C7FF" mask="url(#mask-58)" points="-1.96962617 10.1379439 13.549285 10.1379439 13.549285 -2.09485981 -1.96962617 -2.09485981"></polygon>
                </g>
                <g id="分组" transform="translate(29.906542, 92.056075)">
                    <mask id="mask-60" fill="white">
                        <use xlink:href="#path-59"></use>
                    </mask>
                    <g id="Clip-771"></g>
                    <polygon id="Fill-770" fill="#61C7FF" mask="url(#mask-60)" points="-1.89813084 17.1275701 27.4247991 17.1275701 27.4247991 -2.3364486 -1.89813084 -2.3364486"></polygon>
                </g>
            </g>
        </g>
    </g>
</svg>