<?xml version="1.0" encoding="UTF-8"?>
<svg width="14px" height="14px" viewBox="0 0 14 14" version="1.1" xmlns="http://www.w3.org/2000/svg" xmlns:xlink="http://www.w3.org/1999/xlink">
    <!-- Generator: Sketch 52.4 (67378) - http://www.bohemiancoding.com/sketch -->
    <title>Fill 1 Copy 3</title>
    <desc>Created with Sketch.</desc>
    <g id="聊天" stroke="none" stroke-width="1" fill="none" fill-rule="evenodd">
        <g id="赞赏" transform="translate(-513.000000, -324.000000)" fill="#32B2F7">
            <path d="M514.82355,337.822034 L514.631769,337.822034 C513.731788,337.822034 513,337.108687 513,336.231346 L513,330.751723 C513,329.874382 513.731788,329.161017 514.631769,329.161017 L514.82355,329.161017 C515.72355,329.161017 516.455319,329.874382 516.455319,330.751723 L516.455319,336.23282 C516.455319,337.108687 515.72355,337.822034 514.82355,337.822034 Z M523.853689,338 L523.829991,338 C523.207423,337.994083 522.571545,337.992645 522.025876,337.992645 L521.106008,337.992645 C520.517434,337.992645 519.888933,337.992645 519.256031,337.985235 L519.2486,337.985235 C518.862644,337.97342 518.487004,337.895302 518.129146,337.749352 C517.451824,337.485396 517.048104,336.876325 517.05108,336.119865 L517.054038,333.84011 C517.054038,332.55865 517.05548,331.303716 517.065868,330.047361 C517.068845,329.584388 517.34387,329.17297 517.599707,328.9414 C518.294793,328.307352 519.047498,327.519926 519.355094,326.486183 C519.437927,326.204587 519.47194,325.877186 519.507395,325.530633 C519.551797,325.091197 519.718886,324.713695 519.990972,324.437998 C520.268973,324.156309 520.646111,324 521.052789,324 C521.367761,324 521.679775,324.091445 521.980014,324.269873 C522.553781,324.613459 522.932379,325.144265 523.137955,325.89195 C523.441077,326.987534 523.297613,328.027175 523.132039,328.919299 L525.184634,328.919299 C525.435979,328.919299 526.203565,328.919299 526.672335,329.487044 C526.975476,329.854261 527.068624,330.349695 526.950336,330.957255 C526.648655,332.499702 526.278948,334.06862 525.924048,335.535917 C525.807202,336.018117 525.619391,336.451654 525.435979,336.871901 L525.434538,336.874868 L525.35908,337.04891 C525.100285,337.653447 524.55164,338 523.853689,338 Z" id="Fill-1-Copy-3"></path>
        </g>
    </g>
</svg>