<?xml version="1.0" encoding="UTF-8"?>
<svg width="30px" height="30px" viewBox="0 0 30 30" version="1.1" xmlns="http://www.w3.org/2000/svg" xmlns:xlink="http://www.w3.org/1999/xlink">
    <!-- Generator: Sketch 52.4 (67378) - http://www.bohemiancoding.com/sketch -->
    <title>Fill 1 Copy 3</title>
    <desc>Created with Sketch.</desc>
    <g id="聊天" stroke="none" stroke-width="1" fill="none" fill-rule="evenodd">
        <g id="赞赏" transform="translate(-607.000000, -854.000000)" fill="#32B2F7">
            <path d="M610.895309,883.52381 L610.485643,883.52381 C608.563182,883.52381 607,881.994212 607,880.112968 L607,868.363261 C607,866.482017 608.563182,864.952381 610.485643,864.952381 L610.895309,864.952381 C612.81781,864.952381 614.380952,866.482017 614.380952,868.363261 L614.380952,880.116129 C614.380952,881.994212 612.81781,883.52381 610.895309,883.52381 Z M630.2233,884 L630.172258,884 C628.831336,883.987321 627.461748,883.98424 626.286455,883.98424 L624.305193,883.98424 C623.03749,883.98424 621.683788,883.98424 620.32061,883.968362 L620.304604,883.968362 C619.473312,883.943043 618.664236,883.775648 617.893461,883.462898 C616.434608,882.897277 615.565054,881.592124 615.571464,879.97114 L615.577834,875.085949 C615.577834,872.339965 615.58094,869.650819 615.603316,866.958632 C615.609726,865.966545 616.20209,865.084935 616.753126,864.588714 C618.250242,863.23004 619.871459,861.542698 620.533977,859.327536 C620.712387,858.724115 620.785646,858.022541 620.862011,857.279927 C620.957646,856.338279 621.317532,855.529347 621.903566,854.938566 C622.50234,854.334948 623.314641,854 624.190566,854 C624.86897,854 625.541003,854.195953 626.187675,854.578299 C627.423486,855.314554 628.238932,856.451996 628.681712,858.054179 C629.334595,860.401859 629.025592,862.629661 628.668971,864.541355 L633.089964,864.541355 C633.631326,864.541355 635.284594,864.541355 636.294257,865.757952 C636.94718,866.544844 637.147806,867.606488 636.893031,868.908403 C636.243254,872.213648 635.446959,875.575614 634.682555,878.719823 C634.430886,879.753107 634.026368,880.682115 633.631326,881.582644 L633.62822,881.589004 L633.465696,881.96195 C632.908289,883.257386 631.726587,884 630.2233,884 Z" id="Fill-1-Copy-3"></path>
        </g>
    </g>
</svg>