<?xml version="1.0" encoding="UTF-8"?>
<svg width="20px" height="20px" viewBox="0 0 20 20" version="1.1" xmlns="http://www.w3.org/2000/svg" xmlns:xlink="http://www.w3.org/1999/xlink">
    <!-- Generator: Sketch 52 (66869) - http://www.bohemiancoding.com/sketch -->
    <title>发送中</title>
    <desc>Created with Sketch.</desc>
    <g id="聊天" stroke="none" stroke-width="1" fill="none" fill-rule="evenodd">
        <g id="聊天室消息" transform="translate(-673.000000, -215.000000)" fill="#8A97A5" fill-rule="nonzero">
            <g id="聊天窗口" transform="translate(340.000000, 0.000000)">
                <g id="聊天内容" transform="translate(0.000000, 60.000000)">
                    <g id="消息1-copy" transform="translate(333.000000, 128.000000)">
                        <g id="发送中" transform="translate(0.000000, 27.000000)">
                            <path d="M15.3042197,13.5357233 L17.0699817,15.3042197 C17.5585971,15.7899891 17.5585971,16.5827893 17.0699817,17.0699817 C16.5813664,17.5570625 15.7899891,17.5585971 15.3042197,17.0699817 L13.5357233,15.3042197 C13.0471079,14.8128979 13.0471079,14.0242271 13.5357233,13.5357233 C14.0242271,13.0471079 14.8128979,13.0471079 15.3042197,13.5357233 Z M4.99996512,9.99993027 C4.99996512,10.6885453 4.44140005,11.2499564 3.74993897,11.2499564 L1.25002616,11.2499564 C0.558592971,11.2499564 0,10.6885453 0,9.99993027 C0,9.31003167 0.558592971,8.7500436 1.25002616,8.7500436 L3.74993897,8.7500436 C4.44140005,8.7500436 4.99996512,9.31003167 4.99996512,9.99993027 Z M4.69709166,6.46427669 L2.92859525,4.69709166 C2.43997985,4.20858788 2.43997985,3.41709903 2.92859525,2.93001823 C3.41709903,2.44282583 4.20858788,2.44140285 4.69566867,2.93001823 L6.46285371,4.69709166 C6.95146907,5.18567915 6.95146907,5.9771959 6.46285371,6.46427669 C5.97566131,6.9528642 5.18428406,6.9528642 4.69709166,6.46427669 Z M4.69709166,17.0699817 C4.21001087,17.5585971 3.41709903,17.5585971 2.93001823,17.0699817 C2.44140285,16.5827893 2.44140285,15.7899891 2.93001823,15.3042197 L4.69709166,13.5357233 C5.18567915,13.0471079 5.9771959,13.0471079 6.46427669,13.5357233 C6.95146907,14.0242271 6.9528642,14.8142929 6.46427669,15.3042197 L4.69709166,17.0699817 Z M9.99993027,4.99996512 C9.30860867,4.99996512 8.7500436,4.43997707 8.7500436,3.74993897 L8.7500436,1.25002616 C8.7500436,0.559988058 9.30860867,0 9.99993027,0 C10.6885453,0 11.2499564,0.559988058 11.2499564,1.25002616 L11.2499564,3.74993897 C11.2499564,4.43997707 10.6885453,4.99996512 9.99993027,4.99996512 Z M9.99993027,20 C9.30860867,20 8.7500436,19.4385889 8.7500436,18.7499739 L8.7500436,16.2499215 C8.7500436,15.5614459 9.30860867,15.000007 9.99993027,15.000007 C10.6885453,15.000007 11.2499564,15.5614459 11.2499564,16.2499215 L11.2499564,18.7499739 C11.2499564,19.4385889 10.6885453,20 9.99993027,20 Z M15.3042197,6.46427669 C14.8128979,6.9528642 14.0242271,6.9528642 13.5357233,6.46427669 C13.0471079,5.9771959 13.0471079,5.18428406 13.5357233,4.69709166 L15.3042197,2.93001823 C15.7899891,2.44140285 16.5827893,2.44140285 17.0699817,2.93001823 C17.5570625,3.41860572 17.5585971,4.21001087 17.0699817,4.69709166 L15.3042197,6.46427669 Z M18.7499739,11.2499564 L16.2499494,11.2499564 C15.5614459,11.2499564 15.0000349,10.6885453 15.0000349,9.99993027 C15.0000349,9.31003167 15.5614459,8.7500436 16.2499494,8.7500436 L18.7499739,8.7500436 C19.4385889,8.7500436 20,9.31003167 20,9.99993027 C20,10.6885453 19.4385889,11.2499564 18.7499739,11.2499564 Z" id="Fill-1"></path>
                        </g>
                    </g>
                </g>
            </g>
        </g>
    </g>
</svg>