<?xml version="1.0" encoding="UTF-8"?>
<svg width="20px" height="20px" viewBox="0 0 20 20" version="1.1" xmlns="http://www.w3.org/2000/svg" xmlns:xlink="http://www.w3.org/1999/xlink">
    <!-- Generator: Sketch 52.4 (67378) - http://www.bohemiancoding.com/sketch -->
    <title>锁定</title>
    <desc>Created with Sketch.</desc>
    <g id="聊天" stroke="none" stroke-width="1" fill="none" fill-rule="evenodd">
        <g id="群聊消息-copy-4" transform="translate(-690.000000, -250.000000)">
            <g id="锁定" transform="translate(690.000000, 250.000000)">
                <circle id="Oval-7" fill="#E8F3FF" cx="10" cy="10" r="10"></circle>
                <path d="M10.8424926,12.5524 C10.8424926,13.006706 10.4708023,13.3784319 10.0164785,13.3784319 C9.56219031,13.3784319 9.1904822,13.006706 9.1904822,12.5524 L9.1904822,11.0197094 C9.1904822,10.5653857 9.56219031,10.1936776 10.0164785,10.1936776 C10.4708023,10.1936776 10.8424926,10.5653857 10.8424926,11.0197094 L10.8424926,12.5524 Z M14.1962771,8.57462998 L5.79835973,8.57462998 C5.43783511,8.57462998 5.14286315,8.86960194 5.14286315,9.23014158 L5.14286315,10.884543 C5.14286315,13.5544851 7.32736127,15.7389833 9.99730342,15.7389833 L9.99731844,15.7389833 C12.6672756,15.7389833 14.8517737,13.5544851 14.8517737,10.884543 L14.8517737,9.23014158 C14.8517737,8.86960194 14.5567868,8.57462998 14.1962771,8.57462998 Z" id="Fill-1" fill="#32B2F7"></path>
                <path d="M13.1092303,7.80376913 C12.9145685,7.80376913 12.7504236,7.65858068 12.726843,7.46535214 C12.6528967,6.85962506 12.3809354,6.29932853 11.9426388,5.86103194 C11.4237165,5.34210966 10.7337672,5.0563299 9.99988811,5.0563299 C9.26602256,5.0563299 8.5760732,5.34210966 8.05715092,5.86103194 C7.61885433,6.29932853 7.34687951,6.85962506 7.2729467,7.46535214 C7.24935257,7.65858068 7.0852212,7.80376913 6.89054591,7.80376913 C6.65910703,7.80376913 6.47998088,7.60119758 6.50795582,7.3714353 C6.60245406,6.59543833 6.95076842,5.87759516 7.5122548,5.31612231 C8.17671708,4.65166003 9.06017892,4.28571429 9.99988811,4.28571429 C10.9395973,4.28571429 11.8230727,4.65166003 12.4875349,5.31612231 C13.0490078,5.87759516 13.3973357,6.59543833 13.4918339,7.3714353 C13.5197953,7.60119758 13.3406827,7.80376913 13.1092303,7.80376913" id="Fill-4" stroke="#32B2F7" fill="#32B2F7" opacity="0.684839221"></path>
            </g>
        </g>
    </g>
</svg>