<?xml version="1.0" encoding="UTF-8"?>
<svg width="540px" height="440px" viewBox="0 0 540 440" version="1.1" xmlns="http://www.w3.org/2000/svg" xmlns:xlink="http://www.w3.org/1999/xlink">
    <!-- Generator: Sketch 52.4 (67378) - http://www.bohemiancoding.com/sketch -->
    <title>Mask</title>
    <desc>Created with Sketch.</desc>
    <defs>
        <rect id="path-1" x="0" y="-5.68434189e-14" width="540" height="440"></rect>
        <linearGradient x1="83.890025%" y1="0%" x2="16.9603053%" y2="88.4617982%" id="linearGradient-3">
            <stop stop-color="#32B2F7" offset="0%"></stop>
            <stop stop-color="#90DEFF" stop-opacity="0.762596241" offset="55.6840983%"></stop>
            <stop stop-color="#96DAFF" offset="100%"></stop>
        </linearGradient>
        <linearGradient x1="0%" y1="24.0681823%" x2="102.416419%" y2="91.1469193%" id="linearGradient-4">
            <stop stop-color="#1FAEFB" offset="0%"></stop>
            <stop stop-color="#7BD0FF" offset="100%"></stop>
        </linearGradient>
        <linearGradient x1="66.7188721%" y1="2.84583994%" x2="10.7534479%" y2="75.0536772%" id="linearGradient-5">
            <stop stop-color="#F0FAFF" offset="0%"></stop>
            <stop stop-color="#C5EAFF" offset="100%"></stop>
        </linearGradient>
        <linearGradient x1="113.20665%" y1="32.2792112%" x2="11.7352548%" y2="66.7730949%" id="linearGradient-6">
            <stop stop-color="#C2E8FC" offset="0%"></stop>
            <stop stop-color="#EDF9FF" offset="100%"></stop>
        </linearGradient>
        <linearGradient x1="65.5492287%" y1="0%" x2="50.4181524%" y2="97.310784%" id="linearGradient-7">
            <stop stop-color="#1FAEFB" offset="0%"></stop>
            <stop stop-color="#7BD0FF" offset="100%"></stop>
        </linearGradient>
        <linearGradient x1="65.3954854%" y1="0.988752095%" x2="50.4181524%" y2="97.310784%" id="linearGradient-8">
            <stop stop-color="#0A99E6" offset="0%"></stop>
            <stop stop-color="#56BCF3" offset="100%"></stop>
        </linearGradient>
        <linearGradient x1="87.8285732%" y1="35.1832832%" x2="29.2529613%" y2="26.3263588%" id="linearGradient-9">
            <stop stop-color="#59D4FF" stop-opacity="0" offset="0%"></stop>
            <stop stop-color="#57D6FF" offset="100%"></stop>
        </linearGradient>
        <path d="M18.9269713,54.1606432 L9.02656107,55.6954977 C5.19046352,55.6954977 2.25673668,52.7498685 2.25673668,48.8979753 L2.25673668,39.8346379 C0.676990152,36.209272 0,32.3573013 0,28.505563 C0,12.1915712 12.311871,2.99217098 22.7299313,0.950186723 C41.6569027,-2.75958038 55.8345654,8.72356151 57.7272625,24.7048548 C59.6199597,40.6861481 50.143545,51.6311391 39.7466398,55.1108299 C34.0685484,57.0112034 27.1286589,56.6944745 18.9269713,54.1606432 Z" id="path-10"></path>
        <linearGradient x1="96.5141435%" y1="21.9209051%" x2="11.7352548%" y2="66.7730949%" id="linearGradient-12">
            <stop stop-color="#C2E8FC" offset="0%"></stop>
            <stop stop-color="#EDF9FF" offset="100%"></stop>
        </linearGradient>
        <linearGradient x1="50.0535071%" y1="15.6620497%" x2="50.0535071%" y2="78.9688221%" id="linearGradient-13">
            <stop stop-color="#59D4FF" stop-opacity="0" offset="0%"></stop>
            <stop stop-color="#57D6FF" offset="100%"></stop>
        </linearGradient>
        <linearGradient x1="84.6538029%" y1="3.8115395%" x2="9.00214576%" y2="89.5115519%" id="linearGradient-14">
            <stop stop-color="#1CC9EA" offset="0%"></stop>
            <stop stop-color="#7BEDFF" offset="100%"></stop>
        </linearGradient>
        <linearGradient x1="50.0535071%" y1="100%" x2="50.0535071%" y2="15.6620497%" id="linearGradient-15">
            <stop stop-color="#62D7FF" stop-opacity="0" offset="0%"></stop>
            <stop stop-color="#75EAFF" offset="100%"></stop>
        </linearGradient>
        <linearGradient x1="50.0535071%" y1="100%" x2="50.0535071%" y2="15.6620497%" id="linearGradient-16">
            <stop stop-color="#62D7FF" stop-opacity="0" offset="0%"></stop>
            <stop stop-color="#60E7FF" offset="100%"></stop>
        </linearGradient>
        <linearGradient x1="50.0535071%" y1="0%" x2="50.0535071%" y2="78.9688221%" id="linearGradient-17">
            <stop stop-color="#59D4FF" stop-opacity="0" offset="0%"></stop>
            <stop stop-color="#57D6FF" stop-opacity="0.860054348" offset="100%"></stop>
        </linearGradient>
    </defs>
    <g id="聊天" stroke="none" stroke-width="1" fill="none" fill-rule="evenodd">
        <g id="注册进入" transform="translate(-305.000000, -160.000000)">
            <g id="分组-5" transform="translate(305.000000, 160.000000)">
                <mask id="mask-2" fill="white">
                    <use xlink:href="#path-1"></use>
                </mask>
                <g id="Mask" fill-rule="nonzero"></g>
                <g id="分组-4" mask="url(#mask-2)">
                    <g transform="translate(10.895225, 17.414550)">
                        <path d="M523.402127,2.69922117 C483.566965,-2.10875223 449.351079,1.22074924 420.754469,12.6877256 C259.918077,77.1816341 319.249238,126.008494 122.104775,168.307344 C7.1566582,192.970341 -42.3153374,445.88484 44.1047748,463.235142 C101.718183,474.802009 263.38485,467.336793 529.104775,440.839492 L529.174604,79.1812933 L523.402127,2.69922117 Z" id="Path-77" fill="url(#linearGradient-3)"></path>
                        <g id="分组-6" stroke-width="1" fill="none" transform="translate(118.000000, 1.000000)">
                            <g id="分组-3" transform="translate(122.703553, 287.834873)" fill="url(#linearGradient-4)" fill-rule="nonzero" opacity="0.461123512">
                                <ellipse id="椭圆形-copy" cx="66.9837713" cy="22.082598" rx="66.3715596" ry="21.8763279"></ellipse>
                                <ellipse id="椭圆形" cx="73.4678899" cy="21.0349307" rx="54.266055" ry="17.6693418"></ellipse>
                                <ellipse id="椭圆形-copy-2" cx="77.2247706" cy="21.8763279" rx="22.1238532" ry="7.57257506"></ellipse>
                            </g>
                            <path d="M113.579317,219.862587 L65.4988688,191.231213 C56.9191709,186.122098 46.1714587,186.378135 37.8447792,191.890002 L9.78460874,210.464504 C6.56091124,212.598439 5.67748411,216.941659 7.81141902,220.165356 C8.36986436,221.008989 9.10454614,221.721544 9.96485742,222.253938 L75.5334543,262.830309 C78.8208813,264.864695 79.8366714,269.178877 77.8022851,272.466304 C77.2449357,273.366942 76.4904772,274.129363 75.5957399,274.696137 L38.9714005,297.895919 C35.7055117,299.964705 34.735068,304.289313 36.8038537,307.555202 C37.3798326,308.464471 38.1577363,309.228669 39.0770995,309.788395 L92.9659827,342.596998" id="路径-7" stroke="#2DB4FC" stroke-width="2" fill-rule="nonzero"></path>
                            <path d="M182.771442,134.957275 L129.53254,101.352764 C124.862239,98.4048597 123.465961,92.2290848 126.413865,87.5587843 C127.241275,86.2479356 128.362103,85.1473911 129.687841,84.3440544 L191.135325,47.1096998" id="路径-8" stroke="#2DB4FC" stroke-width="2" fill-rule="nonzero"></path>
                            <path d="M243.599683,159.516166 L282.048934,137.809183 C291.421202,132.517957 302.909742,132.652749 312.155286,138.162414 L350.809459,161.19746" id="路径-9" stroke="#2DB4FC" stroke-width="2" fill-rule="nonzero"></path>
                            <path d="M247.817832,105.511147 C217.561263,104.782024 191.745467,105.892926 170.370446,108.843853 C148.995424,111.79478 125.122753,120.028906 98.7524327,133.546229 C98.7524327,159.439982 98.7524327,177.108192 98.7524327,186.550859 C98.7524327,200.71486 104.008686,229.972792 124.568228,258.266085 C138.27459,277.128281 160.065342,292.308639 189.940484,303.807159 C216.866636,277.594599 232.550426,257.320637 236.991853,242.985273 C243.653994,221.482228 247.817832,192.000636 247.817832,165.042043 C247.817832,149.820519 256.145508,130.579545 256.145508,112.673524 C256.145508,110.516177 253.369616,108.128718 247.817832,105.511147 Z" id="路径-2-copy-4" fill="url(#linearGradient-5)" fill-rule="nonzero"></path>
                            <path d="M256.145508,113.863 C225.819121,112.582807 199.943756,113.413142 178.519411,116.354005 C157.095067,119.294869 133.16731,127.500913 106.736139,140.972138 C106.736139,166.777585 106.736139,184.385541 106.736139,193.796006 C106.736139,207.911703 112.004521,237.069856 132.611505,265.26666 C146.349494,284.06453 168.190528,299.193118 198.134608,310.652425 C225.122892,284.529257 240.842873,264.324436 245.294548,250.037961 C251.972062,228.608248 256.145508,199.227197 256.145508,172.360541 C256.145508,154.449437 256.145508,134.950257 256.145508,113.863 Z" id="路径-2" fill="url(#linearGradient-6)" fill-rule="nonzero"></path>
                            <path d="M241.318624,134.267504 C217.705712,133.27591 197.558481,133.91906 180.876931,136.196954 C164.19538,138.474848 145.564607,144.830975 124.984612,155.265334 C124.984612,175.253368 124.984612,188.8919 124.984612,196.180931 C124.984612,207.114477 129.086711,229.699405 145.131843,251.539704 C155.828598,266.099903 172.834594,277.818 196.149832,286.693995 C217.16361,266.459866 229.403595,250.809888 232.869785,239.744064 C238.069071,223.145326 241.318624,200.38775 241.318624,179.577739 C241.318624,165.704398 241.318624,150.600986 241.318624,134.267504 Z" id="路径-2-copy" fill="url(#linearGradient-7)" fill-rule="nonzero"></path>
                            <path d="M194.556913,285.077231 C211.270502,267.943518 221.224201,254.315867 224.41801,244.194278 C230.147351,226.037266 233.72819,201.143228 233.72819,178.379591 C233.72819,164.302651 233.72819,149.067961 233.72819,132.67552 C236.217565,132.744574 238.74771,132.832735 241.318624,132.940003 C241.318624,149.293483 241.318624,164.415387 241.318624,178.305713 C241.318624,199.141203 238.044042,221.926643 232.80471,238.545703 C229.311823,249.625076 216.977563,265.294214 195.801931,285.553118 C195.384922,285.395385 194.969916,285.236756 194.556913,285.077231 Z" id="合并形状" fill="url(#linearGradient-8)" fill-rule="nonzero"></path>
                            <path d="" id="路径-5" stroke="#979797" fill-rule="nonzero"></path>
                            <path d="M194.670375,189.625399 C194.739065,189.95851 194.775239,190.304317 194.775239,190.659222 L194.775239,192.439006 L197.775239,192.439006 L197.589951,189.444733 L194.670375,189.625399 Z M185.225969,190.209826 L182.02118,190.408141 L182.206468,193.402413 L185.206468,193.402413 L185.206468,190.659222 C185.206468,190.50767 185.213064,190.357778 185.225969,190.209826 Z M188.591904,212.595637 C188.591904,211.853238 189.205101,211.228085 189.990853,211.228085 C190.776309,211.228085 191.389543,211.853205 191.389543,212.595637 L191.389543,204.672277 C191.389543,205.414511 190.776513,206.039563 189.990853,206.039563 C189.204897,206.039563 188.591904,205.414478 188.591904,204.672277 L188.591904,212.595637 Z M203.837385,188.637268 L204.246712,188.591492 L204.407891,188.577856 C209.007208,188.313365 212.383797,191.973641 212.383797,196.470518 L212.383797,215.016684 C212.383797,219.309885 208.991794,222.823487 204.745989,222.912882 L175.557525,225.80485 L175.40927,225.80485 C171.086284,225.80485 167.605793,222.25587 167.605793,217.906907 L167.605793,199.360742 C167.605793,197.278733 168.418548,195.278229 169.870872,193.796995 C171.230054,192.411159 172.043633,192.090489 174.87061,191.511886 L176.004042,191.305013 L176.004042,190.653775 C176.004042,182.822924 182.252816,176.451501 189.990853,176.451501 C197.052398,176.451501 202.873756,181.757916 203.837385,188.637268 Z" id="Fill-1-Copy-2" stroke="#83E1FF" stroke-width="6" fill="#EFF9FF"></path>
                            <path d="M173.601653,221.504948 C171.843698,220.769195 170.605793,219.007197 170.605793,216.950593 L170.605793,198.315417 C170.605793,197.010479 171.11476,195.758673 172.020288,194.835672 C172.926078,193.912671 174.154542,193.3943 175.435212,193.3943 L179.049398,193.3943 L179.049398,189.566661 C179.049398,183.350152 183.994694,178.310624 190.095546,178.310624 C190.210752,178.310624 190.325546,178.312421 190.439903,178.315989 L190.441995,178.310624 L362.214754,181.214718 L362.214754,278.707852 L173.458532,221.872043 L173.601653,221.504948 Z" id="合并形状" fill="url(#linearGradient-9)" opacity="0.735072545"></path>
                            <path d="M182.206468,190.659222 C182.206468,186.275646 185.69159,182.722244 189.990853,182.722244 C194.289856,182.722244 197.775239,186.275646 197.775239,190.659222 L197.775239,192.439006 L182.206468,193.402413 L182.206468,190.659222 Z M191.591904,212.595637 C191.591904,213.497357 190.874969,214.228085 189.990853,214.228085 C189.106478,214.228085 188.389543,213.497357 188.389543,212.595637 L188.389543,204.672277 C188.389543,203.770558 189.106478,203.039563 189.990853,203.039563 C190.874969,203.039563 191.591904,203.770558 191.591904,204.672277 L191.591904,212.595637 Z M200.977404,191.975802 L200.977404,190.653775 C200.977404,184.466959 196.058673,179.451501 189.990853,179.451501 C183.922773,179.451501 179.004042,184.466959 179.004042,190.653775 L179.004042,193.807015 L175.40927,194.463131 C173.443208,194.866025 172.913614,194.979025 172.01269,195.897618 C171.112026,196.816211 170.605793,198.062037 170.605793,199.360742 L170.605793,217.906907 C170.605793,220.611932 172.756337,222.80485 175.40927,222.80485 L204.580125,219.914627 C207.233058,219.914627 209.383797,217.721709 209.383797,215.016684 L209.383797,196.470518 C209.383797,193.765626 207.492187,191.405445 204.580125,191.572908 L200.977404,191.975802 Z" id="Fill-1" fill="#EFF9FF"></path>
                            <g id="分组" transform="translate(293.782983, 193.142032)">
                                <mask id="mask-11" fill="white">
                                    <use xlink:href="#path-10"></use>
                                </mask>
                                <use id="Mask" fill="#EFF9FF" xlink:href="#path-10"></use>
                                <ellipse id="椭圆形" fill="#2CB3FC" fill-rule="nonzero" mask="url(#mask-11)" cx="17.9806228" cy="31.3561619" rx="3.78539427" ry="3.80074689"></ellipse>
                                <ellipse id="椭圆形-copy-3" fill="#2CB3FC" fill-rule="nonzero" mask="url(#mask-11)" cx="30.2831541" cy="29.4557884" rx="3.78539427" ry="3.80074689"></ellipse>
                                <ellipse id="椭圆形-copy-4" fill="#2CB3FC" fill-rule="nonzero" mask="url(#mask-11)" cx="41.6393369" cy="28.5056017" rx="3.78539427" ry="3.80074689"></ellipse>
                            </g>
                            <g id="分组-13" transform="translate(49.709663, 284.412240)">
                                <path d="M62.8316257,63.3745042 C62.7102527,63.9213997 62.510945,64.4603354 62.2292817,64.9759049 C61.6877482,65.9671526 60.8815393,66.7854028 59.9021827,67.3377608 L38.9272252,79.1676549 C35.3105209,81.2074793 30.90647,81.2212411 27.2773052,79.2040586 L5.02241574,66.8342229 C3.67018302,66.0826174 2.79876022,64.7924552 2.52602222,63.3745042 L2.43418365,63.3745042 L2.43418365,62.4118668 C2.43418365,62.4118667 2.43418365,62.4118667 2.43418365,62.4118667 L2.43418365,38.2672228 L63.180076,38.2672228 L63.180076,63.3745042 L62.8316257,63.3745042 Z" id="合并形状" fill="url(#linearGradient-12)"></path>
                                <path d="M24.7949779,21.7011742 L48.2051858,15.1958794 C51.3979168,14.3086742 54.7053585,16.1776722 55.5925636,19.3704032 C55.8825362,20.4139098 55.8846518,21.5164473 55.5986862,22.5610591 L49.1133054,46.2516853 C47.9978942,50.3262016 44.822218,53.5140889 40.7520125,54.6451292 L17.3418046,61.150424 C14.1490737,62.0376291 10.841632,60.1686311 9.95442683,56.9759002 C9.66445425,55.9323935 9.66233858,54.8298561 9.94830423,53.7852443 L16.4336851,30.094618 C17.5490962,26.0201018 20.7247724,22.8322144 24.7949779,21.7011742 Z" id="Rectangle-31-Copy-13" fill="#F5FBFF" transform="translate(32.773495, 38.173152) rotate(-315.000000) translate(-32.773495, -38.173152) "></path>
                                <rect id="Rectangle-33-Copy" fill="url(#linearGradient-13)" x="12.219687" y="-1.10134124e-13" width="41.3144654" height="39.3116717"></rect>
                                <path d="M28.8946067,25.5545644 L42.7367006,21.7369234 C45.3987354,21.0027358 48.1519177,22.5655649 48.8861053,25.2275997 C49.1260604,26.0976347 49.1260511,27.0163959 48.8860784,27.8864259 L45.0684237,41.7274745 C43.9451655,45.7998885 40.763302,48.9816875 36.6908652,50.1048631 L22.8487714,53.9225041 C20.1867365,54.6566917 17.4335542,53.0938627 16.6993666,50.4318278 C16.4594115,49.5617928 16.4594208,48.6430317 16.6993936,47.7730016 L20.5170483,33.931953 C21.6403064,29.859539 24.82217,26.67774 28.8946067,25.5545644 Z" id="Rectangle-31-Copy-14" fill="url(#linearGradient-14)" transform="translate(32.792736, 37.829714) rotate(-315.000000) translate(-32.792736, -37.829714) "></path>
                                <path d="M28.4361094,26.5417207 L41.4290709,22.9582534 C44.0911049,22.2240627 46.8442891,23.7868885 47.5784798,26.4489225 C47.8184359,27.3189571 47.8184277,28.2377183 47.578456,29.1077487 L43.9949848,42.0998159 C42.8717315,46.1722312 39.6898717,49.354034 35.6174363,50.4772143 L22.6244747,54.0606816 C19.9624407,54.7948724 17.2092566,53.2320466 16.4750659,50.5700126 C16.2351097,49.6999779 16.235118,48.7812168 16.4750897,47.9111864 L20.0585608,34.9191192 C21.1818142,30.8467039 24.363674,27.6649011 28.4361094,26.5417207 Z" id="Rectangle-31-Copy-15" fill="url(#linearGradient-7)" transform="translate(32.026773, 38.509468) rotate(-315.000000) translate(-32.026773, -38.509468) "></path>
                            </g>
                            <g id="分组-2" transform="translate(260.707626, 73.349885)" fill-rule="nonzero">
                                <rect id="矩形" fill="url(#linearGradient-15)" x="0" y="2.82029305" width="9.9859172" height="36.6638097"></rect>
                                <ellipse id="椭圆形" fill="#75EAFF" cx="4.9929586" cy="3.2903419" rx="4.9929586" ry="3.2903419"></ellipse>
                            </g>
                            <g id="分组-2-copy" transform="translate(226.491740, 89.322171)" fill-rule="nonzero">
                                <rect id="矩形" fill="url(#linearGradient-15)" x="0" y="2.82427042" width="9.625" height="36.7155154"></rect>
                                <ellipse id="椭圆形" fill="#75EAFF" cx="4.8125" cy="3.29498215" rx="4.8125" ry="3.29498215"></ellipse>
                            </g>
                            <g id="分组-2-copy-3" transform="translate(82.785019, 122.407621)" fill-rule="nonzero">
                                <rect id="矩形" fill="url(#linearGradient-16)" x="0" y="2.82427042" width="9.625" height="36.7155154"></rect>
                                <ellipse id="椭圆形" fill="#61E7FF" cx="4.8125" cy="3.29498215" rx="4.8125" ry="3.29498215"></ellipse>
                            </g>
                            <g id="分组-2-copy-5" transform="translate(111.298258, 85.899538)" fill-rule="nonzero">
                                <rect id="矩形" fill="url(#linearGradient-16)" x="0" y="2.82427042" width="9.625" height="36.7155154"></rect>
                                <ellipse id="椭圆形" fill="#61E7FF" cx="4.8125" cy="3.29498215" rx="4.8125" ry="3.29498215"></ellipse>
                            </g>
                            <g id="分组-2-copy-4" transform="translate(109.017198, 138.379908)" fill-rule="nonzero">
                                <rect id="矩形" fill="url(#linearGradient-15)" x="0" y="2.82427042" width="9.625" height="36.7155154"></rect>
                                <ellipse id="椭圆形" fill="#75EAFF" cx="4.8125" cy="3.29498215" rx="4.8125" ry="3.29498215"></ellipse>
                            </g>
                            <g id="分组-13-copy-3" transform="translate(334.000000, 122.000000)">
                                <path d="M38.1061463,41.4209356 C38.1491576,42.6585482 37.8642707,43.9232308 37.2141344,45.0821812 C36.5913425,46.1923866 35.6776021,47.1117501 34.5712384,47.7413413 L26.375612,52.4051731 C22.7187572,54.4861557 18.2391353,54.4998969 14.5695825,52.4413882 L6.59701633,47.9690182 C3.85830071,46.4326811 2.55241452,43.3292614 3.1722488,40.4112318 L3.1722488,24.8888831 L38.2934609,24.8888831 L38.2934609,41.4209356 L38.1061463,41.4209356 Z" id="合并形状" fill="url(#linearGradient-12)"></path>
                                <path d="M17.714216,13.6603593 L27.2765532,11.0348083 C30.4719981,10.1574282 33.7736751,12.0365911 34.6510551,15.232036 C34.9344921,16.2643222 34.9365901,17.3536417 34.6571315,18.387012 L32.0229918,28.1274215 C30.913286,32.2308442 27.7155015,35.44097 23.6163836,36.5664734 L14.0540464,39.1920245 C10.8586015,40.0694045 7.55692447,38.1902416 6.67954444,34.9947967 C6.39610747,33.9625106 6.3940095,32.873191 6.67346813,31.8398207 L9.30760779,22.0994113 C10.4173136,17.9959885 13.6150981,14.7858627 17.714216,13.6603593 Z" id="Rectangle-31-Copy-13" fill="#F5FBFF" transform="translate(20.665300, 25.113416) rotate(-315.000000) translate(-20.665300, -25.113416) "></path>
                                <rect id="Rectangle-33-Copy" fill="url(#linearGradient-13)" x="8.94665958" y="1.04805054e-13" width="23.5723906" height="25.7185125"></rect>
                                <path d="M20.4126833,16.1996683 L24.2816168,15.1454437 C26.9459027,14.419467 29.6942535,15.990777 30.4202302,18.6550628 C30.6547509,19.5157384 30.6547417,20.4234845 30.4202034,21.2841552 L29.3660735,25.1524311 C28.2484364,29.2537552 25.0443985,32.4577278 20.9430518,33.5752814 L17.0741182,34.629506 C14.4098324,35.3554827 11.6614816,33.7841727 10.9355049,31.1198869 C10.7009841,30.2592114 10.7009933,29.3514652 10.9355316,28.4907945 L11.9896616,24.6225186 C13.1072987,20.5211946 16.3113365,17.3172219 20.4126833,16.1996683 Z" id="Rectangle-31-Copy-14" fill="url(#linearGradient-14)" transform="translate(20.677868, 24.887475) rotate(-315.000000) translate(-20.677868, -24.887475) "></path>
                                <path d="M20.1146448,16.8490977 L23.4274967,15.9463926 C26.0917816,15.2204127 28.8401343,16.7917195 29.5661141,19.4560044 C29.8006359,20.3166797 29.8006278,21.2244258 29.5660905,22.0850968 L28.6634745,25.3973868 C27.5458423,29.4987122 24.3418082,32.7026886 20.2404628,33.8202471 L16.9276109,34.7229522 C14.2633259,35.4489321 11.5149733,33.8776253 10.7889934,31.2133403 C10.5544716,30.3526651 10.5544798,29.444919 10.789017,28.584248 L11.6916331,25.271958 C12.8092653,21.1706326 16.0132993,17.9666562 20.1146448,16.8490977 Z" id="Rectangle-31-Copy-15" fill="url(#linearGradient-7)" transform="translate(20.177554, 25.334672) rotate(-315.000000) translate(-20.177554, -25.334672) "></path>
                            </g>
                            <g id="分组-13-copy-4" transform="translate(32.000000, 139.000000)">
                                <path d="M38.1061463,41.4209356 C38.1491576,42.6585482 37.8642707,43.9232308 37.2141344,45.0821812 C36.5913425,46.1923866 35.6776021,47.1117501 34.5712384,47.7413413 L26.375612,52.4051731 C22.7187572,54.4861557 18.2391353,54.4998969 14.5695825,52.4413882 L6.59701633,47.9690182 C3.85830071,46.4326811 2.55241452,43.3292614 3.1722488,40.4112318 L3.1722488,24.8888831 L38.2934609,24.8888831 L38.2934609,41.4209356 L38.1061463,41.4209356 Z" id="合并形状" fill="url(#linearGradient-12)"></path>
                                <path d="M17.714216,13.6603593 L27.2765532,11.0348083 C30.4719981,10.1574282 33.7736751,12.0365911 34.6510551,15.232036 C34.9344921,16.2643222 34.9365901,17.3536417 34.6571315,18.387012 L32.0229918,28.1274215 C30.913286,32.2308442 27.7155015,35.44097 23.6163836,36.5664734 L14.0540464,39.1920245 C10.8586015,40.0694045 7.55692447,38.1902416 6.67954444,34.9947967 C6.39610747,33.9625106 6.3940095,32.873191 6.67346813,31.8398207 L9.30760779,22.0994113 C10.4173136,17.9959885 13.6150981,14.7858627 17.714216,13.6603593 Z" id="Rectangle-31-Copy-13" fill="#F5FBFF" transform="translate(20.665300, 25.113416) rotate(-315.000000) translate(-20.665300, -25.113416) "></path>
                                <rect id="Rectangle-33-Copy" fill="url(#linearGradient-17)" x="8.94665958" y="1.04805054e-13" width="23.5723906" height="25.7185125"></rect>
                                <path d="M20.4126833,16.1996683 L24.2816168,15.1454437 C26.9459027,14.419467 29.6942535,15.990777 30.4202302,18.6550628 C30.6547509,19.5157384 30.6547417,20.4234845 30.4202034,21.2841552 L29.3660735,25.1524311 C28.2484364,29.2537552 25.0443985,32.4577278 20.9430518,33.5752814 L17.0741182,34.629506 C14.4098324,35.3554827 11.6614816,33.7841727 10.9355049,31.1198869 C10.7009841,30.2592114 10.7009933,29.3514652 10.9355316,28.4907945 L11.9896616,24.6225186 C13.1072987,20.5211946 16.3113365,17.3172219 20.4126833,16.1996683 Z" id="Rectangle-31-Copy-14" fill="url(#linearGradient-14)" transform="translate(20.677868, 24.887475) rotate(-315.000000) translate(-20.677868, -24.887475) "></path>
                                <path d="M20.1146448,16.8490977 L23.4274967,15.9463926 C26.0917816,15.2204127 28.8401343,16.7917195 29.5661141,19.4560044 C29.8006359,20.3166797 29.8006278,21.2244258 29.5660905,22.0850968 L28.6634745,25.3973868 C27.5458423,29.4987122 24.3418082,32.7026886 20.2404628,33.8202471 L16.9276109,34.7229522 C14.2633259,35.4489321 11.5149733,33.8776253 10.7889934,31.2133403 C10.5544716,30.3526651 10.5544798,29.444919 10.789017,28.584248 L11.6916331,25.271958 C12.8092653,21.1706326 16.0132993,17.9666562 20.1146448,16.8490977 Z" id="Rectangle-31-Copy-15" fill="url(#linearGradient-7)" transform="translate(20.177554, 25.334672) rotate(-315.000000) translate(-20.177554, -25.334672) "></path>
                            </g>
                            <g id="分组-13-copy-6" transform="translate(174.000000, 0.000000)">
                                <path d="M38.1061463,41.4209356 C38.1491576,42.6585482 37.8642707,43.9232308 37.2141344,45.0821812 C36.5913425,46.1923866 35.6776021,47.1117501 34.5712384,47.7413413 L26.375612,52.4051731 C22.7187572,54.4861557 18.2391353,54.4998969 14.5695825,52.4413882 L6.59701633,47.9690182 C3.85830071,46.4326811 2.55241452,43.3292614 3.1722488,40.4112318 L3.1722488,24.8888831 L38.2934609,24.8888831 L38.2934609,41.4209356 L38.1061463,41.4209356 Z" id="合并形状" fill="url(#linearGradient-12)"></path>
                                <path d="M17.714216,13.6603593 L27.2765532,11.0348083 C30.4719981,10.1574282 33.7736751,12.0365911 34.6510551,15.232036 C34.9344921,16.2643222 34.9365901,17.3536417 34.6571315,18.387012 L32.0229918,28.1274215 C30.913286,32.2308442 27.7155015,35.44097 23.6163836,36.5664734 L14.0540464,39.1920245 C10.8586015,40.0694045 7.55692447,38.1902416 6.67954444,34.9947967 C6.39610747,33.9625106 6.3940095,32.873191 6.67346813,31.8398207 L9.30760779,22.0994113 C10.4173136,17.9959885 13.6150981,14.7858627 17.714216,13.6603593 Z" id="Rectangle-31-Copy-13" fill="#F5FBFF" transform="translate(20.665300, 25.113416) rotate(-315.000000) translate(-20.665300, -25.113416) "></path>
                                <rect id="Rectangle-33-Copy" fill="url(#linearGradient-17)" x="8.94665958" y="1.04805054e-13" width="23.5723906" height="25.7185125"></rect>
                                <path d="M20.4126833,16.1996683 L24.2816168,15.1454437 C26.9459027,14.419467 29.6942535,15.990777 30.4202302,18.6550628 C30.6547509,19.5157384 30.6547417,20.4234845 30.4202034,21.2841552 L29.3660735,25.1524311 C28.2484364,29.2537552 25.0443985,32.4577278 20.9430518,33.5752814 L17.0741182,34.629506 C14.4098324,35.3554827 11.6614816,33.7841727 10.9355049,31.1198869 C10.7009841,30.2592114 10.7009933,29.3514652 10.9355316,28.4907945 L11.9896616,24.6225186 C13.1072987,20.5211946 16.3113365,17.3172219 20.4126833,16.1996683 Z" id="Rectangle-31-Copy-14" fill="url(#linearGradient-14)" transform="translate(20.677868, 24.887475) rotate(-315.000000) translate(-20.677868, -24.887475) "></path>
                                <path d="M20.1146448,16.8490977 L23.4274967,15.9463926 C26.0917816,15.2204127 28.8401343,16.7917195 29.5661141,19.4560044 C29.8006359,20.3166797 29.8006278,21.2244258 29.5660905,22.0850968 L28.6634745,25.3973868 C27.5458423,29.4987122 24.3418082,32.7026886 20.2404628,33.8202471 L16.9276109,34.7229522 C14.2633259,35.4489321 11.5149733,33.8776253 10.7889934,31.2133403 C10.5544716,30.3526651 10.5544798,29.444919 10.789017,28.584248 L11.6916331,25.271958 C12.8092653,21.1706326 16.0132993,17.9666562 20.1146448,16.8490977 Z" id="Rectangle-31-Copy-15" fill="url(#linearGradient-7)" transform="translate(20.177554, 25.334672) rotate(-315.000000) translate(-20.177554, -25.334672) "></path>
                            </g>
                            <g id="分组-15" transform="translate(22.336954, 188.437644)">
                                <polygon id="Rectangle-31-Copy-9" fill="#D7F1FF" transform="translate(5.160179, 5.274138) rotate(-315.000000) translate(-5.160179, -5.274138) " points="3.15371372 3.23555765 8.7704804 1.60762317 7.16664367 7.31271748 1.54987699 8.94065196"></polygon>
                                <polygon id="Rectangle-35" fill="#2CB3FC" points="0 5.22456435 5.18518519 8.10990007 5.18518519 12.8500945 0 9.96475875"></polygon>
                                <polygon id="Rectangle-35-Copy" fill="#70CDFF" transform="translate(7.777778, 9.037329) scale(-1, 1) translate(-7.777778, -9.037329) " points="5.18518519 5.22456435 10.3703704 8.10990007 10.3703704 12.8500945 5.18518519 9.96475875"></polygon>
                            </g>
                            <g id="分组-15-copy-4" transform="translate(79.363431, 193.001155)">
                                <polygon id="Rectangle-31-Copy-9" fill="#D7F1FF" transform="translate(5.160179, 5.274138) rotate(-315.000000) translate(-5.160179, -5.274138) " points="3.15371372 3.23555765 8.7704804 1.60762317 7.16664367 7.31271748 1.54987699 8.94065196"></polygon>
                                <polygon id="Rectangle-35" fill="#2CB3FC" points="0 5.22456435 5.18518519 8.10990007 5.18518519 12.8500945 0 9.96475875"></polygon>
                                <polygon id="Rectangle-35-Copy" fill="#70CDFF" transform="translate(7.777778, 9.037329) scale(-1, 1) translate(-7.777778, -9.037329) " points="5.18518519 5.22456435 10.3703704 8.10990007 10.3703704 12.8500945 5.18518519 9.96475875"></polygon>
                            </g>
                            <g id="分组-15-copy" transform="translate(51.990722, 277.426097)">
                                <polygon id="Rectangle-31-Copy-9" fill="#D7F1FF" transform="translate(5.160179, 5.274138) rotate(-315.000000) translate(-5.160179, -5.274138) " points="3.15371372 3.23555765 8.7704804 1.60762317 7.16664367 7.31271748 1.54987699 8.94065196"></polygon>
                                <polygon id="Rectangle-35" fill="#2CB3FC" points="0 5.22456435 5.18518519 8.10990007 5.18518519 12.8500945 0 9.96475875"></polygon>
                                <polygon id="Rectangle-35-Copy" fill="#70CDFF" transform="translate(7.777778, 9.037329) scale(-1, 1) translate(-7.777778, -9.037329) " points="5.18518519 5.22456435 10.3703704 8.10990007 10.3703704 12.8500945 5.18518519 9.96475875"></polygon>
                            </g>
                            <g id="分组-15-copy-2" transform="translate(266.410274, 134.816397)">
                                <polygon id="Rectangle-31-Copy-9" fill="#D7F1FF" transform="translate(5.160179, 5.274138) rotate(-315.000000) translate(-5.160179, -5.274138) " points="3.15371372 3.23555765 8.7704804 1.60762317 7.16664367 7.31271748 1.54987699 8.94065196"></polygon>
                                <polygon id="Rectangle-35" fill="#2CB3FC" points="0 5.22456435 5.18518519 8.10990007 5.18518519 12.8500945 0 9.96475875"></polygon>
                                <polygon id="Rectangle-35-Copy" fill="#70CDFF" transform="translate(7.777778, 9.037329) scale(-1, 1) translate(-7.777778, -9.037329) " points="5.18518519 5.22456435 10.3703704 8.10990007 10.3703704 12.8500945 5.18518519 9.96475875"></polygon>
                            </g>
                            <g id="分组-15-copy-5" transform="translate(316.593573, 134.816397)">
                                <polygon id="Rectangle-31-Copy-9" fill="#D7F1FF" transform="translate(5.160179, 5.274138) rotate(-315.000000) translate(-5.160179, -5.274138) " points="3.15371372 3.23555765 8.7704804 1.60762317 7.16664367 7.31271748 1.54987699 8.94065196"></polygon>
                                <polygon id="Rectangle-35" fill="#2CB3FC" points="0 5.22456435 5.18518519 8.10990007 5.18518519 12.8500945 0 9.96475875"></polygon>
                                <polygon id="Rectangle-35-Copy" fill="#70CDFF" transform="translate(7.777778, 9.037329) scale(-1, 1) translate(-7.777778, -9.037329) " points="5.18518519 5.22456435 10.3703704 8.10990007 10.3703704 12.8500945 5.18518519 9.96475875"></polygon>
                            </g>
                            <g id="分组-15-copy-3" transform="translate(143.233084, 64.081986)">
                                <polygon id="Rectangle-31-Copy-9" fill="#D7F1FF" transform="translate(5.160179, 5.274138) rotate(-315.000000) translate(-5.160179, -5.274138) " points="3.15371372 3.23555765 8.7704804 1.60762317 7.16664367 7.31271748 1.54987699 8.94065196"></polygon>
                                <polygon id="Rectangle-35" fill="#2CB3FC" points="0 5.22456435 5.18518519 8.10990007 5.18518519 12.8500945 0 9.96475875"></polygon>
                                <polygon id="Rectangle-35-Copy" fill="#70CDFF" transform="translate(7.777778, 9.037329) scale(-1, 1) translate(-7.777778, -9.037329) " points="5.18518519 5.22456435 10.3703704 8.10990007 10.3703704 12.8500945 5.18518519 9.96475875"></polygon>
                            </g>
                        </g>
                    </g>
                </g>
            </g>
        </g>
    </g>
</svg>