<?xml version="1.0" encoding="UTF-8"?>
<svg width="22px" height="22px" viewBox="0 0 22 22" version="1.1" xmlns="http://www.w3.org/2000/svg" xmlns:xlink="http://www.w3.org/1999/xlink">
    <!-- Generator: Sketch 52.4 (67378) - http://www.bohemiancoding.com/sketch -->
    <title>详情</title>
    <desc>Created with Sketch.</desc>
    <g id="详情" stroke="none" stroke-width="1" fill="none" fill-rule="evenodd">
        <path d="M2.44444445,14 C3.7888889,14 4.8888889,12.875 4.8888889,11.5 C4.8888889,10.125 3.7888889,9 2.44444445,9 C1.1,9 0,10.125 0,11.5 C0,12.875 1.1,14 2.44444445,14 Z M11,14 C12.3444444,14 13.4444444,12.875 13.4444444,11.5 C13.4444444,10.125 12.3444444,9 11,9 C9.65555555,9 8.55555555,10.125 8.55555555,11.5 C8.55555555,12.875 9.65555555,14 11,14 Z M19.5555556,14 C20.9,14 22,12.875 22,11.5 C22,10.125 20.9,9 19.5555556,9 C18.2111111,9 17.1111111,10.125 17.1111111,11.5 C17.1111111,12.875 18.2111111,14 19.5555556,14 Z" id="形状" fill="#32B2F7" fill-rule="nonzero"></path>
    </g>
</svg>