<?xml version="1.0" encoding="UTF-8"?>
<svg width="40px" height="40px" viewBox="0 0 40 40" version="1.1" xmlns="http://www.w3.org/2000/svg" xmlns:xlink="http://www.w3.org/1999/xlink">
    <!-- Generator: Sketch 52.4 (67378) - http://www.bohemiancoding.com/sketch -->
    <title>合并转发</title>
    <desc>Created with Sketch.</desc>
    <defs>
        <path d="M23.4304852,11.3784 L16.4580365,4.68779478 C15.2933009,3.57014087 13.3571739,4.39558435 13.3571739,6.00982957 L13.3571739,8.75597739 C8.38678435,9.39165391 4.35167217,13.3165461 3.16928765,18.0816683 C2.89741722,19.1773205 4.10831217,19.9598583 5.05720487,19.3484155 C7.16489217,17.9903019 9.59046261,16.3891466 13.3571739,16.0617078 L13.3571739,19.3910739 C13.3571739,21.0053173 15.2933009,21.830797 16.4580365,20.7131437 L23.4304852,14.0224643 C24.1820035,13.3013374 24.1820035,12.0995687 23.4304852,11.3784 Z" id="path-1"></path>
        <path d="M1.04347826,3.13043478 L9.39130435,3.13043478 C9.96760174,3.13043478 10.4347826,3.59761565 10.4347826,4.17391304 C10.4347826,4.75021043 9.96760174,5.2173913 9.39130435,5.2173913 L1.04347826,5.2173913 C0.46718113,5.2173913 1.97175609e-13,4.75021043 1.97175609e-13,4.17391304 C1.97175609e-13,3.59761565 0.46718113,3.13043478 1.04347826,3.13043478 Z" id="path-3"></path>
        <path d="M1.04347826,6.66133815e-16 L9.39130435,6.66133815e-16 C9.96760174,6.66133815e-16 10.4347826,0.46718087 10.4347826,1.04347826 C10.4347826,1.61977565 9.96760174,2.08695652 9.39130435,2.08695652 L1.04347826,2.08695652 C0.46718113,2.08695652 1.97175609e-13,1.61977565 1.97175609e-13,1.04347826 C1.97175609e-13,0.46718087 0.46718113,6.66133815e-16 1.04347826,6.66133815e-16 Z" id="path-5"></path>
        <path d="M1.04347826,6.26086957 L5.73913043,6.26086957 C6.31542783,6.26086957 6.7826087,6.72805043 6.7826087,7.30434783 C6.7826087,7.88064522 6.31542783,8.34782609 5.73913043,8.34782609 L1.04347826,8.34782609 C0.46718113,8.34782609 -9.85878046e-14,7.88064522 -9.85878046e-14,7.30434783 C-9.85878046e-14,6.72805043 0.46718113,6.26086957 1.04347826,6.26086957 Z" id="path-7"></path>
    </defs>
    <g id="合并转发" stroke="none" stroke-width="1" fill="none" fill-rule="evenodd">
        <circle id="椭圆形-copy" fill="#E5F7F0" fill-rule="nonzero" cx="20" cy="20" r="20"></circle>
        <g id="分组" transform="translate(9.000000, 10.000000)">
            <mask id="mask-2" fill="white">
                <use xlink:href="#path-1"></use>
            </mask>
            <use id="Clip-2" fill="#62DEAD" xlink:href="#path-1"></use>
            <mask id="mask-4" fill="white">
                <use xlink:href="#path-3"></use>
            </mask>
            <use id="Clip-4" fill="#62DEAD" xlink:href="#path-3"></use>
            <mask id="mask-6" fill="white">
                <use xlink:href="#path-5"></use>
            </mask>
            <use id="Clip-6" fill="#62DEAD" xlink:href="#path-5"></use>
            <mask id="mask-8" fill="white">
                <use xlink:href="#path-7"></use>
            </mask>
            <use id="Clip-8" fill="#62DEAD" xlink:href="#path-7"></use>
        </g>
    </g>
</svg>