<?xml version="1.0" encoding="UTF-8"?>
<svg width="40px" height="40px" viewBox="0 0 40 40" version="1.1" xmlns="http://www.w3.org/2000/svg" xmlns:xlink="http://www.w3.org/1999/xlink">
    <!-- Generator: Sketch 52.4 (67378) - http://www.bohemiancoding.com/sketch -->
    <title>删除</title>
    <desc>Created with Sketch.</desc>
    <defs>
        <path d="M18.022953,1.96920216 L12.616667,1.96920216 C12.6430135,1.89224378 12.6579378,1.80996378 12.6579378,1.72406865 L12.6579378,1.33023297 C12.6579378,0.911293514 12.3182816,0.571637297 11.8992946,0.571637297 L7.11514486,0.571637297 C6.69620541,0.571637297 6.35654919,0.911293514 6.35654919,1.33023297 L6.35654919,1.72406865 C6.35654919,1.80996378 6.37147351,1.89224378 6.39782,1.96920216 L0.991534649,1.96920216 C0.463818924,1.96920216 0.0359958411,2.39702486 0.0359958411,2.92473946 C0.0359958411,3.45245405 0.463818924,3.8802827 0.991534649,3.8802827 L18.022953,3.8802827 C18.5506676,3.8802827 18.9784903,3.45245405 18.9784903,2.92473946 C18.9784903,2.39702486 18.5506676,1.96920216 18.022953,1.96920216 Z" id="path-1"></path>
        <path d="M12.2497665,11.9418075 C12.2497665,12.264315 11.9859389,12.5282502 11.6633773,12.5282502 C11.3408216,12.5282502 11.0769881,12.264315 11.0769881,11.9418075 L11.0769881,4.39175892 C11.0769881,4.06925081 11.3408216,3.80536973 11.6633773,3.80536973 C11.9859389,3.80536973 12.2497665,4.06925081 12.2497665,4.39175892 L12.2497665,11.9418075 Z M8.49444973,11.9418075 C8.49444973,12.264315 8.23056865,12.5282502 7.90800703,12.5282502 C7.58549892,12.5282502 7.32161784,12.264315 7.32161784,11.9418075 L7.32161784,4.39175892 C7.32161784,4.06925081 7.58549892,3.80536973 7.90800703,3.80536973 C8.23056865,3.80536973 8.49444973,4.06925081 8.49444973,4.39175892 L8.49444973,11.9418075 Z M4.73907946,11.9418075 C4.73907946,12.264315 4.47519838,12.5282502 4.15268908,12.5282502 C3.83013043,12.5282502 3.56624697,12.264315 3.56624697,11.9418075 L3.56624697,4.39175892 C3.56624697,4.06925081 3.83013043,3.80536973 4.15268908,3.80536973 C4.47519838,3.80536973 4.73907946,4.06925081 4.73907946,4.39175892 L4.73907946,11.9418075 Z M14.7127319,0.237903243 L1.1033327,0.237903243 C0.575617514,0.237903243 0.147794216,0.665725946 0.147794216,1.19344649 L0.147794216,12.887223 C0.147794216,15.0241686 1.88015984,16.7565346 4.01710605,16.7565346 L11.7989627,16.7565346 C13.9359595,16.7565346 15.6682751,15.0241686 15.6682751,12.887223 L15.6682751,1.19344649 C15.6682751,0.665725946 15.2403989,0.237903243 14.7127319,0.237903243 Z" id="path-3"></path>
    </defs>
    <g id="删除" stroke="none" stroke-width="1" fill="none" fill-rule="evenodd">
        <circle id="椭圆形-copy-3" fill="#EAF6FF" fill-rule="nonzero" cx="20" cy="20" r="20"></circle>
        <g id="分组" transform="translate(10.000000, 9.000000)">
            <g>
                <mask id="mask-2" fill="white">
                    <use xlink:href="#path-1"></use>
                </mask>
                <g id="Clip-2"></g>
                <polygon id="Fill-1" fill="#61C7FF" mask="url(#mask-2)" points="-2.93697741 -2.40133568 21.9514632 -2.40133568 21.9514632 6.85325568 -2.93697741 6.85325568"></polygon>
            </g>
            <g transform="translate(1.783784, 4.756757)">
                <mask id="mask-4" fill="white">
                    <use xlink:href="#path-3"></use>
                </mask>
                <g id="Clip-4"></g>
                <polygon id="Fill-3" fill="#61C7FF" mask="url(#mask-4)" points="-2.82517876 -2.73506973 18.6412481 -2.73506973 18.6412481 19.7295078 -2.82517876 19.7295078"></polygon>
            </g>
        </g>
    </g>
</svg>