<?xml version="1.0" encoding="UTF-8"?>
<svg width="14px" height="14px" viewBox="0 0 14 14" version="1.1" xmlns="http://www.w3.org/2000/svg" xmlns:xlink="http://www.w3.org/1999/xlink">
    <!-- Generator: Sketch 52.4 (67378) - http://www.bohemiancoding.com/sketch -->
    <title>免打扰</title>
    <desc>Created with Sketch.</desc>
    <defs>
        <path d="M7.8334213,12.3513375 C7.8334213,13.0482659 7.29374033,13.587833 6.59661186,13.587833 C5.89947927,13.587833 5.35971171,13.0482659 5.35971171,12.3513375 L7.8334213,12.3513375 Z M2.19034469,9.44184724 L2.19034469,5.89223151 C2.19034469,5.41371602 2.26736282,4.95275464 2.40896702,4.52019968 L9.48256103,11.5270072 L0.82457747,11.5270072 L0.82457747,10.8319929 L2.19034469,9.44184724 Z M11.779252,11.2457391 L14,13.4508816 L13.446994,14 L0,0.647516544 L0.553023527,0.0984012808 L3.35625679,2.88193389 C3.95966382,2.19853522 4.77021847,1.70173195 5.68072088,1.49135462 L5.68072088,1.0320419 C5.68072088,0.379275343 6.22841668,-0.128367863 6.89797565,0.0287865871 C7.36055934,0.125501139 7.62832192,0.560623887 7.62832192,1.0441307 L7.62832192,1.47924933 C9.56383063,1.93858266 11.0488686,3.67914372 11.0488686,5.75810473 L11.0488686,9.21502864 L12.3757169,10.5688741 L12.3757169,11.2457391 L11.779252,11.2457391 Z" id="path-1"></path>
    </defs>
    <g id="聊天" stroke="none" stroke-width="1" fill="none" fill-rule="evenodd">
        <g id="群聊消息" transform="translate(-316.000000, -357.000000)">
            <g id="免打扰" transform="translate(316.000000, 357.000000)">
                <mask id="mask-2" fill="white">
                    <use xlink:href="#path-1"></use>
                </mask>
                <use id="Clip-2" fill="#DAE1E7" fill-rule="evenodd" transform="translate(7.000000, 7.000000) scale(-1, 1) translate(-7.000000, -7.000000) " xlink:href="#path-1"></use>
            </g>
        </g>
    </g>
</svg>