<?xml version="1.0" encoding="UTF-8"?>
<svg width="188px" height="155px" viewBox="0 0 188 155" version="1.1" xmlns="http://www.w3.org/2000/svg" xmlns:xlink="http://www.w3.org/1999/xlink">
    <!-- Generator: Sketch 52.4 (67378) - http://www.bohemiancoding.com/sketch -->
    <title>分组 12</title>
    <desc>Created with Sketch.</desc>
    <defs>
        <path d="M41.2448447,5.50165657 C52.2814493,-3.25159596 135.316977,-2.41515152 156.056894,14.2549091 C176.796812,30.9250101 162.671843,41.0559192 163.763934,47.7563636 C164.856025,54.4568485 177.889814,51.2088485 177.889814,72.6570505 C177.889814,94.1052242 160.052215,105.38901 140.455901,108.052626 C120.859586,110.716242 118.237267,101.260493 97.3781366,105.38901 C76.5189648,109.517527 79.4023188,122.380798 47.2987992,115.216711 C15.1952878,108.052626 -0.960347826,112.161749 0.0441283644,68.5911111 C1.04860455,25.0204444 18.9440124,36.9785051 29.4404141,28.046303 C39.936853,19.1141414 30.2082402,14.2549091 41.2448447,5.50165657 Z" id="path-1"></path>
        <path d="M0,28.7624242 C13.0200828,28.4797576 21.8212836,26.2964444 26.4035611,22.2124848 C30.9858799,18.1285657 36.506501,10.724404 42.965383,0 L80.3312629,0 C75.1626501,15.5761616 68.4286542,26.9163636 60.1292754,34.0206061 C51.8298965,41.1248485 42.8190062,45.2728889 33.096646,46.4646465 L0,28.7624242 Z" id="path-3"></path>
        <linearGradient x1="44.4444444%" y1="36.015625%" x2="44.4444444%" y2="116.015625%" id="linearGradient-5">
            <stop stop-color="#C1E9FF" offset="0%"></stop>
            <stop stop-color="#86D5FF" offset="100%"></stop>
        </linearGradient>
        <path d="M0,28.7624242 C13.0200828,28.4797576 21.8212836,26.2964444 26.4035611,22.2124848 C30.9858799,18.1285657 36.506501,10.724404 42.965383,0 L80.3312629,0 C75.1626501,15.5761616 68.4286542,26.9163636 60.1292754,34.0206061 C51.8298965,41.1248485 42.8190062,45.2728889 33.096646,46.4646465 L0,28.7624242 Z" id="path-6"></path>
        <linearGradient x1="59.4428611%" y1="38.1394711%" x2="57.9166667%" y2="45%" id="linearGradient-8">
            <stop stop-color="#C1E9FF" offset="0%"></stop>
            <stop stop-color="#86D5FF" offset="100%"></stop>
        </linearGradient>
        <path d="M0,4.77163636 C12.9962733,0.556565657 24.0610766,-0.865939394 33.1944513,0.504121212 C42.3278261,1.87414141 50.0345756,7.24424242 56.3146998,16.6144242 L11.4641408,17.3737374 C11.4641408,15.4871919 10.9780952,13.7646869 10.0060455,12.2062222 C9.03399586,10.6477172 5.69863354,8.16953535 0,4.77163636 Z" id="path-9"></path>
        <linearGradient x1="36.6666667%" y1="37.421875%" x2="36.6666667%" y2="117.421875%" id="linearGradient-11">
            <stop stop-color="#B5E5FF" offset="0%"></stop>
            <stop stop-color="#A0DEFF" offset="100%"></stop>
        </linearGradient>
        <path d="M0,4.77163636 C12.9962733,0.556565657 24.0610766,-0.865939394 33.1944513,0.504121212 C42.3278261,1.87414141 50.0345756,7.24424242 56.3146998,16.6144242 L11.4641408,17.3737374 C11.4641408,15.4871919 10.9780952,13.7646869 10.0060455,12.2062222 C9.03399586,10.6477172 5.69863354,8.16953535 0,4.77163636 Z" id="path-12"></path>
        <linearGradient x1="47.5084889%" y1="40.5205492%" x2="46.1111111%" y2="37.7773357%" id="linearGradient-14">
            <stop stop-color="#B5E5FF" offset="0%"></stop>
            <stop stop-color="#A0DEFF" offset="100%"></stop>
        </linearGradient>
        <path d="M36.3367288,80.4040404 C33.6596687,77.8352727 32.7673292,75.3492929 33.6596687,72.9461414 C34.9982195,69.3413333 38.8881988,69.5523636 38.8881988,64.9712727 C38.8881988,60.3901414 24.9218219,64.336 19.5960663,62.88 C14.270352,61.4240404 5.03987992,55.9251717 0.889391304,44.9999596 C-3.26109731,34.0747879 8.22920083,10.568 12.4321325,8.07066667 C15.2340787,6.40573737 28.4813251,3.71555556 52.173913,0 C30.7713872,11.9902626 20.5510559,24.8311515 21.5129607,38.5226667 C22.9557764,59.0599192 33.5648033,55.2398384 38.8881988,59.0599192 C44.2115942,62.88 42.778882,70.3615354 39.8125052,72.4346667 C38.1167702,73.6197576 35.2060041,74.2089697 35.5319669,77.0173333 C35.5680745,77.3285657 35.8363561,78.4574545 36.3367288,80.4040404 Z" id="path-15"></path>
        <path d="M0,1.24783838 L44.0755694,0 C44.6299379,7.6140202 46.7402899,13.5276768 50.4066667,17.7410101 C54.0730435,21.9543838 60.7352795,19.8203636 70.3933747,11.3389899 C59.587412,26.2905455 46.2829814,33.4031515 30.48,32.6768081 C14.67706,31.9504242 4.51706004,21.474101 0,1.24783838 Z" id="path-17"></path>
        <polygon id="path-19" points="0 9.09737374 6.44012422 0 11.5942029 10.7678788 6.0126294 21.8181818 2.56269151 20.7134949"></polygon>
        <path d="M5.94024845,0 C6.46207039,1.63389899 6.23010352,3.09074747 5.24434783,4.37050505 C4.25859213,5.65030303 3.26310559,6.75236364 2.25784679,7.67676768 L0,5.39886869 L5.94024845,0 Z" id="path-21"></path>
        <path d="M0.557308489,11.1440808 C4.04364389,3.71470707 7.70761905,0 11.5491925,0 C17.3115528,0 19.7313458,9.26492929 16.065176,18.1546667 C12.3990476,27.044404 5.12178054,26.3585455 2.02915114,25.1652929 C-0.0325879917,24.3697778 -0.523188406,19.6960404 0.557308489,11.1440808 Z" id="path-23"></path>
        <path d="M6.38915114,0 C7.10182195,6.00731313 9.19287785,9.48650505 12.662236,10.4374949 C17.8663354,11.864 20.5602484,11.9866263 21.7215321,15.7098586 C22.495735,18.192 21.2686542,20.9014949 18.040207,23.8383838 L5.1489441,18.008404 L0,8.65369697 L6.38915114,0 Z" id="path-25"></path>
        <path d="M11.5942029,0 L9.69623188,12.5778586 L6.35643892,18.1818182 L0,15.3356768 C1.66016563,12.5962424 3.08488613,10.3125253 4.27428571,8.48460606 C5.46364389,6.65668687 7.90360248,3.82848485 11.5942029,0 Z" id="path-27"></path>
        <path d="M0.985921325,16.1434343 C1.94219462,15.3968889 3.49465839,15.0236364 5.64331263,15.0236364 C7.79192547,15.0236364 10.9216563,16.4673939 15.0324638,19.3549495 C15.1092754,17.2917172 15.4104762,15.4787879 15.9361491,13.9161616 C16.4618219,12.3535354 17.1785093,10.5271111 18.0862112,8.4369697 L17.4869151,2.60040404 L26.5450932,0 L25.6147826,8.4369697 C27.8216563,13.2290505 29.0775983,16.6844444 29.3826087,18.8031111 C29.8401242,21.9811313 30.2263354,25.7972081 28.9250932,27.6097495 C28.0575983,28.8181091 18.4159006,30.6586303 0,33.1313131 L0.985921325,16.1434343 Z" id="path-29"></path>
        <path d="M17.447412,0 L19.8724638,2.4050101 C19.3930021,4.34161616 19.3930021,5.93026263 19.8724638,7.17086869 C20.3518841,8.41147475 21.2035197,9.66230303 22.4272878,10.9232727 L28.9934161,0 L43.3727536,7.17086869 L48.2776812,7.59652525 C50.6268323,10.9729293 51.4164803,14.1100606 50.6466667,17.0079394 C49.876853,19.905798 48.6350725,22.4690626 46.9213665,24.6977293 L26.5084472,27.5643758 C25.3788406,28.8514263 24.5527536,29.4949495 24.0301449,29.4949495 C23.2462526,29.4949495 18.3768944,26.7637414 16.8915528,26.7637414 C15.4062526,26.7637414 9.77428571,24.6253657 7.89681159,23.2880121 C6.64517598,22.3964404 4.01291925,20.3030828 0,17.0079394 L1.44033126,14.7474747 L6.85296066,16.1190747 L8.98919255,13.8928485 C9.18960663,11.2692121 9.6221118,8.88836364 10.2867495,6.75022222 C10.9513458,4.61212121 11.8602899,2.50549495 13.0135818,0.43030303 L17.447412,0 Z" id="path-31"></path>
        <path d="M10.7660455,10.5050505 C10.6041408,10.4707192 10.4608282,10.4520121 10.340207,10.4520121 C9.39954451,10.4520121 6.76749482,9.56117576 4.51975155,8.56819394 L0,0 L0.479213251,0 C3.35291925,3.64910303 5.21184265,5.82184242 6.05594203,6.51821414 C6.88248447,7.20009293 8.45250518,8.52903838 10.7660455,10.5050505 Z" id="path-33"></path>
        <path d="M16.2607867,12.0885657 C14.2872464,11.0812121 9.3894824,18.7887273 9.3894824,20.0210505 C9.3894824,21.2533737 10.3154865,21.237697 10.3154865,23.3467071 C10.3154865,25.4557172 9.3894824,27.9604444 10.3154865,30.1170101 C10.9328364,31.5547475 12.053913,32.2105859 13.6787578,32.0845657 L6.20554865,40.6780606 C3.61055901,47.1202424 1.63010352,48.6006141 0.264140787,45.1192323 C-1.7847619,39.8971717 8.7584265,33.2078384 8.7584265,25.269899 C8.7584265,17.3319192 2.64132505,9.38141414 12.21147,2.81709091 C21.7815735,-3.74723232 31.3018219,2.20440404 33.6313872,9.98715152 C35.9609524,17.769899 31.3018219,23.9153131 31.3018219,26.6706667 C31.3018219,29.4260202 33.4026915,29.2229495 38.8280745,29.2229495 C44.2534576,29.2229495 44.9180952,33.4009293 43.9148654,42.3388283 C42.9116356,51.2767475 35.6865424,56.3232848 35.6865424,58.0888202 C35.6865424,59.2658424 38.4293168,60.9723919 43.9148654,63.2084646 C36.8115528,63.7140889 32.5082816,63.3708444 31.0051346,62.1787394 C28.7503934,60.3905778 32.5028157,54.0413778 32.5028157,47.2815232 C32.5028157,41.3892929 22.0662112,18.1124444 17.9185093,12.476202 C17.3077433,11.6462626 16.9564803,12.4436768 16.2607867,12.0885657 Z" id="path-35"></path>
        <path d="M3.40393375,8.88888889 L0,5.40020202 C3.41192547,2.52545455 5.4189234,0.881212121 6.0210352,0.467474747 C6.92418219,-0.153171717 8.2815735,-0.158464646 8.2815735,0.467474747 C8.2815735,1.09341414 6.0210352,4.95280808 6.0210352,5.92246465 C6.0210352,6.56892929 6.0210352,7.34743434 6.0210352,8.2580202 L3.40393375,8.88888889 Z" id="path-37"></path>
        <path d="M0.545838509,8.48484848 C0,5.56379798 -0.136438923,3.84012121 0.136438923,3.31373737 C0.545838509,2.52420202 9.45022774,-0.657333333 9.90339545,0.121858586 C10.2055072,0.641333333 8.52277433,2.98662626 4.85515528,7.15769697 L0.545838509,8.48484848 Z" id="path-39"></path>
        <polygon id="path-41" points="0 2.52638384 12.0688199 0 12.8364389 16.4608485 5.9615735 17.7777778"></polygon>
        <path d="M14.9068323,13.5745051 L13.458882,15.0525818 C9.88356108,12.9463838 7.73084886,11.685697 7.00078675,11.2705859 C5.90563147,10.6478384 5.84968944,10.8503434 5.84968944,11.8932929 C5.84968944,12.5885657 6.37337474,13.4922828 7.42070393,14.604404 L6.38745342,15.7575758 C2.47693582,11.8315556 0.416521739,9.60856566 0.206252588,9.08860606 C-0.109151139,8.30864646 -0.106086957,3.85515152 0.521656315,3.85515152 C1.14939959,3.85515152 2.08832298,6.78727273 2.54455487,6.45927273 C3.00074534,6.13131313 0.161118012,3.45381818 0.521656315,2.66020202 C0.882194617,1.86658586 1.42563147,3.064 1.77821946,2.94032323 C2.13076605,2.81660606 1.04364389,1.74315152 1.77821946,1.23725253 C2.51275362,0.731393939 4.63089027,6.11927273 5.32298137,5.74513131 C6.01511387,5.3709899 3.4805383,1.31147475 3.2900207,0.80759596 C3.09950311,0.303757576 3.2900207,0 3.91776398,0 C4.54550725,0 7.14070393,4.50060606 7.42070393,4.97624242 C7.70070393,5.45191919 8.26360248,6.16125253 9.19113872,5.74513131 C10.1187164,5.3290101 8.69109731,3.67890909 8.69109731,2.94032323 C8.69109731,2.20173737 8.69109731,1.56771717 9.44968944,1.56771717 C10.2082402,1.56771717 12.4135818,5.60610101 12.9002484,6.68173737 C13.3868737,7.75737374 13.458882,10.4701414 13.458882,11.2705859 C13.458882,11.804202 13.9415321,12.5721616 14.9068323,13.5745051 Z" id="path-43"></path>
        <path d="M0,5.59405253 L7.86749482,0 C6.6063354,1.46052525 5.52753623,2.59414141 4.63113872,3.40084848 C3.7347412,4.20753535 3.0247205,5.2288 2.5010352,6.46464646 L0,5.59405253 Z" id="path-45"></path>
        <path d="M4.9689441,14.1414141 L0,12.0574545 L0.398343685,0 C1.10339545,3.54432323 1.61329193,6.00852525 1.92811594,7.39264646 C2.24293996,8.77672727 3.25656315,11.0263434 4.9689441,14.1414141 Z" id="path-47"></path>
        <polygon id="path-49" points="0.686086957 0 4.9689441 4.10141414 4.9689441 6.86868687 0 0.172363636"></polygon>
        <polygon id="path-51" points="3.09498965 0.266181818 9.9378882 0 7.02198758 6.46464646 0 6.46464646"></polygon>
        <polygon id="path-53" points="0 0 6.55122153 0 6.55122153 7.12541414 0 7.12541414"></polygon>
        <polygon id="path-55" points="0.195776398 0.739070707 9.27875776 0.393939394 12.6508903 8.42307071 3.48115942 8.76432323"></polygon>
        <polygon id="path-57" points="0.16 0.232929293 6.14749482 0 6.03925466 0.938060606 0 1.19115152"></polygon>
        <polygon id="path-59" points="0.154202899 0.211474747 7.79813665 0 7.69569358 0.982222222 0 1.21385859"></polygon>
        <polygon id="path-61" points="0.500124224 0.211474747 8.14409938 0 7.69569358 0.982222222 0 1.21385859"></polygon>
        <polygon id="path-63" points="0.128778468 0.139474747 9.66530021 0 9.58824017 1.02129293 0 1.18092929"></polygon>
        <polygon id="path-65" points="0.530807453 0.139474747 10.0673292 0 9.58824017 1.02129293 0 1.18092929"></polygon>
        <polygon id="path-67" points="0.530799172 0 17.6805383 0.0201616162 17.2014493 1.04145455 0 1.04145455"></polygon>
        <polygon id="path-69" points="0.530799172 0 17.6805383 0.0201616162 17.2014493 1.04145455 0 1.04145455"></polygon>
        <polygon id="path-71" points="0.530799172 0.170666667 10.6245549 0.190828283 10.1455072 1.21212121 0 1.21212121"></polygon>
        <polygon id="path-73" points="0 1.83010101 15.1182609 0.0391111111 15.4069565 1.04626263 0.2453706 2.86274747"></polygon>
        <polygon id="path-75" points="0 0.524080808 15.2207039 0.0256161616 15.4183437 1.05349495 0.152215321 1.57365657"></polygon>
        <polygon id="path-77" points="0.0414492754 2.17882828 26.9477847 0.102181818 27.1454244 1.13006061 0.193664596 3.22840404"></polygon>
        <polygon id="path-79" points="0.003436853 1.71329293 19.9505176 0.0963232323 20.1481573 1.12420202 0.155610766 2.76286869"></polygon>
        <polygon id="path-81" points="0.0245134576 1.17806061 14.3075776 0.00545454545 14.505176 1.03333333 0.176728778 2.22763636"></polygon>
        <polygon id="path-83" points="0.000538302277 1.3550303 21.1971843 0.230707071 21.4131677 1.25507071 0.171469979 2.40185859"></polygon>
        <polygon id="path-85" points="0.401987578 1.85563636 12.8455487 0.169575758 13.2643064 1.15955556 0.785879917 2.87078788"></polygon>
        <polygon id="path-87" points="0.412256729 1.9079596 9.24144928 0.120808081 10.0821946 1.02327273 1.20815735 2.83947475"></polygon>
        <path d="M0,3.76185859 C1.61221946,2.66068687 2.78322153,2.02343434 3.51299793,1.85014141 C4.24277433,1.67684848 5.39820704,1.06012121 6.97930021,0 C8.89158592,1.33321212 10.1617267,2.51406061 10.7897184,3.54254545 C11.4177226,4.5709899 11.6754451,6.57591919 11.5628986,9.55733333 C10.6400207,9.94153535 9.67191718,10.2180606 8.65856315,10.3868687 C7.64520911,10.5556364 6.34536646,11.344 4.75904348,12.7519192 C4.2310352,10.5414141 3.96703106,8.68525253 3.96703106,7.18347475 C3.96703106,5.68169697 2.64468737,4.54117172 0,3.76185859 Z" id="path-89"></path>
        <path d="M11.9623644,4.65793939 C10.6406501,5.09842424 9.56324638,5.67111111 8.73014493,6.3759596 C7.89704762,7.08080808 7.1530559,9.20614141 6.49817805,12.7519192 L0,8.84068687 C0.474550725,6.86674747 1.00288199,5.26266667 1.58499793,4.02844444 C2.16711387,2.79422222 3.80484058,1.45139394 6.49817805,0 L11.9623644,4.65793939 Z" id="path-91"></path>
        <path d="M3.51846791,0 C5.55718427,2.48080808 7.16807453,3.95123232 8.35113872,4.41131313 C9.5342029,4.87139394 11.2363561,5.02420202 13.4576398,4.86969697 L10.4069979,10.7618586 C7.70331263,11.1140606 5.73602484,10.913697 4.50517598,10.1607677 C3.27432712,9.40783838 1.77258799,8.00145455 0,5.94157576 L3.51846791,0 Z" id="path-93"></path>
        <path d="M11.9623602,4.65793939 C10.6406625,5.09842424 9.56322981,5.67111111 8.73014493,6.3759596 C7.89706004,7.08080808 7.15304348,9.20614141 6.49817805,12.7519192 L0,8.84068687 C0.474534161,6.86674747 1.00289855,5.26266667 1.58501035,4.02844444 C2.16712215,2.79422222 3.80484472,1.45139394 6.49817805,0 L11.9623602,4.65793939 Z" id="path-95"></path>
    </defs>
    <g id="聊天" stroke="none" stroke-width="1" fill="none" fill-rule="evenodd">
        <g id="空页面" transform="translate(-438.000000, -2884.000000)">
            <g id="分组-12" transform="translate(426.000000, 2884.000000)">
                <g id="分组" transform="translate(12.836439, 37.575758)">
                    <mask id="mask-2" fill="white">
                        <use xlink:href="#path-1"></use>
                    </mask>
                    <g id="Clip-3"></g>
                    <polygon id="Fill-2" fill="#E4F5FE" mask="url(#mask-2)" points="-2.07039337 -2.02020202 179.960207 -2.02020202 179.960207 119.367059 -2.07039337 119.367059"></polygon>
                </g>
                <g id="分组" transform="translate(87.370600, 6.464646)">
                    <g>
                        <mask id="mask-4" fill="white">
                            <use xlink:href="#path-3"></use>
                        </mask>
                        <g id="Clip-5"></g>
                        <polygon id="Fill-4" fill="url(#linearGradient-5)" mask="url(#mask-4)" points="-132.505176 330.909091 165.63147 330.909091 165.63147 -186.262626 -132.505176 -186.262626"></polygon>
                    </g>
                    <g>
                        <mask id="mask-7" fill="white">
                            <use xlink:href="#path-6"></use>
                        </mask>
                        <g id="Clip-7"></g>
                        <polygon id="Fill-6" fill="url(#linearGradient-8)" mask="url(#mask-7)" points="-132.505176 330.909091 165.63147 330.909091 165.63147 -186.262626 -132.505176 -186.262626"></polygon>
                    </g>
                </g>
                <g id="分组" transform="translate(64.182195, 13.737374)">
                    <g>
                        <mask id="mask-10" fill="white">
                            <use xlink:href="#path-9"></use>
                        </mask>
                        <g id="Clip-9"></g>
                        <polygon id="Fill-8" fill="url(#linearGradient-11)" mask="url(#mask-10)" points="-109.31677 323.636364 188.819876 323.636364 188.819876 -193.535354 -109.31677 -193.535354"></polygon>
                    </g>
                    <g>
                        <mask id="mask-13" fill="white">
                            <use xlink:href="#path-12"></use>
                        </mask>
                        <g id="Clip-11"></g>
                        <polygon id="Fill-10" fill="url(#linearGradient-14)" mask="url(#mask-13)" points="-109.31677 323.636364 188.819876 323.636364 188.819876 -193.535354 -109.31677 -193.535354"></polygon>
                    </g>
                </g>
                <g id="分组" transform="translate(31.884058, 14.141414)">
                    <mask id="mask-16" fill="white">
                        <use xlink:href="#path-15"></use>
                    </mask>
                    <g id="Clip-13"></g>
                    <polygon id="Fill-12" fill="#89CDFA" mask="url(#mask-16)" points="-2.07039337 -2.02020202 54.2443064 -2.02020202 54.2443064 82.4242424 -2.07039337 82.4242424"></polygon>
                </g>
                <g id="分组" transform="translate(79.503106, 26.666667)">
                    <mask id="mask-18" fill="white">
                        <use xlink:href="#path-17"></use>
                    </mask>
                    <g id="Clip-15"></g>
                    <polygon id="Fill-14" fill="#89CDFA" mask="url(#mask-18)" points="-2.07039337 -2.02020202 72.4637681 -2.02020202 72.4637681 34.7474747 -2.07039337 34.7474747"></polygon>
                </g>
                <g id="分组" transform="translate(91.097308, 94.545455)">
                    <mask id="mask-20" fill="white">
                        <use xlink:href="#path-19"></use>
                    </mask>
                    <g id="Clip-17"></g>
                    <polygon id="Fill-16" fill="#EEDBC2" mask="url(#mask-20)" points="-2.07039337 -2.02020202 13.6645963 -2.02020202 13.6645963 23.8383838 -2.07039337 23.8383838"></polygon>
                </g>
                <g id="分组" transform="translate(90.683230, 98.585859)">
                    <mask id="mask-22" fill="white">
                        <use xlink:href="#path-21"></use>
                    </mask>
                    <g id="Clip-19"></g>
                    <polygon id="Fill-18" fill="#E6C8A1" mask="url(#mask-22)" points="-2.07039337 -2.02020202 8.2815735 -2.02020202 8.2815735 9.6969697 -2.07039337 9.6969697"></polygon>
                </g>
                <g id="分组" transform="translate(81.987578, 78.383838)">
                    <mask id="mask-24" fill="white">
                        <use xlink:href="#path-23"></use>
                    </mask>
                    <g id="Clip-21"></g>
                    <polygon id="Fill-20" fill="#EEDBC2" mask="url(#mask-24)" points="-2.07039337 -2.02020202 19.8757764 -2.02020202 19.8757764 27.8787879 -2.07039337 27.8787879"></polygon>
                </g>
                <g id="分组" transform="translate(100.621118, 87.676768)">
                    <mask id="mask-26" fill="white">
                        <use xlink:href="#path-25"></use>
                    </mask>
                    <g id="Clip-23"></g>
                    <polygon id="Fill-22" fill="#3C3F50" mask="url(#mask-26)" points="-2.07039337 -2.02020202 24.0165631 -2.02020202 24.0165631 25.8585859 -2.07039337 25.8585859"></polygon>
                </g>
                <g id="分组" transform="translate(74.948240, 103.838384)">
                    <mask id="mask-28" fill="white">
                        <use xlink:href="#path-27"></use>
                    </mask>
                    <g id="Clip-25"></g>
                    <polygon id="Fill-24" fill="#3C3F50" mask="url(#mask-28)" points="-2.07039337 -2.02020202 13.6645963 -2.02020202 13.6645963 20.2020202 -2.07039337 20.2020202"></polygon>
                </g>
                <g id="分组" transform="translate(120.496894, 94.949495)">
                    <mask id="mask-30" fill="white">
                        <use xlink:href="#path-29"></use>
                    </mask>
                    <g id="Clip-27"></g>
                    <polygon id="Fill-26" fill="#4A9FCF" mask="url(#mask-30)" points="-2.07039337 -2.02020202 31.884058 -2.02020202 31.884058 35.1515152 -2.07039337 35.1515152"></polygon>
                </g>
                <g id="分组" transform="translate(73.706004, 103.838384)">
                    <mask id="mask-32" fill="white">
                        <use xlink:href="#path-31"></use>
                    </mask>
                    <g id="Clip-29"></g>
                    <polygon id="Fill-28" fill="#83D3FF" mask="url(#mask-32)" points="-2.07039337 -2.02020202 53.0020704 -2.02020202 53.0020704 31.5151515 -2.07039337 31.5151515"></polygon>
                </g>
                <g id="分组" transform="translate(79.917184, 120.000000)">
                    <mask id="mask-34" fill="white">
                        <use xlink:href="#path-33"></use>
                    </mask>
                    <g id="Clip-31"></g>
                    <polygon id="Fill-30" fill="#77C3ED" mask="url(#mask-34)" points="-2.07039337 -2.02020202 12.8364389 -2.02020202 12.8364389 12.5252525 -2.07039337 12.5252525"></polygon>
                </g>
                <g id="分组" transform="translate(72.877847, 71.919192)">
                    <mask id="mask-36" fill="white">
                        <use xlink:href="#path-35"></use>
                    </mask>
                    <g id="Clip-33"></g>
                    <polygon id="Fill-32" fill="#474A5B" mask="url(#mask-36)" points="-2.07039337 -2.02020202 46.3768116 -2.02020202 46.3768116 65.4545455 -2.07039337 65.4545455"></polygon>
                </g>
                <g id="分组" transform="translate(134.989648, 88.888889)">
                    <mask id="mask-38" fill="white">
                        <use xlink:href="#path-37"></use>
                    </mask>
                    <g id="Clip-35"></g>
                    <polygon id="Fill-34" fill="#40333A" mask="url(#mask-38)" points="-2.07039337 -2.02020202 10.3519669 -2.02020202 10.3519669 10.9090909 -2.07039337 10.9090909"></polygon>
                </g>
                <g id="分组" transform="translate(142.028986, 87.676768)">
                    <mask id="mask-40" fill="white">
                        <use xlink:href="#path-39"></use>
                    </mask>
                    <g id="Clip-37"></g>
                    <polygon id="Fill-36" fill="#40333A" mask="url(#mask-40)" points="-2.07039337 -2.02020202 12.0082816 -2.02020202 12.0082816 10.5050505 -2.07039337 10.5050505"></polygon>
                </g>
                <g id="分组" transform="translate(64.596273, 94.949495)">
                    <mask id="mask-42" fill="white">
                        <use xlink:href="#path-41"></use>
                    </mask>
                    <g id="Clip-39"></g>
                    <polygon id="Fill-38" fill="#8F97AA" mask="url(#mask-42)" points="-2.07039337 -2.02020202 14.9068323 -2.02020202 14.9068323 19.7979798 -2.07039337 19.7979798"></polygon>
                </g>
                <g id="分组" transform="translate(67.494824, 104.242424)">
                    <mask id="mask-44" fill="white">
                        <use xlink:href="#path-43"></use>
                    </mask>
                    <g id="Clip-41"></g>
                    <polygon id="Fill-40" fill="#EEDBC2" mask="url(#mask-44)" points="-2.07039337 -2.02020202 16.9772257 -2.02020202 16.9772257 17.7777778 -2.07039337 17.7777778"></polygon>
                </g>
                <g id="分组" transform="translate(91.511387, 115.959596)">
                    <mask id="mask-46" fill="white">
                        <use xlink:href="#path-45"></use>
                    </mask>
                    <g id="Clip-45"></g>
                    <polygon id="Fill-44" fill="#77C3ED" mask="url(#mask-46)" points="-2.07039337 -2.02020202 9.9378882 -2.02020202 9.9378882 8.48484848 -2.07039337 8.48484848"></polygon>
                </g>
                <g id="分组" transform="translate(138.302277, 103.030303)">
                    <mask id="mask-48" fill="white">
                        <use xlink:href="#path-47"></use>
                    </mask>
                    <g id="Clip-47"></g>
                    <polygon id="Fill-46" fill="#3F89B3" mask="url(#mask-48)" points="-2.07039337 -2.02020202 7.03933747 -2.02020202 7.03933747 16.1616162 -2.07039337 16.1616162"></polygon>
                </g>
                <g id="分组" transform="translate(141.200828, 96.565657)">
                    <mask id="mask-50" fill="white">
                        <use xlink:href="#path-49"></use>
                    </mask>
                    <g id="Clip-49"></g>
                    <polygon id="Fill-48" fill="#3F89B3" mask="url(#mask-50)" points="-2.07039337 -2.02020202 7.03933747 -2.02020202 7.03933747 8.88888889 -2.07039337 8.88888889"></polygon>
                </g>
                <g id="分组" transform="translate(41.821946, 24.646465)">
                    <mask id="mask-52" fill="white">
                        <use xlink:href="#path-51"></use>
                    </mask>
                    <g id="Clip-51"></g>
                    <polygon id="Fill-50" fill="#6CB4FC" mask="url(#mask-52)" points="-2.07039337 -2.02020202 12.0082816 -2.02020202 12.0082816 8.48484848 -2.07039337 8.48484848"></polygon>
                </g>
                <g id="分组" transform="translate(33.954451, 50.505051)">
                    <mask id="mask-54" fill="white">
                        <use xlink:href="#path-53"></use>
                    </mask>
                    <g id="Clip-53"></g>
                    <polygon id="Fill-52" fill="#6CB4FC" mask="url(#mask-54)" points="-2.07039337 -2.02020202 8.62161491 -2.02020202 8.62161491 9.14561616 -2.07039337 9.14561616"></polygon>
                </g>
                <g id="分组" transform="translate(86.128364, 33.535354)">
                    <mask id="mask-56" fill="white">
                        <use xlink:href="#path-55"></use>
                    </mask>
                    <g id="Clip-55"></g>
                    <polygon id="Fill-54" fill="#6CB4FC" mask="url(#mask-56)" points="-1.87461698 -1.62626263 14.7212836 -1.62626263 14.7212836 10.7845253 -1.87461698 10.7845253"></polygon>
                </g>
                <g id="分组" transform="translate(42.236025, 50.505051)">
                    <mask id="mask-58" fill="white">
                        <use xlink:href="#path-57"></use>
                    </mask>
                    <g id="Clip-57"></g>
                    <polygon id="Fill-56" fill="#6CB4FC" mask="url(#mask-58)" points="-2.07039337 -2.02020202 8.2178882 -2.02020202 8.2178882 3.21135354 -2.07039337 3.21135354"></polygon>
                </g>
                <g id="分组" transform="translate(42.236025, 53.737374)">
                    <mask id="mask-60" fill="white">
                        <use xlink:href="#path-59"></use>
                    </mask>
                    <g id="Clip-59"></g>
                    <polygon id="Fill-58" fill="#6CB4FC" mask="url(#mask-60)" points="-2.07039337 -2.02020202 9.86853002 -2.02020202 9.86853002 3.23406061 -2.07039337 3.23406061"></polygon>
                </g>
                <g id="分组" transform="translate(52.587992, 25.454545)">
                    <mask id="mask-62" fill="white">
                        <use xlink:href="#path-61"></use>
                    </mask>
                    <g id="Clip-61"></g>
                    <polygon id="Fill-60" fill="#6CB4FC" mask="url(#mask-62)" points="-2.07039337 -2.02020202 10.2144928 -2.02020202 10.2144928 3.23406061 -2.07039337 3.23406061"></polygon>
                </g>
                <g id="分组" transform="translate(42.236025, 56.565657)">
                    <mask id="mask-64" fill="white">
                        <use xlink:href="#path-63"></use>
                    </mask>
                    <g id="Clip-63"></g>
                    <polygon id="Fill-62" fill="#6CB4FC" mask="url(#mask-64)" points="-2.07039337 -2.02020202 11.7356936 -2.02020202 11.7356936 3.20113131 -2.07039337 3.20113131"></polygon>
                </g>
                <g id="分组" transform="translate(50.931677, 29.494949)">
                    <mask id="mask-66" fill="white">
                        <use xlink:href="#path-65"></use>
                    </mask>
                    <g id="Clip-65"></g>
                    <polygon id="Fill-64" fill="#6CB4FC" mask="url(#mask-66)" points="-2.07039337 -2.02020202 12.1377226 -2.02020202 12.1377226 3.20113131 -2.07039337 3.20113131"></polygon>
                </g>
                <g id="分组" transform="translate(38.509317, 34.343434)">
                    <mask id="mask-68" fill="white">
                        <use xlink:href="#path-67"></use>
                    </mask>
                    <g id="Clip-67"></g>
                    <polygon id="Fill-66" fill="#6CB4FC" mask="url(#mask-68)" points="-2.07039337 -2.02020202 19.7509317 -2.02020202 19.7509317 3.06165657 -2.07039337 3.06165657"></polygon>
                </g>
                <g id="分组" transform="translate(36.024845, 39.191919)">
                    <mask id="mask-70" fill="white">
                        <use xlink:href="#path-69"></use>
                    </mask>
                    <g id="Clip-69"></g>
                    <polygon id="Fill-68" fill="#6CB4FC" mask="url(#mask-70)" points="-2.07039337 -2.02020202 19.7509317 -2.02020202 19.7509317 3.06165657 -2.07039337 3.06165657"></polygon>
                </g>
                <g id="分组" transform="translate(34.368530, 44.040404)">
                    <mask id="mask-72" fill="white">
                        <use xlink:href="#path-71"></use>
                    </mask>
                    <g id="Clip-71"></g>
                    <polygon id="Fill-70" fill="#6CB4FC" mask="url(#mask-72)" points="-2.07039337 -1.84953535 12.6949482 -1.84953535 12.6949482 3.23232323 -2.07039337 3.23232323"></polygon>
                </g>
                <g id="分组" transform="translate(38.095238, 62.222222)">
                    <mask id="mask-74" fill="white">
                        <use xlink:href="#path-73"></use>
                    </mask>
                    <g id="Clip-73"></g>
                    <polygon id="Fill-72" fill="#6CB4FC" mask="url(#mask-74)" points="-2.3072795 0.0711515152 17.0779296 -2.25135354 17.7142443 2.80521212 -1.67098551 5.12771717"></polygon>
                </g>
                <g id="分组" transform="translate(98.964803, 34.343434)">
                    <mask id="mask-76" fill="white">
                        <use xlink:href="#path-75"></use>
                    </mask>
                    <g id="Clip-75"></g>
                    <polygon id="Fill-74" fill="#6CB4FC" mask="url(#mask-76)" points="-2.14140787 -1.42440404 17.3775155 -2.08949495 17.5597516 3.00193939 -1.95917184 3.6670303"></polygon>
                </g>
                <g id="分组" transform="translate(93.995859, 46.060606)">
                    <mask id="mask-78" fill="white">
                        <use xlink:href="#path-77"></use>
                    </mask>
                    <g id="Clip-77"></g>
                    <polygon id="Fill-76" fill="#6CB4FC" mask="url(#mask-78)" points="-2.14140787 -0.928080808 29.1053002 -1.99276768 29.3289855 4.25709091 -1.91772257 5.32181818"></polygon>
                </g>
                <g id="分组" transform="translate(100.207039, 50.505051)">
                    <mask id="mask-80" fill="white">
                        <use xlink:href="#path-79"></use>
                    </mask>
                    <g id="Clip-79"></g>
                    <polygon id="Fill-78" fill="#6CB4FC" mask="url(#mask-80)" points="-2.17146998 -1.17131313 22.1080331 -1.99862626 22.3237681 4.0289697 -1.95573499 4.85624242"></polygon>
                </g>
                <g id="分组" transform="translate(108.074534, 54.545455)">
                    <mask id="mask-82" fill="white">
                        <use xlink:href="#path-81"></use>
                    </mask>
                    <g id="Clip-81"></g>
                    <polygon id="Fill-80" fill="#6CB4FC" mask="url(#mask-82)" points="-2.14140787 -1.45547475 16.4650932 -2.08949495 16.6718012 3.6870303 -1.93465839 4.3210101"></polygon>
                </g>
                <g id="分组" transform="translate(101.035197, 38.383838)">
                    <mask id="mask-84" fill="white">
                        <use xlink:href="#path-83"></use>
                    </mask>
                    <g id="Clip-83"></g>
                    <polygon id="Fill-82" fill="#6CB4FC" mask="url(#mask-84)" points="-2.17755694 -0.596929293 23.3168944 -1.90064646 23.5922981 3.22715152 -1.90215321 4.53086869"></polygon>
                </g>
                <g id="分组" transform="translate(41.821946, 66.666667)">
                    <mask id="mask-86" fill="white">
                        <use xlink:href="#path-85"></use>
                    </mask>
                    <g id="Clip-85"></g>
                    <polygon id="Fill-84" fill="#6CB4FC" mask="url(#mask-86)" points="-1.93639752 0.136242424 14.8756108 -2.16925253 15.6026915 2.87894949 -1.20929607 5.18444444"></polygon>
                </g>
                <g id="分组" transform="translate(46.376812, 70.707071)">
                    <mask id="mask-88" fill="white">
                        <use xlink:href="#path-87"></use>
                    </mask>
                    <g id="Clip-87"></g>
                    <polygon id="Fill-86" fill="#6CB4FC" mask="url(#mask-88)" points="-2.03677019 0.20189899 11.5156522 -2.36856566 12.5351553 2.74913131 -1.01726708 5.31959596"></polygon>
                </g>
                <g id="分组" transform="translate(30.641822, 0.000000)">
                    <mask id="mask-90" fill="white">
                        <use xlink:href="#path-89"></use>
                    </mask>
                    <g id="Clip-89"></g>
                    <polygon id="Fill-88" fill="#FAC064" mask="url(#mask-90)" points="-2.07039337 -2.02020202 13.6589234 -2.02020202 13.6589234 14.7721212 -2.07039337 14.7721212"></polygon>
                </g>
                <g id="分组" transform="translate(18.633540, 100.606061)">
                    <mask id="mask-92" fill="white">
                        <use xlink:href="#path-91"></use>
                    </mask>
                    <g id="Clip-91"></g>
                    <polygon id="Fill-90" fill="#56A3CE" mask="url(#mask-92)" points="-2.07039337 -2.02020202 14.0327578 -2.02020202 14.0327578 14.7721212 -2.07039337 14.7721212"></polygon>
                </g>
                <g id="分组" transform="translate(186.335404, 107.878788)">
                    <mask id="mask-94" fill="white">
                        <use xlink:href="#path-93"></use>
                    </mask>
                    <g id="Clip-93"></g>
                    <polygon id="Fill-92" fill="#FAC064" mask="url(#mask-94)" points="-2.07039337 -2.02020202 15.5280331 -2.02020202 15.5280331 12.9504283 -2.07039337 12.9504283"></polygon>
                </g>
                <g id="分组" transform="translate(169.772257, 31.111111)">
                    <mask id="mask-96" fill="white">
                        <use xlink:href="#path-95"></use>
                    </mask>
                    <g id="Clip-95"></g>
                    <polygon id="Fill-94" fill="#C9D5EF" mask="url(#mask-96)" points="-2.07039337 -2.02020202 14.0327536 -2.02020202 14.0327536 14.7721212 -2.07039337 14.7721212"></polygon>
                </g>
            </g>
        </g>
    </g>
</svg>