<?xml version="1.0" encoding="UTF-8"?>
<svg width="200px" height="160px" viewBox="0 0 200 160" version="1.1" xmlns="http://www.w3.org/2000/svg" xmlns:xlink="http://www.w3.org/1999/xlink">
    <!-- Generator: Sketch 52.4 (67378) - http://www.bohemiancoding.com/sketch -->
    <title>分组 12 copy</title>
    <desc>Created with Sketch.</desc>
    <defs>
        <path d="M69.583683,1.44825071 C88.3748252,7.12373789 127.073193,41.8185755 149.709091,41.8185755 C172.344988,41.8185755 204.442424,101.99535 199.292308,119.777368 C194.142657,137.559357 175.779021,130.976146 169.201865,146.60898 C162.624709,162.241814 129.919814,153.859679 99.7515152,158.656807 C69.583683,163.45393 64.8340326,153.859679 54.7229371,153.859679 C44.6121212,153.859679 12.7522145,161.4753 12.7522145,149.251432 C12.7522145,137.027565 40.0010256,142.781912 40.0010256,134.348435 C40.0010256,125.914958 3.61710956,94.0148148 3.61710956,77.2578917 C3.61710956,60.5009231 -5.4760373,37.0067692 5.35254079,22.6117379 C16.1810723,8.21666097 50.7924942,-4.22723647 69.583683,1.44825071 Z" id="path-1"></path>
        <path d="M7.83682984,0.105754986 L70.9128205,0.105754986 C75.0321678,0.105754986 78.372028,3.37112251 78.372028,7.39920228 L78.372028,130.526395 C78.372028,134.554452 75.0321678,137.819843 70.9128205,137.819843 L7.83682984,137.819843 C3.71701632,137.819843 0.377622378,134.554452 0.377622378,130.526395 L0.377622378,7.39920228 C0.377622378,3.37112251 3.71701632,0.105754986 7.83682984,0.105754986 Z" id="path-3"></path>
        <path d="M2.1020979,0.202666667 L64.9132867,0.202666667 C65.9431235,0.202666667 66.7780886,1.01903134 66.7780886,2.02602849 L66.7780886,106.085652 C66.7780886,107.092681 65.9431235,107.909028 64.9132867,107.909028 L2.1020979,107.909028 C1.07226107,107.909028 0.237296037,107.092681 0.237296037,106.085652 L0.237296037,2.02602849 C0.237296037,1.01903134 1.07226107,0.202666667 2.1020979,0.202666667 Z" id="path-5"></path>
        <path d="M5.80839161,11.6078177 C2.64522145,11.6078177 0.0815850816,9.08876581 0.0815850816,5.98136524 C0.0815850816,2.87396011 2.64522145,0.354912821 5.80839161,0.354912821 C8.97109557,0.354912821 11.5351981,2.87396011 11.5351981,5.98136524 C11.5351981,9.08876581 8.97109557,11.6078177 5.80839161,11.6078177 Z" id="path-7"></path>
        <path d="M1.39160839,0.450005698 L19.7072261,0.450005698 C20.2223776,0.450005698 20.639627,0.858210826 20.639627,1.36168661 L20.639627,1.68173219 C20.639627,2.18525356 20.2223776,2.59341311 19.7072261,2.59341311 L1.39160839,2.59341311 C0.876923077,2.59341311 0.459207459,2.18525356 0.459207459,1.68173219 L0.459207459,1.36168661 C0.459207459,0.858210826 0.876923077,0.450005698 1.39160839,0.450005698 Z" id="path-9"></path>
        <path d="M1.26526807,0.445401709 L49.5785548,0.445401709 C50.0932401,0.445401709 50.5109557,0.853561254 50.5109557,1.35708262 L50.5109557,37.0433732 C50.5109557,37.5468946 50.0932401,37.9550541 49.5785548,37.9550541 L1.26526807,37.9550541 C0.75011655,37.9550541 0.332867133,37.5468946 0.332867133,37.0433732 L0.332867133,1.35708262 C0.332867133,0.853561254 0.75011655,0.445401709 1.26526807,0.445401709 Z" id="path-11"></path>
        <path d="M1.19487179,0.389606838 L44.0540793,0.389606838 C44.5692308,0.389606838 44.9864802,0.797766382 44.9864802,1.30128775 L44.9864802,26.2705413 C44.9864802,26.7740627 44.5692308,27.1822222 44.0540793,27.1822222 L1.19487179,27.1822222 C0.68018648,27.1822222 0.262470862,26.7740627 0.262470862,26.2705413 L0.262470862,1.30128775 C0.262470862,0.797766382 0.68018648,0.389606838 1.19487179,0.389606838 Z" id="path-13"></path>
        <path d="M0.97995338,0.134928775 L19.216317,0.134928775 C19.602331,0.134928775 19.9156177,0.441071225 19.9156177,0.818689459 L19.9156177,1.05873504 C19.9156177,1.43635328 19.602331,1.74249573 19.216317,1.74249573 L0.97995338,1.74249573 C0.593939394,1.74249573 0.280652681,1.43635328 0.280652681,1.05873504 L0.280652681,0.818689459 C0.280652681,0.441071225 0.593939394,0.134928775 0.97995338,0.134928775 Z" id="path-15"></path>
        <path d="M0.97995338,0.399225071 L32.3062937,0.399225071 C32.6923077,0.399225071 33.0055944,0.705321937 33.0055944,1.08298575 L33.0055944,1.32298575 C33.0055944,1.70064957 32.6923077,2.00674644 32.3062937,2.00674644 L0.97995338,2.00674644 C0.593939394,2.00674644 0.280652681,1.70064957 0.280652681,1.32298575 L0.280652681,1.08298575 C0.280652681,0.705321937 0.593939394,0.399225071 0.97995338,0.399225071 Z" id="path-17"></path>
        <path d="M4.85128205,8.88838746 C2.36550117,8.88838746 0.351048951,6.92508262 0.351048951,4.50320228 C0.351048951,2.08132194 2.36550117,0.118017094 4.85128205,0.118017094 C7.33659674,0.118017094 9.35151515,2.08132194 9.35151515,4.50320228 C9.35151515,6.92508262 7.33659674,8.88838746 4.85128205,8.88838746 Z" id="path-19"></path>
        <path d="M5.54638695,2.54527635 C5.54918415,2.57344729 5.55058275,2.60189174 5.55058275,2.63070085 L5.55058275,3.93212536 C5.55058275,4.44303134 5.12167832,4.86103704 4.597669,4.86103704 L4.25594406,4.86103704 C3.88065268,5.07026781 3.44615385,5.18988034 2.98275058,5.18988034 C2.51934732,5.18988034 2.08484848,5.07026781 1.70955711,4.86103704 L1.36783217,4.86103704 C0.843822844,4.86103704 0.414918415,4.44303134 0.414918415,3.93212536 L0.414918415,2.63070085 C0.414918415,2.60189174 0.416317016,2.57344729 0.419114219,2.54527635 C0.494638695,1.22949288 1.61351981,0.185253561 2.98275058,0.185253561 C4.35198135,0.185253561 5.47086247,1.22949288 5.54638695,2.54527635 Z M2.5006993,2.79507692 C2.5006993,2.49718519 2.25314685,2.25568091 1.94731935,2.25568091 C1.64149184,2.25568091 1.39347319,2.49718519 1.39347319,2.79507692 C1.39347319,3.09296866 1.64149184,3.33447293 1.94731935,3.33447293 C2.25314685,3.33447293 2.5006993,3.09296866 2.5006993,2.79507692 Z M4.57202797,2.79507692 C4.57202797,2.49718519 4.32400932,2.25568091 4.01818182,2.25568091 C3.71282051,2.25568091 3.46480186,2.49718519 3.46480186,2.79507692 C3.46480186,3.09296866 3.71282051,3.33447293 4.01818182,3.33447293 C4.32400932,3.33447293 4.57202797,3.09296866 4.57202797,2.79507692 Z" id="path-21"></path>
        <path d="M0.774358974,0.222267806 L16.8951049,0.222267806 C17.2843823,0.222267806 17.5995338,0.529458689 17.5995338,0.908444444 C17.5995338,1.28738462 17.2843823,1.5945755 16.8951049,1.5945755 L0.774358974,1.5945755 C0.385547786,1.5945755 0.0703962704,1.28738462 0.0703962704,0.908444444 C0.0703962704,0.529458689 0.385547786,0.222267806 0.774358974,0.222267806 Z" id="path-23"></path>
        <path d="M1.26526807,0.326746439 L49.5785548,0.326746439 C50.0932401,0.326746439 50.5109557,0.734951567 50.5109557,1.23842735 L50.5109557,36.9247635 C50.5109557,37.4282849 50.0932401,37.8364444 49.5785548,37.8364444 L1.26526807,37.8364444 C0.75011655,37.8364444 0.332867133,37.4282849 0.332867133,36.9247635 L0.332867133,1.23842735 C0.332867133,0.734951567 0.75011655,0.326746439 1.26526807,0.326746439 Z" id="path-25"></path>
        <path d="M1.19487179,0.270997151 L44.0540793,0.270997151 C44.5692308,0.270997151 44.9864802,0.679156695 44.9864802,1.18267806 L44.9864802,26.1519316 C44.9864802,26.655453 44.5692308,27.0636125 44.0540793,27.0636125 L1.19487179,27.0636125 C0.68018648,27.0636125 0.262470862,26.655453 0.262470862,26.1519316 L0.262470862,1.18267806 C0.262470862,0.679156695 0.68018648,0.270997151 1.19487179,0.270997151 Z" id="path-27"></path>
        <path d="M0.97995338,0.0163190883 L19.216317,0.0163190883 C19.602331,0.0163190883 19.9156177,0.322461538 19.9156177,0.700079772 L19.9156177,0.940125356 C19.9156177,1.31774359 19.602331,1.62388604 19.216317,1.62388604 L0.97995338,1.62388604 C0.593939394,1.62388604 0.280652681,1.31774359 0.280652681,0.940125356 L0.280652681,0.700079772 C0.280652681,0.322461538 0.593939394,0.0163190883 0.97995338,0.0163190883 Z" id="path-29"></path>
        <path d="M0.97995338,0.280569801 L32.3062937,0.280569801 C32.6923077,0.280569801 33.0055944,0.586712251 33.0055944,0.964330484 L33.0055944,1.20437607 C33.0055944,1.5819943 32.6923077,1.88813675 32.3062937,1.88813675 L0.97995338,1.88813675 C0.593939394,1.88813675 0.280652681,1.5819943 0.280652681,1.20437607 L0.280652681,0.964330484 C0.280652681,0.586712251 0.593939394,0.280569801 0.97995338,0.280569801 Z" id="path-31"></path>
        <path d="M4.85128205,9.22557265 C2.36550117,9.22557265 0.351048951,7.26226781 0.351048951,4.84043305 C0.351048951,2.41855271 2.36550117,0.455247863 4.85128205,0.455247863 C7.33659674,0.455247863 9.35151515,2.41855271 9.35151515,4.84043305 C9.35151515,7.26226781 7.33659674,9.22557265 4.85128205,9.22557265 Z" id="path-33"></path>
        <path d="M5.54638695,2.42666667 C5.54918415,2.45483761 5.55058275,2.48328205 5.55058275,2.51204558 L5.55058275,3.81347009 C5.55058275,4.32437607 5.12167832,4.74238177 4.597669,4.74238177 L4.25594406,4.74238177 C3.88065268,4.95161254 3.44615385,5.07127066 2.98275058,5.07127066 C2.51934732,5.07127066 2.08484848,4.95161254 1.70955711,4.74238177 L1.36783217,4.74238177 C0.843822844,4.74238177 0.414918415,4.32437607 0.414918415,3.81347009 L0.414918415,2.51204558 C0.414918415,2.48328205 0.416317016,2.45483761 0.419114219,2.42666667 C0.494638695,1.11088319 1.61351981,0.0665982906 2.98275058,0.0665982906 C4.35198135,0.0665982906 5.47086247,1.11088319 5.54638695,2.42666667 Z M2.5006993,2.67646724 C2.5006993,2.3785755 2.25314685,2.13707123 1.94731935,2.13707123 C1.64149184,2.13707123 1.39347319,2.3785755 1.39347319,2.67646724 C1.39347319,2.97435897 1.64149184,3.21586325 1.94731935,3.21586325 C2.25314685,3.21586325 2.5006993,2.97435897 2.5006993,2.67646724 Z M4.57202797,2.67646724 C4.57202797,2.3785755 4.32400932,2.13707123 4.01818182,2.13707123 C3.71282051,2.13707123 3.46480186,2.3785755 3.46480186,2.67646724 C3.46480186,2.97435897 3.71282051,3.21586325 4.01818182,3.21586325 C4.32400932,3.21586325 4.57202797,2.97435897 4.57202797,2.67646724 Z" id="path-35"></path>
        <path d="M0.774358974,0.10365812 L16.8951049,0.10365812 C17.2843823,0.10365812 17.5995338,0.410849003 17.5995338,0.789789174 C17.5995338,1.16872934 17.2843823,1.47592023 16.8951049,1.47592023 L0.774358974,1.47592023 C0.385547786,1.47592023 0.0703962704,1.16872934 0.0703962704,0.789789174 C0.0703962704,0.410849003 0.385547786,0.10365812 0.774358974,0.10365812 Z" id="path-37"></path>
        <polygon id="path-39" points="5.6951049 0.415407407 57.9631702 6.98023932 50.4526807 51.6723419 0.416783217 42.5424501"></polygon>
        <polygon id="path-41" points="4.3011655 0.441207977 50.6149184 6.38340741 45.3300699 37.3501083 0.252214452 29.0373105"></polygon>
        <path d="M0.2402331,4.01166952 C3.04298368,1.63592023 5.45361305,0.448045584 7.47272727,0.448045584 C10.5006993,0.448045584 14.9972028,-0.103749288 16.17669,2.22988034 C16.7296037,3.3237151 17.9226107,5.01839316 16.17669,5.01839316 C15.0055944,5.01839316 15.1440559,2.72756695 13.2666667,2.72756695 C11.3897436,2.72756695 14.2983683,3.25652422 14.2983683,4.34338462 C14.2983683,5.43019943 7.21538462,4.60654131 5.56503497,5.01839316 C4.4648951,5.29294587 3.22773893,5.69964672 1.85365967,6.23854131 L0.2402331,4.01166952 Z" id="path-43"></path>
        <path d="M2.61585082,0.218803419 C5.65268065,2.52403419 7.49324009,3.67662678 8.13752914,3.67662678 C9.1034965,3.67662678 9.7048951,3.79496296 9.7048951,4.58265527 C9.7048951,5.37034758 8.47226107,6.97859829 4.64615385,5.97447293 C2.0960373,5.30502564 0.648484848,4.1831567 0.303962704,2.60891168 L2.61585082,0.218803419 Z" id="path-45"></path>
        <path d="M9.85948718,5.04123077 C25.6158508,0.110632479 35.2111888,-1.18354416 38.644289,1.15874644 C43.7944056,4.67218234 47.9426573,16.573584 49.8144522,20.9778234 C51.0620047,23.9139829 52.1002331,34.2338462 52.9286713,51.9373721 C52.1668998,53.3455681 51.1286713,54.2958724 49.8144522,54.7882849 C48.4997669,55.2806929 46.9519814,55.0344889 45.1706294,54.0496684 C44.5529138,49.8880137 44.244289,46.4010849 44.244289,43.5888866 C44.244289,39.3705892 40.444289,28.4892991 39.3664336,25.118906 C38.2885781,21.7485128 26.4060606,7.85207977 25.0592075,7.85207977 C23.7121212,7.85207977 22.8770629,24.0959088 20.4836364,27.1344957 C18.8880186,29.1602051 14.6470862,37.4278291 7.76074592,51.9373721 C5.00368298,52.5474325 3.32149184,52.8186211 2.71417249,52.7509379 C2.10689977,52.6832547 1.237669,52.1277219 0.106480186,51.0843305 C3.08377622,42.3845607 5.08759907,36.5295954 6.11794872,33.519453 C7.6634965,29.0042165 12.0170163,27.2586667 12.8596737,25.118906 C13.4214452,23.6923989 12.421352,16.9998405 9.85948718,5.04123077 Z" id="path-47"></path>
        <path d="M30.0321678,0.415407407 C31.5535198,1.08435328 32.3142191,2.12649573 32.3142191,3.54183476 C32.3142191,4.95717379 29.3899767,6.87366382 23.5415385,9.29121368 C26.572028,9.89365242 29.1178089,10.6465641 31.1787879,11.5499487 C34.2702564,12.9050712 36.7524476,25.3469174 39.6662005,28.1389402 C41.6083916,30.0003191 47.1114219,35.6660969 56.174359,45.1363191 L53.0452214,48.4981425 L48.3034965,45.1363191 C49.3058275,46.7030883 49.8074592,48.3721026 49.8074592,50.1433618 C49.8074592,52.8002735 44.9062937,54.0820057 31.1787879,55.8075897 C22.0271329,56.9579487 12.7601865,54.1842507 3.37785548,47.4864501 C5.41566434,37.6819145 6.43459207,31.4859031 6.43459207,28.8984615 C6.43459207,25.0173447 -2.03361305,12.5013789 0.459254079,9.29121368 C2.95212121,6.08104843 8.36713287,4.5717151 14.6291375,4.10475214 C18.8038228,3.79345869 23.9381818,2.56369231 30.0321678,0.415407407 Z" id="path-49"></path>
        <path d="M9.54083916,1.37620969 C10.5707692,2.60056524 11.506014,3.21274074 12.3465268,3.21274074 C13.6072727,3.21274074 15.3104429,3.16357835 15.3104429,4.76324558 C15.3104429,5.68768091 11.1957576,5.88054701 7.44909091,6.40870199 C4.71240093,6.79447977 2.18648019,7.7245037 1.53212121,7.43760228 C-0.018041958,6.75791225 -0.0368764569,3.74024387 0.838368298,2.55822678 C1.4218648,1.77021538 2.10536131,1.02911909 2.88876457,0.334937892 L9.54083916,1.37620969 Z" id="path-51"></path>
        <path d="M10.4876457,1.66082279 C11.2778555,2.53355214 12.1212121,2.99291168 13.018648,3.03890142 C14.365035,3.10788376 15.6475524,3.88160456 15.5561772,5.58963419 C15.5030303,6.57669288 11.9967366,6.56083419 7.96596737,6.91976752 C5.02191142,7.18194416 2.27179487,8.03676353 1.58974359,7.69462336 C-0.0265734266,6.88407521 0.125874126,3.66095499 1.12820513,2.44675556 C1.7962704,1.63729231 2.56829837,0.883391453 3.44475524,0.185048433 L10.4876457,1.66082279 Z" id="path-53"></path>
        <path d="M12.8514685,0.126905983 C14.1304429,3.99721937 13.8010723,6.7617094 11.8633566,8.42033048 C9.92559441,10.0789516 8.14899767,10.6950199 6.53351981,10.26849 L6.53351981,14.5179259 C4.67846154,13.4594188 3.32960373,12.7539601 2.48694639,12.4015954 C1.64428904,12.0492308 0.933053613,11.8300171 0.353193473,11.7439544 L0.353193473,7.51703704 L12.8514685,0.126905983 Z" id="path-55"></path>
        <path d="M5.36153846,2.35441595 C9.01412587,0.238450142 12.2675991,-0.290507123 15.1220047,0.767452991 C19.4036364,2.35441595 18.4557576,3.97729915 20.5783217,3.97729915 C22.7008392,3.97729915 24.4979021,2.06090028 24.4979021,3.97729915 C24.4979021,5.89365242 23.0941725,7.54607407 20.5783217,7.54607407 C18.0624242,7.54607407 17.8344056,6.45178348 16.7675058,7.54607407 C15.7005594,8.64041026 15.6768298,10.2841254 13.5090909,11.0708148 C11.3413054,11.8575043 10.0615385,10.6944729 8.81715618,11.8575043 C7.57282051,13.02049 6.12983683,15.1914758 4.19613054,15.1914758 C2.26237762,15.1914758 -0.662284382,10.8505527 0.55030303,7.03977208 C1.35869464,4.49928205 2.96247086,2.93748148 5.36153846,2.35441595 Z" id="path-57"></path>
        <path d="M4.75198135,10.583339 C1.8997669,10.1416296 -0.0442890443,7.51202279 0.409324009,4.70988034 C0.863403263,1.90778348 3.54358974,-0.00574358974 6.395338,0.435965812 C9.24755245,0.877675214 11.1916084,3.50728205 10.7379953,6.3094245 C10.2839161,9.11152137 7.6037296,11.0250484 4.75198135,10.583339 Z" id="path-59"></path>
        <path d="M6.20559441,3.52975499 C6.2037296,3.56280342 6.2,3.5959886 6.19487179,3.62931054 L5.95058275,5.13508832 C5.85501166,5.72617664 5.28438228,6.13356125 4.68251748,6.04038746 L4.29090909,5.97976068 C3.82097902,6.15512251 3.2997669,6.2162963 2.76829837,6.13397151 C2.23636364,6.05160114 1.75990676,5.83594302 1.36876457,5.5271567 L0.976689977,5.46648433 C0.375291375,5.37331054 -0.0386946387,4.81344729 0.0568764569,4.22231339 L0.300699301,2.7165812 C0.306293706,2.68325926 0.313286713,2.65062108 0.321678322,2.61852991 C0.655011655,1.10960684 2.13473193,0.100193732 3.70629371,0.343521368 C5.27738928,0.586894587 6.36550117,1.99393732 6.20559441,3.52975499 Z M2.66386946,3.27749288 C2.71981352,2.93283191 2.48065268,2.60936752 2.12960373,2.55503134 C1.77902098,2.50069516 1.44941725,2.73609117 1.39347319,3.08075214 C1.33752914,3.42541311 1.57668998,3.74887749 1.92773893,3.80321368 C2.27832168,3.85754986 2.60792541,3.62215385 2.66386946,3.27749288 Z M5.04055944,3.64553846 C5.0965035,3.30087749 4.85734266,2.97741311 4.50629371,2.92307692 C4.15571096,2.86878632 3.82610723,3.10413675 3.77016317,3.44879772 C3.71421911,3.79345869 3.95337995,4.11692308 4.3044289,4.17125926 C4.65501166,4.22559544 4.98461538,3.99019943 5.04055944,3.64553846 Z" id="path-61"></path>
        <path d="M1.13613054,0.371190883 L33.2377622,4.78254131 C33.6205128,4.83509972 33.8867133,5.1808547 33.8331002,5.55478063 L33.7990676,5.79250142 C33.7454545,6.16642735 33.3916084,6.42698575 33.009324,6.37442735 L0.907692308,1.96307692 C0.524941725,1.91051852 0.258741259,1.56476353 0.312354312,1.19083761 L0.346386946,0.953116809 C0.4004662,0.579190883 0.753846154,0.318632479 1.13613054,0.371190883 Z" id="path-63"></path>
        <path d="M1.05687646,0.255225071 L19.839627,2.8362849 C20.2219114,2.8888433 20.4885781,3.23459829 20.434965,3.6085698 L20.4004662,3.84624501 C20.3468531,4.22021652 19.9934732,4.48077493 19.6107226,4.42821652 L0.828438228,1.8471567 C0.445687646,1.79459829 0.179487179,1.4488433 0.233100233,1.07487179 L0.267132867,0.837196581 C0.321212121,0.463225071 0.674592075,0.202666667 1.05687646,0.255225071 Z" id="path-65"></path>
        <path d="M1.02331002,0.290096866 L7.66340326,1.20255271 C8.04568765,1.25511111 8.31235431,1.6008661 8.25827506,1.97479202 L8.22424242,2.21251282 C8.17062937,2.58648433 7.81678322,2.84699715 7.43449883,2.79443875 L0.794405594,1.88202849 C0.412121212,1.82947009 0.145454545,1.4837151 0.1995338,1.10974359 L0.233566434,0.872022792 C0.287179487,0.498096866 0.641025641,0.237538462 1.02331002,0.290096866 Z" id="path-67"></path>
        <path d="M0.737062937,0.37780057 L13.7561772,2.16683761 C14.0638695,2.2091396 14.2783217,2.48752137 14.234965,2.78860399 C14.1920746,3.08964103 13.9072261,3.2994188 13.5990676,3.25711681 L0.58041958,1.46812536 C0.272727273,1.42577778 0.0582750583,1.1474416 0.101165501,0.846358974 C0.144522145,0.545276353 0.429370629,0.335498575 0.737062937,0.37780057 Z" id="path-69"></path>
    </defs>
    <g id="聊天" stroke="none" stroke-width="1" fill="none" fill-rule="evenodd">
        <g id="空页面" transform="translate(-426.000000, -3483.000000)">
            <g id="分组-12-copy" transform="translate(426.000000, 3483.000000)">
                <g id="分组">
                    <mask id="mask-2" fill="white">
                        <use xlink:href="#path-1"></use>
                    </mask>
                    <g id="Clip-98"></g>
                    <polygon id="Fill-97" fill="#E4F5FE" mask="url(#mask-2)" points="-2.28629371 -2.23393732 202.173893 -2.23393732 202.173893 162.279202 -2.28629371 162.279202"></polygon>
                </g>
                <g id="分组" transform="translate(98.834499, 6.381766)">
                    <mask id="mask-4" fill="white">
                        <use xlink:href="#path-3"></use>
                    </mask>
                    <g id="Clip-100"></g>
                    <polygon id="Fill-99" fill="#AEDAF2" mask="url(#mask-4)" points="-1.95337995 -2.17344729 80.7030303 -2.17344729 80.7030303 140.099045 -1.95337995 140.099045"></polygon>
                </g>
                <g id="分组" transform="translate(104.428904, 19.145299)">
                    <mask id="mask-6" fill="white">
                        <use xlink:href="#path-5"></use>
                    </mask>
                    <g id="Clip-102"></g>
                    <polygon id="Fill-101" fill="#F3F7FA" mask="url(#mask-6)" points="-2.09370629 -2.07653561 69.1090909 -2.07653561 69.1090909 110.18823 -2.09370629 110.18823"></polygon>
                </g>
                <g id="分组" transform="translate(132.400932, 129.914530)">
                    <mask id="mask-8" fill="white">
                        <use xlink:href="#path-7"></use>
                    </mask>
                    <g id="Clip-104"></g>
                    <polygon id="Fill-103" fill="#FFFFFF" mask="url(#mask-8)" points="-2.24941725 -1.92428946 13.8662005 -1.92428946 13.8662005 13.8870199 -2.24941725 13.8870199"></polygon>
                </g>
                <g id="分组" transform="translate(128.205128, 11.396011)">
                    <mask id="mask-10" fill="white">
                        <use xlink:href="#path-9"></use>
                    </mask>
                    <g id="Clip-106"></g>
                    <polygon id="Fill-105" fill="#FFFFFF" mask="url(#mask-10)" points="-1.87179487 -1.82919658 22.9706294 -1.82919658 22.9706294 4.87261538 -1.87179487 4.87261538"></polygon>
                </g>
                <g id="分组" transform="translate(112.354312, 75.213675)">
                    <mask id="mask-12" fill="white">
                        <use xlink:href="#path-11"></use>
                    </mask>
                    <g id="Clip-108"></g>
                    <polygon id="Fill-107" fill="#FFFFFF" mask="url(#mask-12)" points="-1.9981352 -1.83380057 52.841958 -1.83380057 52.841958 40.2342564 -1.9981352 40.2342564"></polygon>
                </g>
                <g id="分组" transform="translate(115.151515, 77.948718)">
                    <mask id="mask-14" fill="white">
                        <use xlink:href="#path-13"></use>
                    </mask>
                    <g id="Clip-110"></g>
                    <polygon id="Fill-109" fill="#A2DEFF" mask="url(#mask-14)" points="-2.06853147 -1.88959544 47.3174825 -1.88959544 47.3174825 29.4614245 -2.06853147 29.4614245"></polygon>
                </g>
                <g id="分组" transform="translate(121.678322, 94.814815)">
                    <mask id="mask-16" fill="white">
                        <use xlink:href="#path-15"></use>
                    </mask>
                    <g id="Clip-112"></g>
                    <polygon id="Fill-111" fill="#C2E9FF" mask="url(#mask-16)" points="-2.05034965 -2.1442735 22.24662 -2.1442735 22.24662 4.02169801 -2.05034965 4.02169801"></polygon>
                </g>
                <g id="分组" transform="translate(121.678322, 99.373219)">
                    <mask id="mask-18" fill="white">
                        <use xlink:href="#path-17"></use>
                    </mask>
                    <g id="Clip-114"></g>
                    <polygon id="Fill-113" fill="#C2E9FF" mask="url(#mask-18)" points="-2.05034965 -1.87997721 35.3365967 -1.87997721 35.3365967 4.28594872 -2.05034965 4.28594872"></polygon>
                </g>
                <g id="分组" transform="translate(118.881119, 82.507123)">
                    <mask id="mask-20" fill="white">
                        <use xlink:href="#path-19"></use>
                    </mask>
                    <g id="Clip-116"></g>
                    <polygon id="Fill-115" fill="#FFFFFF" mask="url(#mask-20)" points="-1.97995338 -2.16118519 11.6825175 -2.16118519 11.6825175 11.1675897 -1.97995338 11.1675897"></polygon>
                </g>
                <g id="分组" transform="translate(120.745921, 84.330484)">
                    <mask id="mask-22" fill="white">
                        <use xlink:href="#path-21"></use>
                    </mask>
                    <g id="Clip-118"></g>
                    <polygon id="Fill-117" fill="#61C7FF" mask="url(#mask-22)" points="-1.91608392 -2.09394872 7.88158508 -2.09394872 7.88158508 7.46908262 -1.91608392 7.46908262"></polygon>
                </g>
                <g id="分组" transform="translate(130.069930, 86.153846)">
                    <mask id="mask-24" fill="white">
                        <use xlink:href="#path-23"></use>
                    </mask>
                    <g id="Clip-120"></g>
                    <polygon id="Fill-119" fill="#C2E9FF" mask="url(#mask-24)" points="-2.26060606 -2.05693447 19.9305361 -2.05693447 19.9305361 3.87377778 -2.26060606 3.87377778"></polygon>
                </g>
                <g id="分组" transform="translate(112.354312, 27.806268)">
                    <mask id="mask-26" fill="white">
                        <use xlink:href="#path-25"></use>
                    </mask>
                    <g id="Clip-122"></g>
                    <polygon id="Fill-121" fill="#FFFFFF" mask="url(#mask-26)" points="-1.9981352 -1.95245584 52.841958 -1.95245584 52.841958 40.1156467 -1.9981352 40.1156467"></polygon>
                </g>
                <g id="分组" transform="translate(115.151515, 30.541311)">
                    <mask id="mask-28" fill="white">
                        <use xlink:href="#path-27"></use>
                    </mask>
                    <g id="Clip-124"></g>
                    <polygon id="Fill-123" fill="#A2DEFF" mask="url(#mask-28)" points="-2.06853147 -2.00820513 47.3174825 -2.00820513 47.3174825 29.3428148 -2.06853147 29.3428148"></polygon>
                </g>
                <g id="分组" transform="translate(121.678322, 47.407407)">
                    <mask id="mask-30" fill="white">
                        <use xlink:href="#path-29"></use>
                    </mask>
                    <g id="Clip-126"></g>
                    <polygon id="Fill-125" fill="#C2E9FF" mask="url(#mask-30)" points="-2.05034965 -2.26288319 22.24662 -2.26288319 22.24662 3.90308832 -2.05034965 3.90308832"></polygon>
                </g>
                <g id="分组" transform="translate(121.678322, 51.965812)">
                    <mask id="mask-32" fill="white">
                        <use xlink:href="#path-31"></use>
                    </mask>
                    <g id="Clip-128"></g>
                    <polygon id="Fill-127" fill="#C2E9FF" mask="url(#mask-32)" points="-2.05034965 -1.99863248 35.3365967 -1.99863248 35.3365967 4.16733903 -2.05034965 4.16733903"></polygon>
                </g>
                <g id="分组" transform="translate(118.881119, 34.643875)">
                    <mask id="mask-34" fill="white">
                        <use xlink:href="#path-33"></use>
                    </mask>
                    <g id="Clip-130"></g>
                    <polygon id="Fill-129" fill="#FFFFFF" mask="url(#mask-34)" points="-1.97995338 -1.82395442 11.6825175 -1.82395442 11.6825175 11.5047749 -1.97995338 11.5047749"></polygon>
                </g>
                <g id="分组" transform="translate(120.745921, 36.923077)">
                    <mask id="mask-36" fill="white">
                        <use xlink:href="#path-35"></use>
                    </mask>
                    <g id="Clip-132"></g>
                    <polygon id="Fill-131" fill="#61C7FF" mask="url(#mask-36)" points="-1.91608392 -2.21260399 7.88158508 -2.21260399 7.88158508 7.35047293 -1.91608392 7.35047293"></polygon>
                </g>
                <g id="分组" transform="translate(130.069930, 38.746439)">
                    <mask id="mask-38" fill="white">
                        <use xlink:href="#path-37"></use>
                    </mask>
                    <g id="Clip-134"></g>
                    <polygon id="Fill-133" fill="#C2E9FF" mask="url(#mask-38)" points="-2.26060606 -2.17554416 19.9305361 -2.17554416 19.9305361 3.75512251 -2.26060606 3.75512251"></polygon>
                </g>
                <g id="分组" transform="translate(65.268065, 38.290598)">
                    <mask id="mask-40" fill="white">
                        <use xlink:href="#path-39"></use>
                    </mask>
                    <g id="Clip-136"></g>
                    <polygon id="Fill-135" fill="#FFFFFF" mask="url(#mask-40)" points="-1.91421911 -1.86379487 60.2941725 -1.86379487 60.2941725 53.9515442 -1.91421911 53.9515442"></polygon>
                </g>
                <g id="分组" transform="translate(69.463869, 41.025641)">
                    <mask id="mask-42" fill="white">
                        <use xlink:href="#path-41"></use>
                    </mask>
                    <g id="Clip-138"></g>
                    <polygon id="Fill-137" fill="#FBDF86" mask="url(#mask-42)" points="-0.971095571 -2.0194188 53.181352 -0.170393162 51.7519814 39.8499829 -2.4004662 38.0010028"></polygon>
                </g>
                <g id="分组" transform="translate(57.808858, 35.099715)">
                    <mask id="mask-44" fill="white">
                        <use xlink:href="#path-43"></use>
                    </mask>
                    <g id="Clip-140"></g>
                    <polygon id="Fill-139" fill="#F0E0CB" mask="url(#mask-44)" points="-2.09076923 -1.888 19.4219114 -1.888 19.4219114 8.51774359 -2.09076923 8.51774359"></polygon>
                </g>
                <g id="分组" transform="translate(80.652681, 82.962963)">
                    <mask id="mask-46" fill="white">
                        <use xlink:href="#path-45"></use>
                    </mask>
                    <g id="Clip-142"></g>
                    <polygon id="Fill-141" fill="#F0E0CB" mask="url(#mask-46)" points="-2.02703963 -2.06039886 12.0358974 -2.06039886 12.0358974 8.57381197 -2.02703963 8.57381197"></polygon>
                </g>
                <g id="分组" transform="translate(37.762238, 87.977208)">
                    <mask id="mask-48" fill="white">
                        <use xlink:href="#path-47"></use>
                    </mask>
                    <g id="Clip-144"></g>
                    <polygon id="Fill-143" fill="#83D3FF" mask="url(#mask-48)" points="-2.22452214 -2.25194302 55.2596737 -2.25194302 55.2596737 57.3136912 -2.22452214 57.3136912"></polygon>
                </g>
                <g id="分组" transform="translate(27.505828, 38.290598)">
                    <mask id="mask-50" fill="white">
                        <use xlink:href="#path-49"></use>
                    </mask>
                    <g id="Clip-146"></g>
                    <polygon id="Fill-145" fill="#4A9FCF" mask="url(#mask-50)" points="-2.33100233 -1.86379487 58.5053613 -1.86379487 58.5053613 58.3397379 -2.33100233 58.3397379"></polygon>
                </g>
                <g id="分组" transform="translate(35.431235, 138.575499)">
                    <mask id="mask-52" fill="white">
                        <use xlink:href="#path-51"></use>
                    </mask>
                    <g id="Clip-148"></g>
                    <polygon id="Fill-147" fill="#474A5B" mask="url(#mask-52)" points="-2.07519814 -1.94426439 17.6414452 -1.94426439 17.6414452 9.77086724 -2.07519814 9.77086724"></polygon>
                </g>
                <g id="分组" transform="translate(80.186480, 139.943020)">
                    <mask id="mask-54" fill="white">
                        <use xlink:href="#path-53"></use>
                    </mask>
                    <g id="Clip-150"></g>
                    <polygon id="Fill-149" fill="#474A5B" mask="url(#mask-54)" points="-1.57249417 -2.35437493 18.2615385 -1.33801481 17.6079254 10.8556718 -2.22610723 9.83931168"></polygon>
                </g>
                <g id="分组" transform="translate(42.424242, 30.541311)">
                    <mask id="mask-56" fill="white">
                        <use xlink:href="#path-55"></use>
                    </mask>
                    <g id="Clip-152"></g>
                    <polygon id="Fill-151" fill="#F0E0CB" mask="url(#mask-56)" points="-1.97780886 -2.1522963 15.9452681 -2.1522963 15.9452681 16.7971282 -1.97780886 16.7971282"></polygon>
                </g>
                <g id="分组" transform="translate(38.694639, 25.071225)">
                    <mask id="mask-58" fill="white">
                        <use xlink:href="#path-57"></use>
                    </mask>
                    <g id="Clip-154"></g>
                    <polygon id="Fill-153" fill="#474A5B" mask="url(#mask-58)" points="-2.06610723 -2.04075214 26.8289044 -2.04075214 26.8289044 17.4706781 -2.06610723 17.4706781"></polygon>
                </g>
                <g id="分组" transform="translate(79.254079, 46.039886)">
                    <mask id="mask-60" fill="white">
                        <use xlink:href="#path-59"></use>
                    </mask>
                    <g id="Clip-156"></g>
                    <polygon id="Fill-155" fill="#FFFFFF" mask="url(#mask-60)" points="-0.706293706 -2.97148718 14.2265734 -0.658871795 11.8536131 13.990792 -3.07925408 11.6781766"></polygon>
                </g>
                <g id="分组" transform="translate(81.585082, 48.319088)">
                    <mask id="mask-62" fill="white">
                        <use xlink:href="#path-61"></use>
                    </mask>
                    <g id="Clip-158"></g>
                    <polygon id="Fill-157" fill="#F7C472" mask="url(#mask-62)" points="-1.17855478 -2.72050142 9.31981352 -1.09470085 7.65268065 9.1979943 -2.84568765 7.57219373"></polygon>
                </g>
                <g id="分组" transform="translate(76.923077, 58.803419)">
                    <mask id="mask-64" fill="white">
                        <use xlink:href="#path-63"></use>
                    </mask>
                    <g id="Clip-160"></g>
                    <polygon id="Fill-159" fill="#FBEFC2" mask="url(#mask-64)" points="-1.53986014 -2.29821083 36.5631702 2.93784615 35.6857809 9.04382906 -2.41771562 3.80777208"></polygon>
                </g>
                <g id="分组" transform="translate(76.456876, 64.273504)">
                    <mask id="mask-66" fill="white">
                        <use xlink:href="#path-65"></use>
                    </mask>
                    <g id="Clip-162"></g>
                    <polygon id="Fill-161" fill="#FBEFC2" mask="url(#mask-66)" points="-1.61911422 -2.41413105 23.165035 0.991635328 22.2871795 7.09757265 -2.4969697 3.69180627"></polygon>
                </g>
                <g id="分组" transform="translate(92.307692, 49.230769)">
                    <mask id="mask-68" fill="white">
                        <use xlink:href="#path-67"></use>
                    </mask>
                    <g id="Clip-164"></g>
                    <polygon id="Fill-163" fill="#FBEFC2" mask="url(#mask-68)" points="-1.65314685 -2.37930484 10.988345 -0.642096866 10.1109557 5.46384046 -2.53053613 3.72667806"></polygon>
                </g>
                <g id="分组" transform="translate(91.841492, 52.877493)">
                    <mask id="mask-70" fill="white">
                        <use xlink:href="#path-69"></use>
                    </mask>
                    <g id="Clip-166"></g>
                    <polygon id="Fill-165" fill="#FBEFC2" mask="url(#mask-70)" points="-1.8041958 -2.27304843 16.9463869 0.303635328 16.1407925 5.90796581 -2.60979021 3.33132764"></polygon>
                </g>
            </g>
        </g>
    </g>
</svg>