<?xml version="1.0" encoding="UTF-8"?>
<svg width="14px" height="14px" viewBox="0 0 14 14" version="1.1" xmlns="http://www.w3.org/2000/svg" xmlns:xlink="http://www.w3.org/1999/xlink">
    <!-- Generator: Sketch 52.4 (67378) - http://www.bohemiancoding.com/sketch -->
    <title>Fill 1 Copy 4</title>
    <desc>Created with Sketch.</desc>
    <g id="聊天" stroke="none" stroke-width="1" fill="none" fill-rule="evenodd">
        <g id="赞赏" transform="translate(-744.000000, -405.000000)" fill="#EFA019">
            <path d="M745.82355,418.822034 L745.631769,418.822034 C744.731788,418.822034 744,418.108687 744,417.231346 L744,411.751723 C744,410.874382 744.731788,410.161017 745.631769,410.161017 L745.82355,410.161017 C746.72355,410.161017 747.455319,410.874382 747.455319,411.751723 L747.455319,417.23282 C747.455319,418.108687 746.72355,418.822034 745.82355,418.822034 Z M754.853689,419 L754.829991,419 C754.207423,418.994083 753.571545,418.992645 753.025876,418.992645 L752.106008,418.992645 C751.517434,418.992645 750.888933,418.992645 750.256031,418.985235 L750.2486,418.985235 C749.862644,418.97342 749.487004,418.895302 749.129146,418.749352 C748.451824,418.485396 748.048104,417.876325 748.05108,417.119865 L748.054038,414.84011 C748.054038,413.55865 748.05548,412.303716 748.065868,411.047361 C748.068845,410.584388 748.34387,410.17297 748.599707,409.9414 C749.294793,409.307352 750.047498,408.519926 750.355094,407.486183 C750.437927,407.204587 750.47194,406.877186 750.507395,406.530633 C750.551797,406.091197 750.718886,405.713695 750.990972,405.437998 C751.268973,405.156309 751.646111,405 752.052789,405 C752.367761,405 752.679775,405.091445 752.980014,405.269873 C753.553781,405.613459 753.932379,406.144265 754.137955,406.89195 C754.441077,407.987534 754.297613,409.027175 754.132039,409.919299 L756.184634,409.919299 C756.435979,409.919299 757.203565,409.919299 757.672335,410.487044 C757.975476,410.854261 758.068624,411.349695 757.950336,411.957255 C757.648655,413.499702 757.278948,415.06862 756.924048,416.535917 C756.807202,417.018117 756.619391,417.451654 756.435979,417.871901 L756.434538,417.874868 L756.35908,418.04891 C756.100285,418.653447 755.55164,419 754.853689,419 Z" id="Fill-1-Copy-4"></path>
        </g>
    </g>
</svg>