<?xml version="1.0" encoding="UTF-8"?>
<svg width="44px" height="44px" viewBox="0 0 44 44" version="1.1" xmlns="http://www.w3.org/2000/svg" xmlns:xlink="http://www.w3.org/1999/xlink">
    <!-- Generator: Sketch 52.4 (67378) - http://www.bohemiancoding.com/sketch -->
    <title>聊天室 copy 4</title>
    <desc>Created with Sketch.</desc>
    <g id="聊天室-copy-4" stroke="none" stroke-width="1" fill="none" fill-rule="evenodd">
        <rect id="矩形" fill="#EAF6FF" fill-rule="nonzero" x="0" y="0" width="44" height="44" rx="4"></rect>
        <path d="M19.3990713,21.4965091 C19.2077583,17.9266364 16.3785409,15.0935455 12.9161583,15.0935455 C9.45377565,15.0935455 6.62455826,17.9266364 6.43324522,21.4965091 C6.42642783,21.5726818 6.42216696,21.6501909 6.42216696,21.7281455 L6.42216696,25.2588182 C6.42216696,26.6450727 7.50698435,27.7792 8.83296696,27.7792 L9.69621913,27.7792 C10.6451148,28.3467091 11.7444191,28.671 12.9161583,28.671 C14.0878974,28.671 15.1867757,28.3467091 16.1360974,27.7792 L16.9993496,27.7792 C18.3249061,27.7792 19.4097235,26.6450727 19.4097235,25.2588182 L19.4097235,21.7281455 C19.4097235,21.6501909 19.4058887,21.5726818 19.3990713,21.4965091" id="Fill-3" fill="#61C7FF" opacity="0.595028832"></path>
        <path d="M11.6972513,22.1740455 C11.6972513,22.9821 11.0704774,23.6373636 10.2975557,23.6373636 C9.52420783,23.6373636 8.89786,22.9821 8.89786,22.1740455 C8.89786,21.3659909 9.52420783,20.7107273 10.2975557,20.7107273 C11.0704774,20.7107273 11.6972513,21.3659909 11.6972513,22.1740455" id="Fill-5" fill="#EAF6FF"></path>
        <path d="M16.9342861,22.1740455 C16.9342861,22.9821 16.3075122,23.6373636 15.5345904,23.6373636 C14.7612426,23.6373636 14.1348948,22.9821 14.1348948,22.1740455 C14.1348948,21.3659909 14.7612426,20.7107273 15.5345904,20.7107273 C16.3075122,20.7107273 16.9342861,21.3659909 16.9342861,22.1740455" id="Fill-7" fill="#EAF6FF"></path>
        <path d="M37.8016964,21.4965091 C37.6016873,17.9266364 34.6438691,15.0935455 31.0241055,15.0935455 C27.4043418,15.0935455 24.4469691,17.9266364 24.2465145,21.4965091 C24.2393873,21.5726818 24.2353782,21.6501909 24.2353782,21.7281455 L24.2353782,25.2588182 C24.2353782,26.6450727 25.3695055,27.7792 26.7553145,27.7792 L27.6582509,27.7792 C28.6498327,28.3467091 29.7991055,28.671 31.0241055,28.671 C32.2491055,28.671 33.3979327,28.3467091 34.3904055,27.7792 L35.2928964,27.7792 C36.6787055,27.7792 37.8128327,26.6450727 37.8128327,25.2588182 L37.8128327,21.7281455 C37.8128327,21.6501909 37.8088236,21.5726818 37.8016964,21.4965091" id="Fill-12" fill="#61C7FF" opacity="0.595028832"></path>
        <path d="M29.7500164,22.1740455 C29.7500164,22.9821 29.0947527,23.6373636 28.2866982,23.6373636 C27.4781982,23.6373636 26.82338,22.9821 26.82338,22.1740455 C26.82338,21.3659909 27.4781982,20.7107273 28.2866982,20.7107273 C29.0947527,20.7107273 29.7500164,21.3659909 29.7500164,22.1740455" id="Fill-14" fill="#EAF6FF"></path>
        <path d="M35.2250982,22.1740455 C35.2250982,22.9821 34.5698345,23.6373636 33.76178,23.6373636 C32.95328,23.6373636 32.2984618,22.9821 32.2984618,22.1740455 C32.2984618,21.3659909 32.95328,20.7107273 33.76178,20.7107273 C34.5698345,20.7107273 35.2250982,21.3659909 35.2250982,22.1740455" id="Fill-16" fill="#EAF6FF"></path>
        <path d="M31.8562194,21.3715417 C31.5632889,16.1466444 27.2341777,12 21.9359361,12 C16.6381417,12 12.3090306,16.1466444 12.0161,21.3715417 C12.0058139,21.4833472 12,21.5960472 12,21.7105361 L12,26.8781889 C12,28.9072361 13.6596417,30.5668777 15.6882417,30.5668777 L17.0093361,30.5668777 C18.4614667,31.3978167 20.1434694,31.8723194 21.9359361,31.8723194 C23.72885,31.8723194 25.4108527,31.3978167 26.8629833,30.5668777 L28.1840777,30.5668777 C30.2122306,30.5668777 31.8723194,28.9072361 31.8723194,26.8781889 L31.8723194,21.7105361 C31.8723194,21.5960472 31.8660583,21.4833472 31.8562194,21.3715417" id="Fill-21" fill="#61C7FF"></path>
        <path d="M19.8617194,22.6389694 C19.8617194,23.8218723 18.9024278,24.7807167 17.7199722,24.7807167 C16.5366222,24.7807167 15.5777778,23.8218723 15.5777778,22.6389694 C15.5777778,21.4560667 16.5366222,20.4972223 17.7199722,20.4972223 C18.9024278,20.4972223 19.8617194,21.4560667 19.8617194,22.6389694" id="Fill-23" fill="#EAF6FF"></path>
        <path d="M27.9112723,22.6389694 C27.9112723,23.8218723 26.9524278,24.7807167 25.769525,24.7807167 C24.5866223,24.7807167 23.6277777,23.8218723 23.6277777,22.6389694 C23.6277777,21.4560667 24.5866223,20.4972223 25.769525,20.4972223 C26.9524278,20.4972223 27.9112723,21.4560667 27.9112723,22.6389694" id="Fill-25" fill="#EAF6FF"></path>
        <path d="M30.1192083,21.9806583 L30.1192083,29.9510528 C31.1156194,29.2891639 31.7752723,28.1572444 31.7752723,26.8781889 L31.7752723,21.7105361 C31.7752723,21.5960473 31.7690111,21.4833473 31.7591723,21.3715417 C31.4756333,16.3197194 27.4193278,12.2763833 22.3621389,12.0138639 L21.8388889,12 C21.8388889,12 30.1192083,14.3890611 30.1192083,21.9806583" id="Fill-27" fill="#5BBDF2"></path>
    </g>
</svg>