<?xml version="1.0" encoding="UTF-8"?>
<svg width="40px" height="40px" viewBox="0 0 40 40" version="1.1" xmlns="http://www.w3.org/2000/svg" xmlns:xlink="http://www.w3.org/1999/xlink">
    <!-- Generator: Sketch 52.4 (67378) - http://www.bohemiancoding.com/sketch -->
    <title>分组 11 copy 2</title>
    <desc>Created with Sketch.</desc>
    <defs>
        <path d="M19.999944,0 C31.028008,0 40,8.971936 40,19.999944 C40,31.028008 31.028008,40 20,40 C8.971936,40 0,31.028008 0,19.999944 C0,8.971936 8.971936,0 19.999944,0 Z" id="path-1"></path>
    </defs>
    <g id="聊天" stroke="none" stroke-width="1" fill="none" fill-rule="evenodd">
        <g id="多选、转发的聊天记录、查看资料、文件" transform="translate(-360.000000, -2374.000000)">
            <g id="分组-5" transform="translate(356.000000, 2374.000000)">
                <g id="分组-11-copy-2" transform="translate(4.000000, 0.000000)">
                    <mask id="mask-2" fill="white">
                        <use xlink:href="#path-1"></use>
                    </mask>
                    <use id="Clip-3" fill="#EAF6FF" xlink:href="#path-1"></use>
                    <g id="分组-4" mask="url(#mask-2)" fill="#32B2F7" fill-rule="nonzero">
                        <g transform="translate(7.666667, 9.000000)" id="合并形状">
                            <path d="M4.00031154,18.0558045 C2.26028271,16.1385364 1.2,13.5930893 1.2,10.8 C1.2,4.8353247 6.0353247,2.4445658e-13 12,2.43360887e-13 L13.2,2.43360887e-13 C19.1646753,2.42265194e-13 24,4.8353247 24,10.8 C24,16.7646753 19.1646753,21.6 13.2,21.6 L12,21.6 C10.618971,21.6 9.29848454,21.3407865 8.08453986,20.8683587 L4.83089633,22.0361234 C4.31107821,22.2226913 3.73843923,21.9525385 3.55187138,21.4327204 C3.49359829,21.2703591 3.47831624,21.0956844 3.50751028,20.9256707 L4.00031154,18.0558045 Z M6.6,13.2 C7.59411255,13.2 8.4,12.3941125 8.4,11.4 C8.4,10.4058875 7.59411255,9.6 6.6,9.6 C5.60588745,9.6 4.8,10.4058875 4.8,11.4 C4.8,12.3941125 5.60588745,13.2 6.6,13.2 Z M12.6,13.2 C13.5941125,13.2 14.4,12.3941125 14.4,11.4 C14.4,10.4058875 13.5941125,9.6 12.6,9.6 C11.6058875,9.6 10.8,10.4058875 10.8,11.4 C10.8,12.3941125 11.6058875,13.2 12.6,13.2 Z M18.6,13.2 C19.5941125,13.2 20.4,12.3941125 20.4,11.4 C20.4,10.4058875 19.5941125,9.6 18.6,9.6 C17.6058875,9.6 16.8,10.4058875 16.8,11.4 C16.8,12.3941125 17.6058875,13.2 18.6,13.2 Z"></path>
                        </g>
                    </g>
                </g>
            </g>
        </g>
    </g>
</svg>