<?xml version="1.0" encoding="UTF-8"?>
<svg width="20px" height="20px" viewBox="0 0 20 20" version="1.1" xmlns="http://www.w3.org/2000/svg" xmlns:xlink="http://www.w3.org/1999/xlink">
    <!-- Generator: Sketch 52.4 (67378) - http://www.bohemiancoding.com/sketch -->
    <title>分组</title>
    <desc>Created with Sketch.</desc>
    <defs>
        <path d="M10,20 C4.4771525,20 0,15.5228475 0,10 C0,4.477155 4.4771525,0 10,0 C15.522845,0 20,4.477155 20,10 C20,15.5228475 15.522845,20 10,20 Z" id="path-1"></path>
        <path d="M10.842495,12.5524 L10.842495,11.01971 C10.842495,10.565385 10.4708,10.19368 10.01648,10.19368 C9.56219,10.19368 9.19048,10.565385 9.19048,11.01971 L9.19048,12.5524 C9.19048,13.006705 9.56219,13.37843 10.01648,13.37843 C10.4708,13.37843 10.842495,13.006705 10.842495,12.5524 Z M14.196275,8.57463 C14.556785,8.57463 14.851775,8.8696 14.851775,9.23014 L14.851775,10.884545 C14.851775,13.554485 12.667275,15.7389835 9.99732,15.7389835 L9.997305,15.7389835 C7.32736,15.7389835 5.142865,13.554485 5.142865,10.884545 L5.142865,9.23014 C5.142865,8.8696 5.437835,8.57463 5.79836,8.57463 L14.196275,8.57463 Z" id="path-3"></path>
        <path d="M13.10923,7.80377 C12.91457,7.80377 12.750425,7.65858 12.726845,7.46535 C12.652895,6.859625 12.380935,6.29933 11.94264,5.86103 C11.423715,5.34211 10.733765,5.05633 9.99989,5.05633 C9.266025,5.05633 8.576075,5.34211 8.05715,5.86103 C7.618855,6.29933 7.34688,6.859625 7.272945,7.46535 C7.249355,7.65858 7.08522,7.80377 6.890545,7.80377 C6.659105,7.80377 6.47998,7.6012 6.507955,7.371435 C6.602455,6.59544 6.95077,5.877595 7.512255,5.31612 C8.176715,4.65166 9.06018,4.285715 9.99989,4.285715 C10.939595,4.285715 11.823075,4.65166 12.487535,5.31612 C13.04901,5.877595 13.397335,6.59544 13.491835,7.371435 C13.519795,7.6012 13.340685,7.80377 13.10923,7.80377 Z" id="path-5"></path>
    </defs>
    <g id="分组" stroke="none" stroke-width="1" fill="none" fill-rule="evenodd">
        <mask id="mask-2" fill="white">
            <use xlink:href="#path-1"></use>
        </mask>
        <use id="Clip-3" fill="#F9EEE7" xlink:href="#path-1"></use>
        <mask id="mask-4" fill="white">
            <use xlink:href="#path-3"></use>
        </mask>
        <use id="Clip-5" fill="#EF883E" xlink:href="#path-3"></use>
        <mask id="mask-6" fill="white">
            <use xlink:href="#path-5"></use>
        </mask>
        <path stroke="#EF883E" stroke-width="0.2" d="M13.10923,7.90377 C12.864006,7.90377 12.6572814,7.72084482 12.627582,7.47746853 C12.5561039,6.89199051 12.2930555,6.35287164 11.8719297,5.93174102 C11.3717596,5.43157574 10.7072453,5.15633 9.99989,5.15633 C9.29254339,5.15633 8.62802954,5.43157663 8.12786108,5.93174027 C7.70672383,6.35288233 7.44366987,6.89200497 7.37220802,7.47746828 C7.34249507,7.72085245 7.13577718,7.90377 6.890545,7.90377 C6.59910621,7.90377 6.37345596,7.6487181 6.40868836,7.35934639 C6.50619397,6.55867056 6.86604304,5.82090035 7.44154432,5.24540932 C8.12476074,4.56219291 9.03366228,4.185715 9.99989,4.185715 C10.9661168,4.185715 11.8750322,4.56219583 12.5582457,5.24540932 C13.1337442,5.82090788 13.4935973,6.55868075 13.5911027,7.35935516 C13.6263164,7.64872836 13.4006752,7.90377 13.10923,7.90377 Z"></path>
    </g>
</svg>