<?xml version="1.0" encoding="UTF-8"?>
<svg width="200px" height="163px" viewBox="0 0 200 163" version="1.1" xmlns="http://www.w3.org/2000/svg" xmlns:xlink="http://www.w3.org/1999/xlink">
    <!-- Generator: Sketch 52.4 (67378) - http://www.bohemiancoding.com/sketch -->
    <title>分组 7</title>
    <desc>Created with Sketch.</desc>
    <defs>
        <path d="M36.5851163,18.5740829 C44.2381395,16.0692386 50.6744186,-4.78451571 69.4218605,1.01390657 C88.1693023,6.81232886 126.777674,42.2586814 149.36093,42.2586814 C171.944186,42.2586814 174.88093,65.2444291 180.786512,78.4656386 C186.691628,91.6868014 203.966977,103.738928 198.828837,121.906117 C193.691163,140.073258 175.370233,133.347459 168.808372,149.318898 C162.246512,165.290383 129.617674,156.726689 99.5195349,161.627726 C69.4218605,166.528764 64.6832558,156.726689 54.595814,156.726689 C44.5083721,156.726689 12.7223256,164.507238 12.7223256,152.018597 C12.7223256,139.529956 39.907907,145.408947 39.907907,136.792813 C39.907907,128.176633 15.6544186,125.600628 19.3227907,104.559517 C22.9916279,83.5184057 3.60883721,95.5855286 3.60883721,78.4656386 C3.60883721,61.345702 -5.46325581,37.342648 5.34,22.63581 C16.1432558,7.92892543 28.9325581,21.0789271 36.5851163,18.5740829 Z" id="path-1"></path>
        <path d="M7.78232558,0.123647143 L58.3451163,0.123647143 C62.4548837,0.123647143 65.7869767,3.45979143 65.7869767,7.57507571 L65.7869767,111.008402 C65.7869767,115.123687 62.4548837,118.459831 58.3451163,118.459831 L7.78232558,118.459831 C3.67255814,118.459831 0.340465116,115.123687 0.340465116,111.008402 L0.340465116,7.57507571 C0.340465116,3.45979143 3.67255814,0.123647143 7.78232558,0.123647143 Z" id="path-3"></path>
        <path d="M2.12651163,0.463106286 L54.2409302,0.463106286 C55.2683721,0.463106286 56.1013953,1.29710743 56.1013953,2.32596343 L56.1013953,91.1510903 C56.1013953,92.1798997 55.2683721,93.0139474 54.2409302,93.0139474 L2.12651163,93.0139474 C1.09906977,93.0139474 0.266046512,92.1798997 0.266046512,91.1510903 L0.266046512,2.32596343 C0.266046512,1.29710743 1.09906977,0.463106286 2.12651163,0.463106286 Z" id="path-5"></path>
        <path d="M5.15674419,9.97471514 C2.5027907,9.97471514 0.351162791,7.81012171 0.351162791,5.13994886 C0.351162791,2.46982257 2.5027907,0.305229143 5.15674419,0.305229143 C7.81069767,0.305229143 9.96232558,2.46982257 9.96232558,5.13994886 C9.96232558,7.81012171 7.81069767,9.97471514 5.15674419,9.97471514 Z" id="path-7"></path>
        <path d="M1.32325581,0.0710214286 L16.4172093,0.0710214286 C16.9251163,0.0710214286 17.3372093,0.483364857 17.3372093,0.991924857 C17.3372093,1.50053143 16.9251163,1.91282829 16.4172093,1.91282829 L1.32325581,1.91282829 C0.815348837,1.91282829 0.403255814,1.50053143 0.403255814,0.991924857 C0.403255814,0.483364857 0.815348837,0.0710214286 1.32325581,0.0710214286 Z" id="path-9"></path>
        <path d="M1.08465116,0.376250571 L41.3293023,0.376250571 C41.8432558,0.376250571 42.2595349,0.793251143 42.2595349,1.30767914 L42.2595349,31.676442 C42.2595349,32.19087 41.8432558,32.6078706 41.3293023,32.6078706 L1.08465116,32.6078706 C0.570697674,32.6078706 0.154418605,32.19087 0.154418605,31.676442 L0.154418605,1.30767914 C0.154418605,0.793251143 0.570697674,0.376250571 1.08465116,0.376250571 Z" id="path-11"></path>
        <path d="M1.04744186,0.349937714 L36.7153488,0.349937714 C37.2293023,0.349937714 37.6455814,0.766938286 37.6455814,1.28136629 L37.6455814,22.4410949 C37.6455814,22.9555229 37.2293023,23.3725234 36.7153488,23.3725234 L1.04744186,23.3725234 C0.533488372,23.3725234 0.117209302,22.9555229 0.117209302,22.4410949 L0.117209302,1.28136629 C0.117209302,0.766938286 0.533488372,0.349937714 1.04744186,0.349937714 Z" id="path-13"></path>
        <path d="M0.717674419,0.186798 L15.8139535,0.186798 C16.1948837,0.186798 16.5037209,0.496032286 16.5037209,0.877498857 C16.5037209,1.25891886 16.1948837,1.56815314 15.8139535,1.56815314 L0.717674419,1.56815314 C0.33627907,1.56815314 0.0274418605,1.25891886 0.0274418605,0.877498857 C0.0274418605,0.496032286 0.33627907,0.186798 0.717674419,0.186798 Z" id="path-15"></path>
        <path d="M0.717674419,0.139434857 L26.7976744,0.139434857 C27.1786047,0.139434857 27.4874419,0.448669143 27.4874419,0.830135714 C27.4874419,1.21160229 27.1786047,1.52079 26.7976744,1.52079 L0.717674419,1.52079 C0.33627907,1.52079 0.0274418605,1.21160229 0.0274418605,0.830135714 C0.0274418605,0.448669143 0.33627907,0.139434857 0.717674419,0.139434857 Z" id="path-17"></path>
        <path d="M3.84139535,7.84411886 C1.75581395,7.84411886 0.0651162791,6.15706886 0.0651162791,4.075978 C0.0651162791,1.99488714 1.75581395,0.307837143 3.84139535,0.307837143 C5.92697674,0.307837143 7.61767442,1.99488714 7.61767442,4.075978 C7.61767442,6.15706886 5.92697674,7.84411886 3.84139535,7.84411886 Z" id="path-19"></path>
        <path d="M4.5944186,2.09753057 C4.59627907,2.12170114 4.59767442,2.14615114 4.59767442,2.17088057 L4.59767442,3.28920029 C4.59767442,3.72818257 4.23767442,4.087388 3.79767442,4.087388 L3.51116279,4.087388 C3.19627907,4.26715371 2.83162791,4.36998343 2.4427907,4.36998343 C2.05395349,4.36998343 1.68930233,4.26715371 1.3744186,4.087388 L1.08790698,4.087388 C0.647906977,4.087388 0.287906977,3.72818257 0.287906977,3.28920029 L0.287906977,2.17088057 C0.287906977,2.14615114 0.289302326,2.12170114 0.291627907,2.09753057 C0.354883721,0.966869429 1.29395349,0.0695311429 2.4427907,0.0695311429 C3.59162791,0.0695311429 4.53069767,0.966869429 4.5944186,2.09753057 Z M2.03860465,2.31213171 C2.03860465,2.05617514 1.83023256,1.84865286 1.57395349,1.84865286 C1.3172093,1.84865286 1.10930233,2.05617514 1.10930233,2.31213171 C1.10930233,2.56813486 1.3172093,2.77565714 1.57395349,2.77565714 C1.83023256,2.77565714 2.03860465,2.56813486 2.03860465,2.31213171 Z M3.77627907,2.31213171 C3.77627907,2.05617514 3.56837209,1.84865286 3.31162791,1.84865286 C3.05534884,1.84865286 2.84744186,2.05617514 2.84744186,2.31213171 C2.84744186,2.56813486 3.05534884,2.77565714 3.31162791,2.77565714 C3.56837209,2.77565714 3.77627907,2.56813486 3.77627907,2.31213171 Z" id="path-21"></path>
        <path d="M0.972093023,0.270999143 L14.4990698,0.270999143 C14.8255814,0.270999143 15.0897674,0.534966 15.0897674,0.860593429 C15.0897674,1.18622086 14.8255814,1.45023429 14.4990698,1.45023429 L0.972093023,1.45023429 C0.645581395,1.45023429 0.380930233,1.18622086 0.380930233,0.860593429 C0.380930233,0.534966 0.645581395,0.270999143 0.972093023,0.270999143 Z" id="path-23"></path>
        <path d="M1.08465116,0.378905143 L41.3293023,0.378905143 C41.8432558,0.378905143 42.2595349,0.795905714 42.2595349,1.31033371 L42.2595349,31.6790966 C42.2595349,32.1935246 41.8432558,32.6105251 41.3293023,32.6105251 L1.08465116,32.6105251 C0.570697674,32.6105251 0.154418605,32.1935246 0.154418605,31.6790966 L0.154418605,1.31033371 C0.154418605,0.795905714 0.570697674,0.378905143 1.08465116,0.378905143 Z" id="path-25"></path>
        <path d="M1.04744186,0.352592286 L36.7153488,0.352592286 C37.2293023,0.352592286 37.6455814,0.769592857 37.6455814,1.28402086 L37.6455814,22.4437494 C37.6455814,22.9581774 37.2293023,23.375178 36.7153488,23.375178 L1.04744186,23.375178 C0.533488372,23.375178 0.117209302,22.9581774 0.117209302,22.4437494 L0.117209302,1.28402086 C0.117209302,0.769592857 0.533488372,0.352592286 1.04744186,0.352592286 Z" id="path-27"></path>
        <path d="M0.717674419,0.189452571 L15.8139535,0.189452571 C16.1948837,0.189452571 16.5037209,0.498686857 16.5037209,0.880106857 C16.5037209,1.26157343 16.1948837,1.57080771 15.8139535,1.57080771 L0.717674419,1.57080771 C0.33627907,1.57080771 0.0274418605,1.26157343 0.0274418605,0.880106857 C0.0274418605,0.498686857 0.33627907,0.189452571 0.717674419,0.189452571 Z" id="path-29"></path>
        <path d="M0.717674419,0.142089429 L26.7976744,0.142089429 C27.1786047,0.142089429 27.4874419,0.451323714 27.4874419,0.832743714 C27.4874419,1.21421029 27.1786047,1.52344457 26.7976744,1.52344457 L0.717674419,1.52344457 C0.33627907,1.52344457 0.0274418605,1.21421029 0.0274418605,0.832743714 C0.0274418605,0.451323714 0.33627907,0.142089429 0.717674419,0.142089429 Z" id="path-31"></path>
        <path d="M3.84139535,7.84672686 C1.75581395,7.84672686 0.0651162791,6.15967686 0.0651162791,4.07863257 C0.0651162791,1.99754171 1.75581395,0.310491714 3.84139535,0.310491714 C5.92697674,0.310491714 7.61767442,1.99754171 7.61767442,4.07863257 C7.61767442,6.15967686 5.92697674,7.84672686 3.84139535,7.84672686 Z" id="path-33"></path>
        <path d="M4.5944186,2.10013857 C4.59627907,2.12430914 4.59767442,2.14875914 4.59767442,2.17353514 L4.59767442,3.29180829 C4.59767442,3.73083714 4.23767442,4.089996 3.79767442,4.089996 L3.51116279,4.089996 C3.19627907,4.26980829 2.83162791,4.37259143 2.4427907,4.37259143 C2.05395349,4.37259143 1.68930233,4.26980829 1.3744186,4.089996 L1.08790698,4.089996 C0.647906977,4.089996 0.287906977,3.73083714 0.287906977,3.29180829 L0.287906977,2.17353514 C0.287906977,2.14875914 0.289302326,2.12430914 0.291627907,2.10013857 C0.354883721,0.969524 1.29395349,0.0721857143 2.4427907,0.0721857143 C3.59162791,0.0721857143 4.53069767,0.969524 4.5944186,2.10013857 Z M2.03860465,2.31478629 C2.03860465,2.05882971 1.83023256,1.85130743 1.57395349,1.85130743 C1.3172093,1.85130743 1.10930233,2.05882971 1.10930233,2.31478629 C1.10930233,2.57074286 1.3172093,2.77826514 1.57395349,2.77826514 C1.83023256,2.77826514 2.03860465,2.57074286 2.03860465,2.31478629 Z M3.77627907,2.31478629 C3.77627907,2.05882971 3.56837209,1.85130743 3.31162791,1.85130743 C3.05534884,1.85130743 2.84744186,2.05882971 2.84744186,2.31478629 C2.84744186,2.57074286 3.05534884,2.77826514 3.31162791,2.77826514 C3.56837209,2.77826514 3.77627907,2.57074286 3.77627907,2.31478629 Z" id="path-35"></path>
        <path d="M0.972093023,0.273653714 L14.4990698,0.273653714 C14.8255814,0.273653714 15.0897674,0.537620571 15.0897674,0.863248 C15.0897674,1.18887543 14.8255814,1.45284229 14.4990698,1.45284229 L0.972093023,1.45284229 C0.645581395,1.45284229 0.380930233,1.18887543 0.380930233,0.863248 C0.380930233,0.537620571 0.645581395,0.273653714 0.972093023,0.273653714 Z" id="path-37"></path>
        <polygon id="path-39" points="4.75906977 0.273653714 48.6176744 5.91471114 42.315814 44.3181166 0.329767442 36.4729266"></polygon>
        <polygon id="path-41" points="3.8544186 0.317430857 42.7167442 5.42347571 38.2818605 32.0328531 0.456744186 24.8897274"></polygon>
        <path d="M0.434418605,3.41624714 C2.78604651,1.37483514 4.80883721,0.354082571 6.5027907,0.354082571 C9.04372093,0.354082571 12.8167442,-0.120061143 13.8065116,1.88516486 C14.2706977,2.825116 15.2716279,4.28131143 13.8065116,4.28131143 C12.8237209,4.28131143 12.94,2.31287686 11.3651163,2.31287686 C9.78976744,2.31287686 12.2306977,2.76736743 12.2306977,3.70131086 C12.2306977,4.63520771 6.28697674,3.92741514 4.90232558,4.28131143 C3.97906977,4.51724229 2.94093023,4.86671429 1.78790698,5.329774 L0.434418605,3.41624714 Z" id="path-43"></path>
        <path d="M2.06139535,0.302574571 C4.60976744,2.28344371 6.15395349,3.27383171 6.6944186,3.27383171 C7.50511628,3.27383171 8.00976744,3.37554371 8.00976744,4.05236629 C8.00976744,4.72923543 6.97534884,6.111196 3.76511628,5.24836714 C1.62511628,4.67311686 0.410232558,3.70908829 0.121395349,2.35637457 L2.06139535,0.302574571 Z" id="path-45"></path>
        <path d="M8.42883721,4.563674 C21.6502326,0.326884857 29.7013953,-0.785147714 32.5823256,1.22752971 C36.904186,4.24656914 40.3846512,14.4733289 41.9553488,18.2578163 C43.0023256,20.7808234 43.8734884,29.6485823 44.5683721,44.8609997 C43.9293023,46.0710651 43.0581395,46.8876486 41.9553488,47.31075 C40.852093,47.733898 39.5534884,47.522324 38.0586047,46.6760746 C37.5404651,43.0999943 37.2813953,40.1037283 37.2813953,37.68723 C37.2813953,34.0625291 34.0930233,24.7123369 33.1883721,21.8161994 C32.284186,18.920062 22.3130233,6.979008 21.1827907,6.979008 C20.0525581,6.979008 19.352093,20.9371637 17.3437209,23.5481909 C16.0046512,25.2888446 12.4460465,32.3931297 6.66744186,44.8609997 C4.35395349,45.3852077 2.94232558,45.6182511 2.43302326,45.5600834 C1.92325581,45.5019157 1.19395349,45.0245586 0.244651163,44.128012 C2.74325581,36.6523663 4.42465116,31.6213014 5.28930233,29.0346777 C6.58604651,25.154812 10.2390698,23.654886 10.9460465,21.8161994 C11.4176744,20.5904394 10.5786047,14.8395666 8.42883721,4.563674 Z" id="path-47"></path>
        <path d="M25.5869767,0.273653714 C26.8632558,0.848438286 27.5018605,1.74396029 27.5018605,2.96012657 C27.5018605,4.17633943 25.047907,5.82315171 20.1404651,7.90051686 C22.6832558,8.41815829 24.8195349,9.06512857 26.5488372,9.84142771 C29.1427907,11.0058531 31.2255814,21.6970231 33.6706977,24.0961503 C35.3004651,25.6955994 39.9181395,30.5641766 47.5232558,38.7017886 L44.8972093,41.5905677 L40.9186047,38.7017886 C41.76,40.048122 42.1804651,41.4822891 42.1804651,43.0043366 C42.1804651,45.2873611 38.067907,46.3887289 26.5488372,47.8715166 C18.8697674,48.8599951 11.0934884,46.4766091 3.22093023,40.7212654 C4.93069767,32.2963077 5.7855814,26.9721689 5.7855814,24.7488023 C5.7855814,21.4137757 -1.32,10.6589891 0.771627907,7.90051686 C2.86372093,5.14204457 7.40744186,3.84512343 12.6618605,3.443864 C16.1651163,3.17635771 20.4730233,2.11960543 25.5869767,0.273653714 Z" id="path-49"></path>
        <path d="M8.0655814,1.11575829 C8.93023256,2.16785343 9.71488372,2.69387771 10.42,2.69387771 C11.4781395,2.69387771 12.9069767,2.65163743 12.9069767,4.02619314 C12.9069767,4.820562 9.4544186,4.98630971 6.31069767,5.44014829 C4.01395349,5.77164371 1.8944186,6.57076286 1.3455814,6.32426029 C0.0446511628,5.740208 0.0288372093,3.14715743 0.763255814,2.13148114 C1.25302326,1.45433257 1.82651163,0.817514857 2.48418605,0.221028 L8.0655814,1.11575829 Z" id="path-51"></path>
        <path d="M8.74046512,1.60401314 C9.40372093,2.35390629 10.1116279,2.74864571 10.8646512,2.78818486 C11.9944186,2.84742371 13.0702326,3.51227743 12.9934884,4.979976 C12.9493023,5.82813486 10.0069767,5.814536 6.62465116,6.122932 C4.1544186,6.34824457 1.84651163,7.08276914 1.27395349,6.78876371 C-0.0823255814,6.092288 0.0460465116,3.32268514 0.886976744,2.27934543 C1.44744186,1.58380114 2.09534884,0.935946 2.83069767,0.335873143 L8.74046512,1.60401314 Z" id="path-53"></path>
        <path d="M10.6651163,0.352592286 C11.7386047,3.67830457 11.4618605,6.05377343 9.83627907,7.47899886 C8.21023256,8.90427086 6.71906977,9.43360171 5.36372093,9.06708457 L5.36372093,12.7186106 C3.80697674,11.809024 2.67534884,11.2028503 1.96837209,10.9000894 C1.26093023,10.597282 0.664186047,10.4089006 0.177674419,10.3349917 L0.177674419,6.70283943 L10.6651163,0.352592286 Z" id="path-55"></path>
        <path d="M4.50651163,2.22341314 C7.57162791,0.405218 10.3013953,-0.0493657143 12.6967442,0.859755143 C16.2893023,2.22341314 15.4939535,3.61790143 17.2753488,3.61790143 C19.0562791,3.61790143 20.564186,1.97118229 20.564186,3.61790143 C20.564186,5.26466714 19.3860465,6.68453686 17.2753488,6.68453686 C15.164186,6.68453686 14.9725581,5.74421314 14.0776744,6.68453686 C13.1823256,7.62490714 13.1623256,9.03727886 11.3432558,9.71330971 C9.52418605,10.389294 8.45023256,9.38991771 7.40604651,10.389294 C6.36186047,11.3886237 5.15116279,13.2541354 3.52883721,13.2541354 C1.90604651,13.2541354 -0.547906977,9.52404343 0.469302326,6.24951314 C1.14790698,4.06647743 2.49348837,2.72442857 4.50651163,2.22341314 Z" id="path-57"></path>
        <path d="M4.07534884,9.14970229 C1.68232558,8.77014514 0.0506976744,6.510546 0.431627907,4.10271 C0.81255814,1.694874 3.06139535,0.0506231429 5.45488372,0.430180286 C7.84790698,0.809737429 9.47953488,3.06933657 9.09860465,5.47717257 C8.71767442,7.88500857 6.46883721,9.52921286 4.07534884,9.14970229 Z" id="path-59"></path>
        <path d="M5.39116279,3.18427486 C5.38930233,3.21268343 5.38604651,3.24118514 5.38186047,3.26982657 L5.1772093,4.563674 C5.09674419,5.07162857 4.61767442,5.421706 4.11302326,5.34164971 L3.78418605,5.28948971 C3.38976744,5.44024143 2.95255814,5.492774 2.50651163,5.422032 C2.06046512,5.35129 1.66046512,5.16593571 1.33209302,4.90061829 L1.00325581,4.84850486 C0.498604651,4.768402 0.151162791,4.28731914 0.231627907,3.77941114 L0.43627907,2.48551714 C0.440465116,2.45687571 0.446511628,2.42883971 0.453488372,2.40126943 C0.733488372,1.10467429 1.97488372,0.237281429 3.29348837,0.446387143 C4.61209302,0.655492857 5.52511628,1.86453371 5.39116279,3.18427486 Z M2.41906977,2.96753143 C2.4655814,2.67133714 2.26511628,2.39339886 1.97069767,2.34668771 C1.67627907,2.30002314 1.39953488,2.50228286 1.35302326,2.79843057 C1.30604651,3.09462486 1.50651163,3.37256314 1.80093023,3.41922771 C2.09534884,3.46593886 2.37209302,3.26367914 2.41906977,2.96753143 Z M4.41302326,3.283798 C4.46,2.98760371 4.25953488,2.70966543 3.96511628,2.66295429 C3.67069767,2.61628971 3.39395349,2.81854943 3.34697674,3.11469714 C3.30046512,3.41089143 3.50093023,3.68882971 3.79534884,3.73549429 C4.08976744,3.78220543 4.36651163,3.57994571 4.41302326,3.283798 Z" id="path-61"></path>
        <path d="M1.04790698,0.1793 L27.7809302,3.94120029 C28.1581395,3.99429171 28.4213953,4.34353086 28.3683721,4.72127171 C28.3153488,5.09901257 27.9665116,5.36218771 27.5893023,5.30909629 L0.85627907,1.547196 C0.479069767,1.49410457 0.215813953,1.14486543 0.268837209,0.767124571 C0.321860465,0.389383714 0.670697674,0.126208571 1.04790698,0.1793 Z" id="path-63"></path>
        <path d="M1.05534884,0.122902 L16.612093,2.31203857 C16.9893023,2.36513 17.2525581,2.71436914 17.1995349,3.09211 C17.1465116,3.46985086 16.7976744,3.733026 16.4204651,3.67998114 L0.86372093,1.490798 C0.486511628,1.43770657 0.223255814,1.08846743 0.27627907,0.710726571 C0.329302326,0.332985714 0.678139535,0.0698105714 1.05534884,0.122902 Z" id="path-65"></path>
        <path d="M0.839534884,0.266807714 L6.20697674,1.02214971 C6.58465116,1.07524114 6.84744186,1.42448029 6.7944186,1.80222114 C6.74139535,2.179962 6.39255814,2.44313714 6.01534884,2.39004571 L0.64744186,1.63470371 C0.270232558,1.58161229 0.00744186047,1.23237314 0.0604651163,0.854632286 C0.113488372,0.476891429 0.462325581,0.213716286 0.839534884,0.266807714 Z" id="path-67"></path>
        <path d="M0.571162791,0.201374857 L11.4953488,1.73865114 C11.7539535,1.77502343 11.9339535,2.01421429 11.8976744,2.27296514 C11.8613953,2.53166943 11.6223256,2.71190086 11.364186,2.67552857 L0.44,1.13829886 C0.181395349,1.10192657 0.00139534884,0.862735714 0.0376744186,0.603984857 C0.0739534884,0.345280571 0.313023256,0.165049143 0.571162791,0.201374857 Z" id="path-69"></path>
    </defs>
    <g id="聊天" stroke="none" stroke-width="1" fill="none" fill-rule="evenodd">
        <g id="群消息-copy" transform="translate(-490.000000, -1168.000000)">
            <g id="分组-7" transform="translate(490.000000, 1168.000000)">
                <g id="分组">
                    <mask id="mask-2" fill="white">
                        <use xlink:href="#path-1"></use>
                    </mask>
                    <g id="Clip-403"></g>
                    <polygon id="Fill-402" fill="#E4F5FE" mask="url(#mask-2)" points="-2.28093023 -2.32857143 202.096744 -2.32857143 202.096744 165.328571 -2.28093023 165.328571"></polygon>
                </g>
                <g id="分组" transform="translate(93.023256, 29.805714)">
                    <mask id="mask-4" fill="white">
                        <use xlink:href="#path-3"></use>
                    </mask>
                    <g id="Clip-405"></g>
                    <polygon id="Fill-404" fill="#AEDAF2" mask="url(#mask-4)" points="-1.98511628 -2.20492429 68.1125581 -2.20492429 68.1125581 120.788402 -1.98511628 120.788402"></polygon>
                </g>
                <g id="分组" transform="translate(97.674419, 40.517143)">
                    <mask id="mask-6" fill="white">
                        <use xlink:href="#path-5"></use>
                    </mask>
                    <g id="Clip-407"></g>
                    <polygon id="Fill-406" fill="#F3F7FA" mask="url(#mask-6)" points="-2.05953488 -1.86546514 58.4269767 -1.86546514 58.4269767 95.3425189 -2.05953488 95.3425189"></polygon>
                </g>
                <g id="分组" transform="translate(120.930233, 135.988571)">
                    <mask id="mask-8" fill="white">
                        <use xlink:href="#path-7"></use>
                    </mask>
                    <g id="Clip-409"></g>
                    <polygon id="Fill-408" fill="#FFFFFF" mask="url(#mask-8)" points="-1.9744186 -2.02334229 12.287907 -2.02334229 12.287907 12.3032866 -1.9744186 12.3032866"></polygon>
                </g>
                <g id="分组" transform="translate(117.674419, 34.462857)">
                    <mask id="mask-10" fill="white">
                        <use xlink:href="#path-9"></use>
                    </mask>
                    <g id="Clip-411"></g>
                    <polygon id="Fill-410" fill="#FFFFFF" mask="url(#mask-10)" points="-1.92232558 -2.25755 19.6627907 -2.25755 19.6627907 4.24139971 -1.92232558 4.24139971"></polygon>
                </g>
                <g id="分组" transform="translate(104.651163, 88.951429)">
                    <mask id="mask-12" fill="white">
                        <use xlink:href="#path-11"></use>
                    </mask>
                    <g id="Clip-413"></g>
                    <polygon id="Fill-412" fill="#FFFFFF" mask="url(#mask-12)" points="-2.17116279 -1.95232086 44.5851163 -1.95232086 44.5851163 34.936442 -2.17116279 34.936442"></polygon>
                </g>
                <g id="分组" transform="translate(106.976744, 91.280000)">
                    <mask id="mask-14" fill="white">
                        <use xlink:href="#path-13"></use>
                    </mask>
                    <g id="Clip-415"></g>
                    <polygon id="Fill-414" fill="#A2DEFF" mask="url(#mask-14)" points="-2.20837209 -1.97863371 39.9711628 -1.97863371 39.9711628 25.7010949 -2.20837209 25.7010949"></polygon>
                </g>
                <g id="分组" transform="translate(112.558140, 105.717143)">
                    <mask id="mask-16" fill="white">
                        <use xlink:href="#path-15"></use>
                    </mask>
                    <g id="Clip-417"></g>
                    <polygon id="Fill-416" fill="#C2E9FF" mask="url(#mask-16)" points="-2.29813953 -2.14177343 18.8293023 -2.14177343 18.8293023 3.89672457 -2.29813953 3.89672457"></polygon>
                </g>
                <g id="分组" transform="translate(112.558140, 109.908571)">
                    <mask id="mask-18" fill="white">
                        <use xlink:href="#path-17"></use>
                    </mask>
                    <g id="Clip-419"></g>
                    <polygon id="Fill-418" fill="#C2E9FF" mask="url(#mask-18)" points="-2.29813953 -2.18913657 29.8130233 -2.18913657 29.8130233 3.84936143 -2.29813953 3.84936143"></polygon>
                </g>
                <g id="分组" transform="translate(110.232558, 95.005714)">
                    <mask id="mask-20" fill="white">
                        <use xlink:href="#path-19"></use>
                    </mask>
                    <g id="Clip-421"></g>
                    <polygon id="Fill-420" fill="#FFFFFF" mask="url(#mask-20)" points="-2.26046512 -2.02073429 9.94325581 -2.02073429 9.94325581 10.1726903 -2.26046512 10.1726903"></polygon>
                </g>
                <g id="分组" transform="translate(111.627907, 96.868571)">
                    <mask id="mask-22" fill="white">
                        <use xlink:href="#path-21"></use>
                    </mask>
                    <g id="Clip-423"></g>
                    <polygon id="Fill-422" fill="#61C7FF" mask="url(#mask-22)" points="-2.03767442 -2.25904029 6.92325581 -2.25904029 6.92325581 6.69855486 -2.03767442 6.69855486"></polygon>
                </g>
                <g id="分组" transform="translate(119.069767, 98.265714)">
                    <mask id="mask-24" fill="white">
                        <use xlink:href="#path-23"></use>
                    </mask>
                    <g id="Clip-425"></g>
                    <polygon id="Fill-424" fill="#C2E9FF" mask="url(#mask-24)" points="-1.94465116 -2.05757229 17.4153488 -2.05757229 17.4153488 3.77880571 -1.94465116 3.77880571"></polygon>
                </g>
                <g id="分组" transform="translate(104.651163, 47.968571)">
                    <mask id="mask-26" fill="white">
                        <use xlink:href="#path-25"></use>
                    </mask>
                    <g id="Clip-427"></g>
                    <polygon id="Fill-426" fill="#FFFFFF" mask="url(#mask-26)" points="-2.17116279 -1.94966629 44.5851163 -1.94966629 44.5851163 34.9390966 -2.17116279 34.9390966"></polygon>
                </g>
                <g id="分组" transform="translate(106.976744, 50.297143)">
                    <mask id="mask-28" fill="white">
                        <use xlink:href="#path-27"></use>
                    </mask>
                    <g id="Clip-429"></g>
                    <polygon id="Fill-428" fill="#A2DEFF" mask="url(#mask-28)" points="-2.20837209 -1.97597914 39.9711628 -1.97597914 39.9711628 25.7037494 -2.20837209 25.7037494"></polygon>
                </g>
                <g id="分组" transform="translate(112.558140, 64.734286)">
                    <mask id="mask-30" fill="white">
                        <use xlink:href="#path-29"></use>
                    </mask>
                    <g id="Clip-431"></g>
                    <polygon id="Fill-430" fill="#C2E9FF" mask="url(#mask-30)" points="-2.29813953 -2.13911886 18.8293023 -2.13911886 18.8293023 3.89937914 -2.29813953 3.89937914"></polygon>
                </g>
                <g id="分组" transform="translate(112.558140, 68.925714)">
                    <mask id="mask-32" fill="white">
                        <use xlink:href="#path-31"></use>
                    </mask>
                    <g id="Clip-433"></g>
                    <polygon id="Fill-432" fill="#C2E9FF" mask="url(#mask-32)" points="-2.29813953 -2.186482 29.8130233 -2.186482 29.8130233 3.852016 -2.29813953 3.852016"></polygon>
                </g>
                <g id="分组" transform="translate(110.232558, 54.022857)">
                    <mask id="mask-34" fill="white">
                        <use xlink:href="#path-33"></use>
                    </mask>
                    <g id="Clip-435"></g>
                    <polygon id="Fill-434" fill="#FFFFFF" mask="url(#mask-34)" points="-2.26046512 -2.01807971 9.94325581 -2.01807971 9.94325581 10.1752983 -2.26046512 10.1752983"></polygon>
                </g>
                <g id="分组" transform="translate(111.627907, 55.885714)">
                    <mask id="mask-36" fill="white">
                        <use xlink:href="#path-35"></use>
                    </mask>
                    <g id="Clip-437"></g>
                    <polygon id="Fill-436" fill="#61C7FF" mask="url(#mask-36)" points="-2.03767442 -2.25638571 6.92325581 -2.25638571 6.92325581 6.70116286 -2.03767442 6.70116286"></polygon>
                </g>
                <g id="分组" transform="translate(119.069767, 57.282857)">
                    <mask id="mask-38" fill="white">
                        <use xlink:href="#path-37"></use>
                    </mask>
                    <g id="Clip-439"></g>
                    <polygon id="Fill-438" fill="#C2E9FF" mask="url(#mask-38)" points="-1.94465116 -2.05491771 17.4153488 -2.05491771 17.4153488 3.78141371 -1.94465116 3.78141371"></polygon>
                </g>
                <g id="分组" transform="translate(65.116279, 57.282857)">
                    <mask id="mask-40" fill="white">
                        <use xlink:href="#path-39"></use>
                    </mask>
                    <g id="Clip-441"></g>
                    <polygon id="Fill-440" fill="#FFFFFF" mask="url(#mask-40)" points="-1.99581395 -2.05491771 50.9432558 -2.05491771 50.9432558 46.646688 -1.99581395 46.646688"></polygon>
                </g>
                <g id="分组" transform="translate(68.372093, 59.611429)">
                    <mask id="mask-42" fill="white">
                        <use xlink:href="#path-41"></use>
                    </mask>
                    <g id="Clip-443"></g>
                    <polygon id="Fill-442" fill="#FBDF86" mask="url(#mask-42)" points="-0.926046512 -2.17972914 45.2525581 -0.565051143 44.0274419 34.5637309 -2.15116279 32.9490529"></polygon>
                </g>
                <g id="分组" transform="translate(58.604651, 54.488571)">
                    <mask id="mask-44" fill="white">
                        <use xlink:href="#path-43"></use>
                    </mask>
                    <g id="Clip-445"></g>
                    <polygon id="Fill-444" fill="#F0E0CB" mask="url(#mask-44)" points="-1.89116279 -2.02334229 16.8990698 -2.02334229 16.8990698 7.65834543 -1.89116279 7.65834543"></polygon>
                </g>
                <g id="分组" transform="translate(78.139535, 95.471429)">
                    <mask id="mask-46" fill="white">
                        <use xlink:href="#path-45"></use>
                    </mask>
                    <g id="Clip-447"></g>
                    <polygon id="Fill-446" fill="#F0E0CB" mask="url(#mask-46)" points="-2.20418605 -2.02599686 10.3353488 -2.02599686 10.3353488 7.852036 -2.20418605 7.852036"></polygon>
                </g>
                <g id="分组" transform="translate(41.860465, 99.662857)">
                    <mask id="mask-48" fill="white">
                        <use xlink:href="#path-47"></use>
                    </mask>
                    <g id="Clip-449"></g>
                    <polygon id="Fill-448" fill="#91D7FD" mask="url(#mask-48)" points="-2.08093023 -2.07336 46.8939535 -2.07336 46.8939535 49.8508954 -2.08093023 49.8508954"></polygon>
                </g>
                <g id="分组" transform="translate(33.023256, 57.282857)">
                    <mask id="mask-50" fill="white">
                        <use xlink:href="#path-49"></use>
                    </mask>
                    <g id="Clip-451"></g>
                    <polygon id="Fill-450" fill="#56A3CE" mask="url(#mask-50)" points="-1.93906977 -2.05491771 49.8488372 -2.05491771 49.8488372 50.4173903 -1.93906977 50.4173903"></polygon>
                </g>
                <g id="分组" transform="translate(40.000000, 143.440000)">
                    <mask id="mask-52" fill="white">
                        <use xlink:href="#path-51"></use>
                    </mask>
                    <g id="Clip-453"></g>
                    <polygon id="Fill-452" fill="#474A5B" mask="url(#mask-52)" points="-2.05116279 -2.10754343 15.2325581 -2.10754343 15.2325581 8.69926343 -2.05116279 8.69926343"></polygon>
                </g>
                <g id="分组" transform="translate(77.674419, 144.371429)">
                    <mask id="mask-54" fill="white">
                        <use xlink:href="#path-53"></use>
                    </mask>
                    <g id="Clip-455"></g>
                    <polygon id="Fill-454" fill="#474A5B" mask="url(#mask-54)" points="-1.72883721 -2.23514914 15.652093 -1.32304771 15.0651163 9.89396029 -2.31627907 8.98190543"></polygon>
                </g>
                <g id="分组" transform="translate(46.046512, 50.297143)">
                    <mask id="mask-56" fill="white">
                        <use xlink:href="#path-55"></use>
                    </mask>
                    <g id="Clip-457"></g>
                    <polygon id="Fill-456" fill="#F0E0CB" mask="url(#mask-56)" points="-2.14790698 -1.97597914 13.6306977 -1.97597914 13.6306977 15.047182 -2.14790698 15.047182"></polygon>
                </g>
                <g id="分组" transform="translate(42.790698, 45.640000)">
                    <mask id="mask-58" fill="white">
                        <use xlink:href="#path-57"></use>
                    </mask>
                    <g id="Clip-459"></g>
                    <polygon id="Fill-458" fill="#474A5B" mask="url(#mask-58)" points="-2.09581395 -1.92335343 22.8897674 -1.92335343 22.8897674 15.5827069 -2.09581395 15.5827069"></polygon>
                </g>
                <g id="分组" transform="translate(76.744186, 63.802857)">
                    <mask id="mask-60" fill="white">
                        <use xlink:href="#path-59"></use>
                    </mask>
                    <g id="Clip-461"></g>
                    <polygon id="Fill-460" fill="#FFFFFF" mask="url(#mask-60)" points="-0.811627907 -2.92119286 12.4488372 -0.818213429 10.3418605 12.5010754 -2.91860465 10.398096"></polygon>
                </g>
                <g id="分组" transform="translate(78.604651, 65.665714)">
                    <mask id="mask-62" fill="white">
                        <use xlink:href="#path-61"></use>
                    </mask>
                    <g id="Clip-463"></g>
                    <polygon id="Fill-462" fill="#F7C472" mask="url(#mask-62)" points="-1.11255814 -2.60990943 8.42697674 -1.09708314 6.91255814 8.47832857 -2.62697674 6.96550229"></polygon>
                </g>
                <g id="分组" transform="translate(74.883721, 74.980000)">
                    <mask id="mask-64" fill="white">
                        <use xlink:href="#path-63"></use>
                    </mask>
                    <g id="Clip-465"></g>
                    <polygon id="Fill-464" fill="#FBEFC2" mask="url(#mask-64)" points="-1.6144186 -2.54685171 31.0906977 2.05547657 30.2516279 8.03520143 -2.45348837 3.43291971"></polygon>
                </g>
                <g id="分组" transform="translate(74.418605, 79.637143)">
                    <mask id="mask-66" fill="white">
                        <use xlink:href="#path-65"></use>
                    </mask>
                    <g id="Clip-467"></g>
                    <polygon id="Fill-466" fill="#FBEFC2" mask="url(#mask-66)" points="-1.60697674 -2.60320314 19.9218605 0.426314857 19.0827907 6.40608629 -2.44604651 3.37652171"></polygon>
                </g>
                <g id="分组" transform="translate(87.906977, 66.597143)">
                    <mask id="mask-68" fill="white">
                        <use xlink:href="#path-67"></use>
                    </mask>
                    <g id="Clip-469"></g>
                    <polygon id="Fill-468" fill="#FBEFC2" mask="url(#mask-68)" points="-1.8227907 -2.45929743 9.51674419 -0.863574 8.67767442 5.11615086 -2.66232558 3.52042743"></polygon>
                </g>
                <g id="分组" transform="translate(87.441860, 69.857143)">
                    <mask id="mask-70" fill="white">
                        <use xlink:href="#path-69"></use>
                    </mask>
                    <g id="Clip-471"></g>
                    <polygon id="Fill-470" fill="#FBEFC2" mask="url(#mask-70)" points="-1.87581395 -2.49441229 14.5902326 -0.177344 13.8111628 5.37136229 -2.6544186 3.054294"></polygon>
                </g>
            </g>
        </g>
    </g>
</svg>