<?xml version="1.0" encoding="UTF-8"?>
<svg width="44px" height="44px" viewBox="0 0 44 44" version="1.1" xmlns="http://www.w3.org/2000/svg" xmlns:xlink="http://www.w3.org/1999/xlink">
    <!-- Generator: Sketch 52 (66869) - http://www.bohemiancoding.com/sketch -->
    <title>操作成功</title>
    <desc>Created with Sketch.</desc>
    <g id="聊天" stroke="none" stroke-width="1" fill="none" fill-rule="evenodd">
        <g id="联系人消息（添加好友成功提示）" transform="translate(-255.000000, -20.000000)">
            <g id="操作成功pop" transform="translate(235.000000, 0.000000)">
                <g id="操作成功" transform="translate(20.000000, 20.000000)">
                    <circle id="Oval-12-Copy" fill="#EAF6FF" cx="22" cy="22" r="22"></circle>
                    <circle id="Oval-12-Copy-2" fill="#61C7FF" cx="22.5789474" cy="22.5789474" r="12.1578947"></circle>
                    <path d="M21.9999639,33.3476899 C15.7428244,33.3476899 10.652274,28.2571033 10.652274,21.9999639 C10.652274,15.7428244 15.7428244,10.6522379 21.9999639,10.6522379 C28.2571755,10.6522379 33.3477981,15.7428244 33.3477981,21.9999639 C33.3477981,28.2571033 28.2571755,33.3476899 21.9999639,33.3476899 M21.9999639,9.26315789 C14.9768636,9.26315789 9.26315789,14.9768636 9.26315789,21.9999639 C9.26315789,29.0231003 14.9768636,34.7368421 22,34.7368421 C29.0231003,34.7368421 34.7368421,29.0231003 34.7368421,21.9999639 C34.7368421,14.9768636 29.0231003,9.26315789 21.9999639,9.26315789" id="Fill-3" fill="#FFFFFF" fill-rule="nonzero"></path>
                    <path d="M16.4545902,23.0911574 C16.1256856,22.7216097 16.1297237,22.1326757 16.4635847,21.7685311 C16.7975186,21.4043865 17.337743,21.3997302 17.6768521,21.7581061 L20.0603823,24.3564779 L25.1790159,18.777028 C25.5202241,18.433066 26.0497485,18.4443651 26.3783177,18.8026615 C26.706887,19.1609738 26.7170331,19.7382909 26.4012778,20.1100794 L20.6715133,26.3556815 C20.3337163,26.7235448 19.7864798,26.7235448 19.4486828,26.3556815 L16.4545902,23.0911574 Z" id="Fill-1" fill="#FFFFFF"></path>
                </g>
            </g>
        </g>
    </g>
</svg>