<?xml version="1.0" encoding="UTF-8"?>
<svg width="14px" height="14px" viewBox="0 0 14 14" version="1.1" xmlns="http://www.w3.org/2000/svg" xmlns:xlink="http://www.w3.org/1999/xlink">
    <!-- Generator: Sketch 52.4 (67378) - http://www.bohemiancoding.com/sketch -->
    <title>Fill 1</title>
    <desc>Created with Sketch.</desc>
    <g id="聊天" stroke="none" stroke-width="1" fill="none" fill-rule="evenodd">
        <g id="赞赏" transform="translate(-710.000000, -154.000000)" fill="#B2BCC6">
            <path d="M711.82355,167.822034 L711.631769,167.822034 C710.731788,167.822034 710,167.108687 710,166.231346 L710,160.751723 C710,159.874382 710.731788,159.161017 711.631769,159.161017 L711.82355,159.161017 C712.72355,159.161017 713.455319,159.874382 713.455319,160.751723 L713.455319,166.23282 C713.455319,167.108687 712.72355,167.822034 711.82355,167.822034 Z M720.853689,168 L720.829991,168 C720.207423,167.994083 719.571545,167.992645 719.025876,167.992645 L718.106008,167.992645 C717.517434,167.992645 716.888933,167.992645 716.256031,167.985235 L716.2486,167.985235 C715.862644,167.97342 715.487004,167.895302 715.129146,167.749352 C714.451824,167.485396 714.048104,166.876325 714.05108,166.119865 L714.054038,163.84011 C714.054038,162.55865 714.05548,161.303716 714.065868,160.047361 C714.068845,159.584388 714.34387,159.17297 714.599707,158.9414 C715.294793,158.307352 716.047498,157.519926 716.355094,156.486183 C716.437927,156.204587 716.47194,155.877186 716.507395,155.530633 C716.551797,155.091197 716.718886,154.713695 716.990972,154.437998 C717.268973,154.156309 717.646111,154 718.052789,154 C718.367761,154 718.679775,154.091445 718.980014,154.269873 C719.553781,154.613459 719.932379,155.144265 720.137955,155.89195 C720.441077,156.987534 720.297613,158.027175 720.132039,158.919299 L722.184634,158.919299 C722.435979,158.919299 723.203565,158.919299 723.672335,159.487044 C723.975476,159.854261 724.068624,160.349695 723.950336,160.957255 C723.648655,162.499702 723.278948,164.06862 722.924048,165.535917 C722.807202,166.018117 722.619391,166.451654 722.435979,166.871901 L722.434538,166.874868 L722.35908,167.04891 C722.100285,167.653447 721.55164,168 720.853689,168 Z" id="Fill-1"></path>
        </g>
    </g>
</svg>