<?xml version="1.0" encoding="UTF-8"?>
<svg width="30px" height="30px" viewBox="0 0 30 30" version="1.1" xmlns="http://www.w3.org/2000/svg" xmlns:xlink="http://www.w3.org/1999/xlink">
    <!-- Generator: Sketch 52.4 (67378) - http://www.bohemiancoding.com/sketch -->
    <title>Fill 1 Copy 13</title>
    <desc>Created with Sketch.</desc>
    <g id="聊天" stroke="none" stroke-width="1" fill="none" fill-rule="evenodd">
        <g id="赞赏" transform="translate(-607.000000, -1014.000000)" fill="#B2BCC6">
            <path d="M610.895309,1043.52381 L610.485643,1043.52381 C608.563182,1043.52381 607,1041.99421 607,1040.11297 L607,1028.36326 C607,1026.48202 608.563182,1024.95238 610.485643,1024.95238 L610.895309,1024.95238 C612.81781,1024.95238 614.380952,1026.48202 614.380952,1028.36326 L614.380952,1040.11613 C614.380952,1041.99421 612.81781,1043.52381 610.895309,1043.52381 Z M630.2233,1044 L630.172258,1044 C628.831336,1043.98732 627.461748,1043.98424 626.286455,1043.98424 L624.305193,1043.98424 C623.03749,1043.98424 621.683788,1043.98424 620.32061,1043.96836 L620.304604,1043.96836 C619.473312,1043.94304 618.664236,1043.77565 617.893461,1043.4629 C616.434608,1042.89728 615.565054,1041.59212 615.571464,1039.97114 L615.577834,1035.08595 C615.577834,1032.33996 615.58094,1029.65082 615.603316,1026.95863 C615.609726,1025.96654 616.20209,1025.08494 616.753126,1024.58871 C618.250242,1023.23004 619.871459,1021.5427 620.533977,1019.32754 C620.712387,1018.72412 620.785646,1018.02254 620.862011,1017.27993 C620.957646,1016.33828 621.317532,1015.52935 621.903566,1014.93857 C622.50234,1014.33495 623.314641,1014 624.190566,1014 C624.86897,1014 625.541003,1014.19595 626.187675,1014.5783 C627.423486,1015.31455 628.238932,1016.452 628.681712,1018.05418 C629.334595,1020.40186 629.025592,1022.62966 628.668971,1024.54136 L633.089964,1024.54136 C633.631326,1024.54136 635.284594,1024.54136 636.294257,1025.75795 C636.94718,1026.54484 637.147806,1027.60649 636.893031,1028.9084 C636.243254,1032.21365 635.446959,1035.57561 634.682555,1038.71982 C634.430886,1039.75311 634.026368,1040.68212 633.631326,1041.58264 L633.62822,1041.589 L633.465696,1041.96195 C632.908289,1043.25739 631.726587,1044 630.2233,1044 Z" id="Fill-1-Copy-13"></path>
        </g>
    </g>
</svg>