<?xml version="1.0" encoding="UTF-8"?>
<svg width="60px" height="60px" viewBox="0 0 60 60" version="1.1" xmlns="http://www.w3.org/2000/svg" xmlns:xlink="http://www.w3.org/1999/xlink">
    <!-- Generator: Sketch 52.4 (67378) - http://www.bohemiancoding.com/sketch -->
    <title>发送中 copy 3</title>
    <desc>Created with Sketch.</desc>
    <g id="聊天" stroke="none" stroke-width="1" fill="none" fill-rule="evenodd">
        <g id="设置" transform="translate(-180.000000, -1720.000000)" fill="#32B2F7" fill-rule="nonzero">
            <g id="发送中-copy-3" transform="translate(180.000000, 1720.000000)">
                <path d="M45.9126592,40.60717 L51.2099452,45.9126592 C52.6757914,47.3699674 52.6757914,49.748368 51.2099452,51.2099452 C49.7440992,52.6711876 47.3699674,52.6757914 45.9126592,51.2099452 L40.60717,45.9126592 C39.1413238,44.4386936 39.1413238,42.0726812 40.60717,40.60717 C42.0726812,39.1413238 44.4386936,39.1413238 45.9126592,40.60717 Z M14.9998954,29.9997908 C14.9998954,32.065636 13.3242002,33.7498692 11.2498169,33.7498692 L3.75007848,33.7498692 C1.67577891,33.7498692 0,32.065636 0,29.9997908 C0,27.930095 1.67577891,26.2501308 3.75007848,26.2501308 L11.2498169,26.2501308 C13.3242002,26.2501308 14.9998954,27.930095 14.9998954,29.9997908 Z M14.091275,19.3928301 L8.78578574,14.091275 C7.31993956,12.6257636 7.31993956,10.2512971 8.78578574,8.7900547 C10.2512971,7.3284775 12.6257636,7.32420854 14.087006,8.7900547 L19.3885611,14.091275 C20.8544072,15.5570374 20.8544072,17.9315877 19.3885611,19.3928301 C17.9269839,20.8585926 15.5528522,20.8585926 14.091275,19.3928301 Z M14.091275,51.2099452 C12.6300326,52.6757914 10.2512971,52.6757914 8.7900547,51.2099452 C7.32420854,49.748368 7.32420854,47.3699674 8.7900547,45.9126592 L14.091275,40.60717 C15.5570374,39.1413238 17.9315877,39.1413238 19.3928301,40.60717 C20.8544072,42.0726812 20.8585926,44.4428788 19.3928301,45.9126592 L14.091275,51.2099452 Z M29.9997908,14.9998954 C27.925826,14.9998954 26.2501308,13.3199312 26.2501308,11.2498169 L26.2501308,3.75007848 C26.2501308,1.67996417 27.925826,0 29.9997908,0 C32.065636,0 33.7498692,1.67996417 33.7498692,3.75007848 L33.7498692,11.2498169 C33.7498692,13.3199312 32.065636,14.9998954 29.9997908,14.9998954 Z M29.9997908,60 C27.925826,60 26.2501308,58.3157668 26.2501308,56.2499216 L26.2501308,48.7497646 C26.2501308,46.6843378 27.925826,45.000021 29.9997908,45.000021 C32.065636,45.000021 33.7498692,46.6843378 33.7498692,48.7497646 L33.7498692,56.2499216 C33.7498692,58.3157668 32.065636,60 29.9997908,60 Z M45.9126592,19.3928301 C44.4386936,20.8585926 42.0726812,20.8585926 40.60717,19.3928301 C39.1413238,17.9315877 39.1413238,15.5528522 40.60717,14.091275 L45.9126592,8.7900547 C47.3699674,7.32420854 49.748368,7.32420854 51.2099452,8.7900547 C52.6711876,10.2558172 52.6757914,12.6300326 51.2099452,14.091275 L45.9126592,19.3928301 Z M56.2499216,33.7498692 L48.7498482,33.7498692 C46.6843378,33.7498692 45.0001046,32.065636 45.0001046,29.9997908 C45.0001046,27.930095 46.6843378,26.2501308 48.7498482,26.2501308 L56.2499216,26.2501308 C58.3157668,26.2501308 60,27.930095 60,29.9997908 C60,32.065636 58.3157668,33.7498692 56.2499216,33.7498692 Z" id="Fill-1"></path>
            </g>
        </g>
    </g>
</svg>