<?xml version="1.0" encoding="UTF-8"?>
<svg width="34px" height="34px" viewBox="0 0 34 34" version="1.1" xmlns="http://www.w3.org/2000/svg" xmlns:xlink="http://www.w3.org/1999/xlink">
    <!-- Generator: Sketch 52.4 (67378) - http://www.bohemiancoding.com/sketch -->
    <title>头像 copy 6</title>
    <desc>Created with Sketch.</desc>
    <defs>
        <path d="M21.3166,21.853848 C21.08336,22.087812 20.84998,22.204724 20.499984,22.204724 C20.149984,22.204724 19.916604,22.087812 19.683368,21.853848 L18.166616,20.333288 L18.166616,25.7134972 C18.166616,26.4152516 17.699996,26.8830409 17,26.8830409 C16.300004,26.8830409 15.833384,26.4152516 15.833384,25.7134972 L15.833384,20.333288 L14.316632,21.853848 C14.083396,22.087812 13.850016,22.204724 13.500016,22.204724 C13.15002,22.204724 12.91664,22.087812 12.6834,21.853848 C12.216644,21.38606 12.216644,20.684304 12.6834,20.216516 L15.98098,16.910656 C16.171204,16.564584 16.533696,16.356724 17,16.356724 C17.466164,16.356724 17.82862,16.564444 18.018844,16.910376 L21.3166,20.216516 C21.783356,20.684304 21.783356,21.38606 21.3166,21.853848 Z" id="path-1"></path>
        <path d="M23.9999995,11.672476 C27.8499995,11.672476 30.9999995,14.826428 30.9999995,18.681256 C30.9999995,22.536088 27.8499995,25.6900404 23.9999995,25.6900404 L21.6666195,25.6900404 C20.9666195,25.6900404 20.4999995,25.2228348 20.4999995,24.5219564 C20.4999995,23.821078 20.9666195,23.3537324 21.6666195,23.3537324 L23.9999995,23.3537324 C26.5666195,23.3537324 28.6666195,21.251096 28.6666195,18.681256 C28.6666195,16.111416 26.5666195,14.008784 23.9999995,14.008784 C23.7111115,14.008784 23.3429795,14.008956 23.0263355,14.074628 C22.9664155,14.096744 22.9022595,14.114056 22.8333795,14.125548 C22.2499995,14.35922 21.5499995,14.008784 21.3166195,13.424672 C20.6166195,10.971596 18.3999995,9.336308 15.8333795,9.336308 C12.5666195,9.336308 9.9999995,11.906148 9.9999995,15.176864 C9.9999995,15.877744 9.5333795,16.344948 8.8333795,16.344948 C6.8499999,16.344948 5.3333799,17.863612 5.3333799,19.84948 C5.3333799,21.835208 6.8499999,23.3537324 8.8333795,23.3537324 L12.3333795,23.3537324 C13.0333795,23.3537324 13.4999995,23.821078 13.4999995,24.5219564 C13.4999995,25.2228348 13.0333795,25.6900404 12.3333795,25.6900404 L8.8333795,25.6900404 C5.5666199,25.6900404 3,23.1202 3,19.84948 C3,16.955836 5.0089299,14.611224 7.7341355,14.108868 C8.2481435,10.06806 11.6453155,7 15.8333795,7 C18.9793195,7 21.8421435,8.887744 23.2364395,11.729524 C23.4909235,11.694764 23.7454795,11.672476 23.9999995,11.672476 Z" id="path-3"></path>
    </defs>
    <g id="聊天" stroke="none" stroke-width="1" fill="none" fill-rule="evenodd">
        <g id="设置" transform="translate(-143.000000, -106.000000)">
            <g id="上传" transform="translate(143.000000, 106.000000)">
                <rect id="头像-copy-6" opacity="0.801757812" x="0" y="0" width="34" height="34"></rect>
                <mask id="mask-2" fill="white">
                    <use xlink:href="#path-1"></use>
                </mask>
                <use id="Clip-3" fill="#FFFFFF" xlink:href="#path-1"></use>
                <mask id="mask-4" fill="white">
                    <use xlink:href="#path-3"></use>
                </mask>
                <use id="Clip-5" fill="#FFFFFF" xlink:href="#path-3"></use>
            </g>
        </g>
    </g>
</svg>