<?xml version="1.0" encoding="UTF-8"?>
<svg width="44px" height="44px" viewBox="0 0 44 44" version="1.1" xmlns="http://www.w3.org/2000/svg" xmlns:xlink="http://www.w3.org/1999/xlink">
    <!-- Generator: Sketch 52.4 (67378) - http://www.bohemiancoding.com/sketch -->
    <title>头像</title>
    <desc>Created with Sketch.</desc>
    <g id="聊天" stroke="none" stroke-width="1" fill="none" fill-rule="evenodd">
        <g id="群消息" transform="translate(-18.000000, -74.000000)">
            <g id="左侧栏">
                <g id="头像" transform="translate(18.000000, 74.000000)">
                    <rect fill="#EAF6FF" x="0" y="0" width="44" height="44" rx="4"></rect>
                    <g id="Group-2" transform="translate(10.000000, 9.000000)">
                        <path d="M24.9446253,12.0019303 C24.5766723,5.34223037 19.1383054,0.0567695749 12.4826007,0.0567695749 C5.82689598,0.0567695749 0.388473154,5.34223037 0.0205201343,12.0019303 C0.00754474275,12.1444217 -5.59284117e-06,12.2883885 -5.59284117e-06,12.4341712 L-5.59284117e-06,19.0211784 C-5.59284117e-06,21.6070768 2.08511745,23.7227138 4.63366331,23.7227138 L6.29300338,23.7227138 C8.11733219,24.781724 10.2301958,25.3872699 12.4826007,25.3872699 C14.7349497,25.3872699 16.8478132,24.781724 18.6721421,23.7227138 L20.3314821,23.7227138 C22.8799721,23.7227138 24.965151,21.6070768 24.965151,19.0211784 L24.965151,12.4341712 C24.965151,12.2883885 24.9575448,12.1444217 24.9446253,12.0019303" id="Fill-1" fill="#61C7FF"></path>
                        <path d="M10.1397371,13.2662393 C10.1397371,14.7740038 8.93503913,15.9963315 7.44902125,15.9963315 C5.96294743,15.9963315 4.75830537,14.7740038 4.75830537,13.2662393 C4.75830537,11.7584748 5.96294743,10.5361471 7.44902125,10.5361471 C8.93503913,10.5361471 10.1397371,11.7584748 10.1397371,13.2662393" id="Fill-4" fill="#EAF6FF"></path>
                        <path d="M20.2068233,13.2662393 C20.2068233,14.7740038 19.0021812,15.9963315 17.5161633,15.9963315 C16.0300895,15.9963315 14.8253915,14.7740038 14.8253915,13.2662393 C14.8253915,11.7584748 16.0300895,10.5361471 17.5161633,10.5361471 C19.0021812,10.5361471 20.2068233,11.7584748 20.2068233,13.2662393" id="Fill-6" fill="#EAF6FF"></path>
                        <path d="M22.8847763,12.7787382 L22.8847763,22.9383018 C24.1359508,22.0941352 24.9651454,20.6514594 24.9651454,19.0211784 L24.9651454,12.4341712 C24.9651454,12.2883885 24.9575951,12.1444217 24.9446197,12.0019303 C24.5888591,5.56291897 19.4929978,0.408997435 13.1400336,0.0744178532 L12.4825951,0.0567695749 C12.4825951,0.0567695749 22.8847763,3.10180695 22.8847763,12.7787382" id="Fill-8" fill="#5BBDF2"></path>
                    </g>
                </g>
            </g>
        </g>
    </g>
</svg>