<?xml version="1.0" encoding="UTF-8"?>
<svg width="40px" height="40px" viewBox="0 0 40 40" version="1.1" xmlns="http://www.w3.org/2000/svg" xmlns:xlink="http://www.w3.org/1999/xlink">
    <!-- Generator: Sketch 52.4 (67378) - http://www.bohemiancoding.com/sketch -->
    <title>视频播放</title>
    <desc>Created with Sketch.</desc>
    <g id="视频播放" stroke="none" stroke-width="1" fill="none" fill-rule="evenodd" opacity="0.80312965">
        <path d="M20,40 C8.954305,40 0,31.045695 0,20 C0,8.954305 8.954305,0 20,0 C31.045695,0 40,8.954305 40,20 C40,31.045695 31.045695,40 20,40 Z M27.6334369,22.6832816 C28.2140191,22.3929905 28.6847865,21.922223 28.9750776,21.3416408 C29.7160454,19.8597053 29.1153723,18.0576862 27.6334369,17.3167184 L17.3416408,12.1708204 C16.9250745,11.9625372 16.4657353,11.854102 16,11.854102 C14.3431458,11.854102 13,13.1972477 13,14.854102 L13,25.145898 C13,25.6116333 13.1084353,26.0709725 13.3167184,26.4875388 C14.0576862,27.9694743 15.8597053,28.5701474 17.3416408,27.8291796 L27.6334369,22.6832816 Z" id="合并形状" fill="#EAF6FF" fill-rule="nonzero"></path>
    </g>
</svg>