<?xml version="1.0" encoding="UTF-8"?>
<svg width="50px" height="50px" viewBox="0 0 50 50" version="1.1" xmlns="http://www.w3.org/2000/svg" xmlns:xlink="http://www.w3.org/1999/xlink">
    <!-- Generator: Sketch 52.4 (67378) - http://www.bohemiancoding.com/sketch -->
    <title>分组 4</title>
    <desc>Created with Sketch.</desc>
    <defs>
        <path d="M29.7141125,15 L29.7158052,15 C30.056097,15.0002165 30.395786,15.1312245 30.64855,15.3903412 C30.8834623,15.6311213 30.9998581,15.9388886 31,16.2462634 L31,16.2473886 C30.9998473,16.5781899 30.8650472,16.9084415 30.59842,17.1541529 L22.1221594,24.9466176 L30.564952,32.8529288 C31.076356,33.3303041 31.08973,34.1197353 30.59842,34.6167382 C30.347752,34.8700348 30.010216,35 29.675872,35 C29.355004,35 29.034034,34.8830537 28.786768,34.6492356 L19.4281282,25.8820882 C19.4113574,25.8658882 19.4045571,25.8399765 19.3845907,25.8236765 C19.3712201,25.8105588 19.3579263,25.8010706 19.3411555,25.7879529 C19.2642555,25.7132176 19.2274161,25.6223824 19.1772828,25.5378588 L19.1774617,25.5377588 C19.1640912,25.5118471 19.1406223,25.4890412 19.1307286,25.4631235 C18.896654,24.9888294 18.9736563,24.4041 19.3880931,24.0241412 L28.833604,15.3415176 C29.0813419,15.1133232 29.3979267,15.0002014 29.7141137,15 L29.7141125,15 Z" id="path-1"></path>
    </defs>
    <g id="聊天" stroke="none" stroke-width="1" fill="none" fill-rule="evenodd">
        <g id="群消息（加群限制、加好友限制）-copy" transform="translate(-30.000000, -3648.000000)">
            <g id="分组-4" transform="translate(30.000000, 3648.000000)">
                <circle id="椭圆形-copy-4" fill="#142E4D" fill-rule="nonzero" opacity="0.697753906" cx="25" cy="25" r="25"></circle>
                <mask id="mask-2" fill="white">
                    <use xlink:href="#path-1"></use>
                </mask>
                <use id="Clip-2" fill="#32B2F7" xlink:href="#path-1"></use>
            </g>
        </g>
    </g>
</svg>