<?xml version="1.0" encoding="UTF-8"?>
<svg width="14px" height="20px" viewBox="0 0 14 20" version="1.1" xmlns="http://www.w3.org/2000/svg" xmlns:xlink="http://www.w3.org/1999/xlink">
    <!-- Generator: Sketch 52.4 (67378) - http://www.bohemiancoding.com/sketch -->
    <title>语音</title>
    <desc>Created with Sketch.</desc>
    <defs>
        <path d="M7.91701556,9.76218095 C7.91701556,10.8241429 7.72417852,11.8576286 7.33829185,12.8628 C6.95254519,13.8679714 6.38099778,14.7895429 5.62374296,15.6273262 C5.44023926,15.8335019 5.20129556,15.9365176 4.90702178,15.9365176 C4.68492837,15.9365176 4.48962111,15.8728143 4.32091593,15.7455029 C4.28230133,15.71896 4.2580917,15.7014076 4.24823415,15.692919 C4.06967141,15.5304795 3.98042919,15.3329129 3.98042919,15.1003138 C3.98042919,14.8941619 4.05035089,14.7142667 4.19029904,14.5603143 C4.80763319,13.8759095 5.27555778,13.1211762 5.59406815,12.2959952 C5.91257852,11.470719 6.07184667,10.6259333 6.07184667,9.76162857 C6.07184667,8.89720952 5.91257852,8.05241905 5.59406815,7.2272381 C5.27555778,6.40208095 4.80763319,5.64722857 4.19029904,4.96282381 C4.05035089,4.80935238 3.98042919,4.63168095 3.98042919,4.42964286 C3.98042919,4.1619381 4.09369696,3.94457143 4.32020607,3.7776619 C4.48891178,3.65032381 4.68429785,3.58671905 4.90631193,3.58671905 C5.20069407,3.58671905 5.43952889,3.68975714 5.62300667,3.89581429 C6.38028741,4.72958095 6.95180889,5.65105714 7.33769037,6.6603381 C7.72346815,7.66962381 7.91638296,8.70320476 7.91638296,9.7609619 L7.91701556,9.76218095 Z M2.36668704,9.7689 C2.36668704,10.5325286 2.15455644,11.2412286 1.73008526,11.894981 C1.6431043,12.0267857 1.52852207,12.1298286 1.38631319,12.2041714 C1.24407785,12.2784429 1.09088156,12.3157952 0.926592074,12.316181 C0.762407852,12.3165381 0.608081185,12.2769381 0.463716815,12.1973571 C0.391429111,12.1578524 0.328683704,12.1139476 0.275296519,12.0657429 C0.0967335704,11.9033952 0.00741274074,11.7037714 0.00741274074,11.4670857 C0.00741274074,11.309119 0.0484719407,11.1687286 0.13061663,11.0459095 C0.386303556,10.6467571 0.514133926,10.2210905 0.514133926,9.7689 C0.514133926,9.31269048 0.386303556,8.8848 0.13061663,8.48519048 C0.0435563852,8.3448 1.33226763e-13,8.20225714 1.33226763e-13,8.05727619 C1.33226763e-13,7.73698571 0.151882267,7.49326667 0.455594222,7.32635714 C0.60048437,7.24722857 0.754811037,7.20762857 0.918601185,7.20762857 C1.27078519,7.20762857 1.53858963,7.34577619 1.72206793,7.62208571 C2.15137585,8.28482857 2.36608244,9.00005714 2.36608244,9.76770476 L2.36668704,9.7689 Z M13.4814815,9.76218095 C13.4814815,11.4868857 13.1485926,13.1654381 12.4828148,14.7978667 C11.8171356,16.4302919 10.837763,17.9113743 9.5448163,19.24097 C9.36636296,19.4295456 9.13480296,19.5238095 8.85038519,19.5238095 C8.60907704,19.5238095 8.40401852,19.453554 8.23531333,19.313258 L8.19157111,19.2734671 C8.01300889,19.1110281 7.92379259,18.913461 7.92379259,18.6808857 C7.92379259,18.4612714 8.00089111,18.2747281 8.15521778,18.1213519 C9.2938637,16.9496281 10.1572126,15.6431324 10.7453681,14.2016238 C11.3335237,12.7601429 11.6277985,11.2801619 11.6282185,9.76162857 C11.6287163,8.24298095 11.3344415,6.763 10.7453681,5.32151429 C10.1562637,3.88012857 9.29294593,2.57350952 8.15521778,1.40188571 C8.00089111,1.24840952 7.92379259,1.06186667 7.92379259,0.842371429 C7.92379259,0.583614286 8.02738741,0.372990476 8.23471185,0.210552381 C8.40330815,0.0701619048 8.60837185,-1.7408297e-13 8.84975778,-1.7408297e-13 C9.13420148,-1.7408297e-13 9.36562667,0.0942380952 9.54418889,0.282838095 C10.8371563,1.61690476 11.8164304,3.09904286 12.4822081,4.72902857 C13.1479859,6.35901429 13.4807711,8.03625238 13.4807711,9.7609619 L13.4814815,9.76218095 Z" id="path-1"></path>
    </defs>
    <g id="语音" stroke="none" stroke-width="1" fill="none" fill-rule="evenodd">
        <mask id="mask-2" fill="white">
            <use xlink:href="#path-1"></use>
        </mask>
        <use id="Clip-3" fill="#24374E" xlink:href="#path-1"></use>
    </g>
</svg>