<?xml version="1.0" encoding="UTF-8"?>
<svg width="40px" height="40px" viewBox="0 0 40 40" version="1.1" xmlns="http://www.w3.org/2000/svg" xmlns:xlink="http://www.w3.org/1999/xlink">
    <!-- Generator: Sketch 52.4 (67378) - http://www.bohemiancoding.com/sketch -->
    <title>分组</title>
    <desc>Created with Sketch.</desc>
    <defs>
        <path d="M4,0 L36,0 C38.20914,0 40,1.79088 40,4 L40,36 C40,38.20912 38.20914,40 36,40 L4,40 C1.7908612,40 0,38.20912 0,36 L0,4 C0,1.79088 1.7908612,0 4,0 Z" id="path-1"></path>
        <path d="M28.666668,26.93072 C28.530836,28.38552 27.494952,29.6592 25.994744,29.95936 L24.732308,30.21396 C23.656676,30.42904 22.700008,30.12352 22.071608,29.4668 C21.590484,28.9518 21.301744,28.24972 21.301744,27.41184 C21.301744,26.74392 21.56782,26.0702 22.003832,25.53244 C22.0265,25.5098 22.049164,25.47588 22.071608,25.45316 C22.507624,24.9606 23.079468,24.59264 23.702008,24.46824 L26.040076,23.99836 C26.719224,23.85108 27.200572,23.26244 27.200572,22.56616 L27.200572,14.0576 C27.200572,13.68964 26.866496,13.40676 26.498536,13.47452 L16.631464,15.4956 C16.286168,15.56344 16.025732,15.86356 16.025732,16.22016 L16.025732,28.81568 C16.116448,30.4576 15.006872,31.95752 13.353808,32.2916 L11.887712,32.59156 C10.121484,32.94836 8.666668,31.76512 8.666668,29.95352 L8.666668,29.73288 C8.666668,28.39116 9.74208,27.08356 11.049848,26.81756 L13.433028,26.3362 C14.089732,26.20036 14.559632,25.62288 14.559632,24.9494 L14.559632,10.90456 C14.559632,10.35544 14.950316,9.87424 15.487996,9.77792 L27.381564,7.35524 C28.049712,7.2192 28.666668,7.7344 28.666668,8.41944 L28.666668,26.93072 Z" id="path-3"></path>
    </defs>
    <g id="聊天" stroke="none" stroke-width="1" fill="none" fill-rule="evenodd">
        <g id="群聊消息-copy-3" transform="translate(-290.000000, -2101.000000)">
            <g id="分组" transform="translate(290.000000, 2101.000000)">
                <mask id="mask-2" fill="white">
                    <use xlink:href="#path-1"></use>
                </mask>
                <use id="Clip-3" fill="#F4C85D" xlink:href="#path-1"></use>
                <mask id="mask-4" fill="white">
                    <use xlink:href="#path-3"></use>
                </mask>
                <use id="Clip-5" fill="#FFFFFF" xlink:href="#path-3"></use>
            </g>
        </g>
    </g>
</svg>