<?xml version="1.0" encoding="UTF-8"?>
<svg width="40px" height="40px" viewBox="0 0 40 40" version="1.1" xmlns="http://www.w3.org/2000/svg" xmlns:xlink="http://www.w3.org/1999/xlink">
    <!-- Generator: Sketch 52.4 (67378) - http://www.bohemiancoding.com/sketch -->
    <title>分组 4 copy</title>
    <desc>Created with Sketch.</desc>
    <g id="聊天" stroke="none" stroke-width="1" fill="none" fill-rule="evenodd">
        <g id="群聊消息-copy-3" transform="translate(-290.000000, -2041.000000)">
            <g id="分组-4-copy" transform="translate(290.000000, 2041.000000)">
                <rect id="矩形-copy-12" fill="#8192F0" x="0" y="0" width="40" height="40" rx="4"></rect>
                <path d="M11.9973075,27.3308799 C11.9973075,27.3308799 10.7142857,27.5203628 10.7142857,25.8962794 L10.7142857,13.6125548 C10.7142857,13.6125548 10.7428123,12.1509082 12.3109501,12.1509082 L17.9563098,12.1509082 C17.9563098,12.1509082 18.6406106,12.0155709 19.2108425,12.8546587 C19.7525665,13.6667004 20.0662091,14.1809858 20.0662091,14.1809858 C20.0662091,14.1809858 20.2658015,14.3975148 20.7219833,14.3975148 C20.3228172,14.3975148 27.9925152,14.3975148 27.9925152,14.3975148 C27.9925152,14.3975148 29.275537,14.2621775 29.275537,15.6155507 L29.275537,25.9774711 C29.275537,25.9774711 29.4751294,27.3308799 28.1065278,27.3308799 L11.9973075,27.3308799 Z M26.9090483,17.8892747 C26.9090483,17.5644544 26.6239323,17.2937798 26.2817819,17.2937798 L13.7365298,17.2937798 C13.3658716,17.2937798 13.0807556,17.5644723 13.0807556,17.8892747 L13.0807556,17.9434025 C13.0807556,18.2952867 13.3658716,18.5659613 13.7365298,18.5659613 L26.2817819,18.5659613 C26.6239323,18.5659613 26.9090483,18.2952689 26.9090483,17.9434025 L26.9090483,17.8892747 Z" id="形状" fill="#FFFFFF" fill-rule="nonzero"></path>
            </g>
        </g>
    </g>
</svg>