<?xml version="1.0" encoding="UTF-8"?>
<svg width="40px" height="40px" viewBox="0 0 40 40" version="1.1" xmlns="http://www.w3.org/2000/svg" xmlns:xlink="http://www.w3.org/1999/xlink">
    <!-- Generator: Sketch 52.4 (67378) - http://www.bohemiancoding.com/sketch -->
    <title>分组 3 copy</title>
    <desc>Created with Sketch.</desc>
    <g id="聊天" stroke="none" stroke-width="1" fill="none" fill-rule="evenodd">
        <g id="群聊消息-copy-3" transform="translate(-290.000000, -1981.000000)">
            <g id="分组-3-copy" transform="translate(290.000000, 1981.000000)">
                <rect id="矩形-copy-11" fill="#DD5F5F" x="0" y="0" width="40" height="40" rx="4"></rect>
                <path d="M4.77142857,14.1885714 L9.84571429,14.1885714 C12.7600146,14.1885714 14.2171429,15.428559 14.2171429,17.9085714 C14.2171429,20.4114411 12.7485861,21.6628571 9.81142857,21.6628571 L6.64,21.6628571 L6.64,26.4285714 L4.77142857,26.4285714 L4.77142857,14.1885714 Z M6.64,15.7828571 L6.64,20.0685714 L9.69142857,20.0685714 C10.6171475,20.0685714 11.2914265,19.8971446 11.7142857,19.5542857 C12.137145,19.1999982 12.3485714,18.6514323 12.3485714,17.9085714 C12.3485714,17.1428533 12.1314307,16.6057158 11.6971429,16.2971429 C11.2742836,15.954284 10.6057189,15.7828571 9.69142857,15.7828571 L6.64,15.7828571 Z M15.9485714,14.1885714 L20.4057143,14.1885714 C22.3714384,14.1885714 23.8685663,14.7428516 24.8971429,15.8514286 C25.8571477,16.8800051 26.3371429,18.3657046 26.3371429,20.3085714 C26.3371429,22.2171524 25.8457192,23.7085661 24.8628571,24.7828571 C23.8342806,25.8800055 22.3371527,26.4285714 20.3714286,26.4285714 L15.9485714,26.4285714 L15.9485714,14.1885714 Z M17.8171429,15.7828571 L17.8171429,24.8342857 L20.0285714,24.8342857 C21.5828649,24.8342857 22.7199964,24.4628609 23.44,23.72 C24.148575,22.9771391 24.5028571,21.8400077 24.5028571,20.3085714 C24.5028571,18.7542779 24.1542892,17.6114322 23.4571429,16.88 C22.7371393,16.1485678 21.605722,15.7828571 20.0628571,15.7828571 L17.8171429,15.7828571 Z M28.24,14.1885714 L36.5542857,14.1885714 L36.5542857,15.7828571 L30.1085714,15.7828571 L30.1085714,19.3485714 L36.1942857,19.3485714 L36.1942857,20.9428571 L30.1085714,20.9428571 L30.1085714,26.4285714 L28.24,26.4285714 L28.24,14.1885714 Z" id="PDF" fill="#FFFFFF"></path>
            </g>
        </g>
    </g>
</svg>