<?xml version="1.0" encoding="UTF-8"?>
<svg width="40px" height="40px" viewBox="0 0 40 40" version="1.1" xmlns="http://www.w3.org/2000/svg" xmlns:xlink="http://www.w3.org/1999/xlink">
    <!-- Generator: Sketch 52.4 (67378) - http://www.bohemiancoding.com/sketch -->
    <title>分组</title>
    <desc>Created with Sketch.</desc>
    <defs>
        <path d="M4,0 L36,0 C38.20914,0 40,1.79086 40,4 L40,36 C40,38.2091388 38.20914,40 36,40 L4,40 C1.7908612,40 0,38.2091388 0,36 L0,4 C0,1.79086 1.7908612,0 4,0 Z" id="path-1"></path>
        <path d="M29.6249804,14.743505 L29.6249804,13.2585162 C29.6249804,12.8228262 29.3146861,12.5016537 28.933485,12.5016537 L27.5709543,12.5016537 C27.1724596,12.5016537 26.8779189,12.839375 26.8779189,13.2585162 L26.8779189,14.743505 C26.8779189,15.179225 27.1882132,15.5003675 27.5694143,15.5003675 L28.931945,15.5003675 C29.3304396,15.5003675 29.6249804,15.1611725 29.6249804,14.743505 Z M29.6249804,20.7425525 L29.6249804,19.2574475 C29.6249804,18.8217275 29.3146861,18.500585 28.933485,18.500585 L27.5709543,18.500585 C27.1724596,18.500585 26.8779189,18.83978 26.8779189,19.2574475 L26.8779189,20.7425525 C26.8779189,21.1782725 27.1882132,21.499415 27.5694143,21.499415 L28.931945,21.499415 C29.3304396,21.499415 29.6249804,21.1616937 29.6249804,20.7425525 Z M29.6249804,26.7429538 L29.6249804,25.2579687 C29.6249804,24.8222788 29.3146861,24.5011025 28.933485,24.5011025 L27.5709543,24.5011025 C27.1724596,24.5011025 26.8779189,24.8403275 26.8779189,25.2579687 L26.8779189,26.7429538 C26.8779189,27.1786738 27.1882132,27.49982 27.5694143,27.49982 L28.931945,27.49982 C29.3304396,27.49982 29.6249804,27.160625 29.6249804,26.7429538 Z M13.1237704,14.743505 L13.1237704,13.2585162 C13.1237704,12.8228262 12.81348,12.5016537 12.4306171,12.5016537 L11.0682082,12.5016537 C10.6681461,12.5016537 10.3734836,12.839375 10.3734836,13.2585162 L10.3734836,14.743505 C10.3734836,15.179225 10.6854357,15.5003675 11.0682082,15.5003675 L12.4290457,15.5003675 C12.8292336,15.5003675 13.1237704,15.1611725 13.1237704,14.743505 Z M13.1237704,20.7425525 L13.1237704,19.2574475 C13.1237704,18.8217275 12.81348,18.500585 12.4306171,18.500585 L11.0682082,18.500585 C10.6681461,18.500585 10.3734836,18.83978 10.3734836,19.2574475 L10.3734836,20.7425525 C10.3734836,21.1797463 10.6854357,21.499415 11.0682082,21.499415 L12.4290457,21.499415 C12.8292336,21.499415 13.1237704,21.1616937 13.1237704,20.7425525 Z M13.1237704,26.7429538 L13.1237704,25.2579687 C13.1237704,24.8222788 12.81348,24.5011025 12.4306171,24.5011025 L11.0682082,24.5011025 C10.6681461,24.5011025 10.3734836,24.8403275 10.3734836,25.2579687 L10.3734836,26.7429538 C10.3734836,27.1786738 10.6838682,27.49982 11.0682082,27.49982 L12.4290457,27.49982 C12.8292336,27.49982 13.1237704,27.160625 13.1237704,26.7429538 Z M28.9444379,11 C30.0833071,11 31,12.0116637 31,13.26152 L31,26.73848 C31,27.9823587 30.0769389,29 28.9444379,29 L11.0555621,29 C9.91669286,29 9,27.9868325 9,26.73848 L9,13.26152 C9,12.0161413 9.92462857,11 11.0555621,11 L28.9444379,11 Z M17.5577093,23.6703875 C17.0993825,23.9192113 16.5622918,23.5588175 16.5622918,23.0009525 L16.5622918,17.0005513 C16.5622918,16.4411563 17.0993825,16.0807888 17.5577093,16.3295825 L23.0581964,19.3297963 C23.5637486,19.60574 23.5637486,20.39426 23.0581964,20.6716738 L17.5577093,23.6703875 Z" id="path-3"></path>
    </defs>
    <g id="聊天" stroke="none" stroke-width="1" fill="none" fill-rule="evenodd">
        <g id="群聊消息-copy-3" transform="translate(-290.000000, -2158.000000)">
            <g id="分组" transform="translate(290.000000, 2158.000000)">
                <mask id="mask-2" fill="white">
                    <use xlink:href="#path-1"></use>
                </mask>
                <use id="Clip-7" fill="#62CEB6" xlink:href="#path-1"></use>
                <mask id="mask-4" fill="white">
                    <use xlink:href="#path-3"></use>
                </mask>
                <use id="Clip-9-Copy" fill="#FFFFFF" xlink:href="#path-3"></use>
            </g>
        </g>
    </g>
</svg>